<?xml version="1.0" encoding="UTF-8" standalone="no"?>
<svg width="26px" height="27px" viewBox="0 0 26 27" version="1.1" xmlns="http://www.w3.org/2000/svg" xmlns:xlink="http://www.w3.org/1999/xlink" xmlns:sketch="http://www.bohemiancoding.com/sketch/ns">
    <!-- Generator: Sketch 3.2.1 (9971) - http://www.bohemiancoding.com/sketch -->
    <title>icon-video-green</title>
    <desc>Created with Sketch.</desc>
    <defs></defs>
    <g id="Page-1" stroke="none" stroke-width="1" fill="none" fill-rule="evenodd" sketch:type="MSPage">
        <g id="icons" sketch:type="MSArtboardGroup" transform="translate(-714.000000, -62.000000)" fill="#00A683">
            <path d="M714.999844,88.5002829 C714.816844,88.5002829 714.634844,88.4502829 714.473844,88.3502829 C714.179844,88.1682829 714.000844,87.8462829 714.000844,87.5002829 L714.000844,71.0172829 C714.000844,70.6762829 714.173844,70.3592829 714.460844,70.1752829 C714.746844,69.9912829 715.107844,69.9672829 715.417844,70.1082829 L724.415844,74.2452829 C724.917844,74.4762829 725.137844,75.0702829 724.906844,75.5712829 C724.675844,76.0732829 724.081844,76.2922829 723.579844,76.0622829 L715.999844,72.5772829 L715.999844,85.8822829 L736.763844,75.5002829 L714.552844,64.3952829 C714.058844,64.1482829 713.858844,63.5472829 714.105844,63.0532829 C714.352844,62.5592829 714.953844,62.3582829 715.446844,62.6062829 L739.446844,74.6052829 C739.785844,74.7752829 739.999844,75.1212829 739.999844,75.5002829 C739.999844,75.8792829 739.785844,76.2252829 739.447844,76.3942829 L715.447844,88.3942829 C715.305844,88.4652829 715.152844,88.5002829 714.999844,88.5002829" id="icon-video-green" sketch:type="MSShapeGroup"></path>
        </g>
    </g>
</svg>