<?xml version="1.0" encoding="UTF-8" standalone="no"?>
<svg width="26px" height="26px" viewBox="0 0 26 26" version="1.1" xmlns="http://www.w3.org/2000/svg" xmlns:xlink="http://www.w3.org/1999/xlink" xmlns:sketch="http://www.bohemiancoding.com/sketch/ns">
    <!-- Generator: Sketch 3.2.1 (9971) - http://www.bohemiancoding.com/sketch -->
    <title>icon-video-white</title>
    <desc>Created with Sketch.</desc>
    <defs></defs>
    <g id="Page-1" stroke="none" stroke-width="1" fill="none" fill-rule="evenodd" sketch:type="MSPage">
        <g id="icons" sketch:type="MSArtboardGroup" transform="translate(-714.000000, -178.000000)" fill="#FFFFFF">
            <path d="M714.999844,204.000283 C714.816844,204.000283 714.634844,203.950283 714.473844,203.850283 C714.179844,203.668283 714.000844,203.346283 714.000844,203.000283 L714.000844,186.517283 C714.000844,186.176283 714.173844,185.859283 714.460844,185.675283 C714.746844,185.491283 715.107844,185.467283 715.417844,185.608283 L724.415844,189.745283 C724.917844,189.976283 725.137844,190.570283 724.906844,191.071283 C724.675844,191.573283 724.081844,191.792283 723.579844,191.562283 L715.999844,188.077283 L715.999844,201.382283 L736.763844,191.000283 L714.552844,179.895283 C714.058844,179.648283 713.858844,179.047283 714.105844,178.553283 C714.352844,178.059283 714.953844,177.858283 715.446844,178.106283 L739.446844,190.105283 C739.785844,190.275283 739.999844,190.621283 739.999844,191.000283 C739.999844,191.379283 739.785844,191.725283 739.447844,191.894283 L715.447844,203.894283 C715.305844,203.965283 715.152844,204.000283 714.999844,204.000283" id="icon-video-white" sketch:type="MSShapeGroup"></path>
        </g>
    </g>
</svg>