<?xml version="1.0" encoding="UTF-8" standalone="no"?>
<svg width="27px" height="27px" viewBox="0 0 27 27" version="1.1" xmlns="http://www.w3.org/2000/svg" xmlns:xlink="http://www.w3.org/1999/xlink" xmlns:sketch="http://www.bohemiancoding.com/sketch/ns">
    <!-- Generator: Sketch 3.2.1 (9971) - http://www.bohemiancoding.com/sketch -->
    <title>icon-plus-white</title>
    <desc>Created with Sketch.</desc>
    <defs></defs>
    <g id="Page-1" stroke="none" stroke-width="1" fill="none" fill-rule="evenodd" sketch:type="MSPage">
        <g id="icons" sketch:type="MSArtboardGroup" transform="translate(-196.000000, -179.000000)" fill="#FFFFFF">
            <g id="icon-plus-white" sketch:type="MSLayerGroup" transform="translate(196.000000, 179.500000)">
                <path d="M13.178,14.333 L1.178,14.333 C0.625,14.333 0.177,13.886 0.177,13.333 C0.177,12.781 0.625,12.334 1.178,12.334 L12.177,12.334 L12.177,1.333 C12.177,0.781 12.625,0.334 13.178,0.334 C13.73,0.334 14.177,0.781 14.177,1.333 L14.177,13.333 C14.177,13.886 13.73,14.333 13.178,14.333" id="Fill-1" sketch:type="MSShapeGroup"></path>
                <path d="M13.178,26.333 C12.625,26.333 12.177,25.886 12.177,25.333 L12.177,19.333 C12.177,18.781 12.625,18.334 13.178,18.334 C13.73,18.334 14.177,18.781 14.177,19.333 L14.177,25.333 C14.177,25.886 13.73,26.333 13.178,26.333" id="Fill-2" sketch:type="MSShapeGroup"></path>
                <path d="M25.178,14.333 L19.178,14.333 C18.625,14.333 18.177,13.886 18.177,13.333 C18.177,12.781 18.625,12.334 19.178,12.334 L25.178,12.334 C25.73,12.334 26.177,12.781 26.177,13.333 C26.177,13.886 25.73,14.333 25.178,14.333" id="Fill-3" sketch:type="MSShapeGroup"></path>
            </g>
        </g>
    </g>
</svg>