<?xml version="1.0" encoding="UTF-8" standalone="no"?>
<svg width="26px" height="27px" viewBox="0 0 26 27" version="1.1" xmlns="http://www.w3.org/2000/svg" xmlns:xlink="http://www.w3.org/1999/xlink" xmlns:sketch="http://www.bohemiancoding.com/sketch/ns">
    <!-- Generator: Sketch 3.2.1 (9971) - http://www.bohemiancoding.com/sketch -->
    <title>icon-video-grey</title>
    <desc>Created with Sketch.</desc>
    <defs></defs>
    <g id="Page-1" stroke="none" stroke-width="1" fill="none" fill-rule="evenodd" sketch:type="MSPage">
        <g id="icons" sketch:type="MSArtboardGroup" transform="translate(-714.000000, -122.000000)" fill="#A2A4A0">
            <path d="M714.999844,148.500283 C714.816844,148.500283 714.634844,148.450283 714.473844,148.350283 C714.179844,148.168283 714.000844,147.846283 714.000844,147.500283 L714.000844,131.017283 C714.000844,130.676283 714.173844,130.359283 714.460844,130.175283 C714.746844,129.991283 715.107844,129.967283 715.417844,130.108283 L724.415844,134.245283 C724.917844,134.476283 725.137844,135.070283 724.906844,135.571283 C724.675844,136.073283 724.081844,136.292283 723.579844,136.062283 L715.999844,132.577283 L715.999844,145.882283 L736.763844,135.500283 L714.552844,124.395283 C714.058844,124.148283 713.858844,123.547283 714.105844,123.053283 C714.352844,122.559283 714.953844,122.358283 715.446844,122.606283 L739.446844,134.605283 C739.785844,134.775283 739.999844,135.121283 739.999844,135.500283 C739.999844,135.879283 739.785844,136.225283 739.447844,136.394283 L715.447844,148.394283 C715.305844,148.465283 715.152844,148.500283 714.999844,148.500283" id="icon-video-grey" sketch:type="MSShapeGroup"></path>
        </g>
    </g>
</svg>