<?xml version="1.0" encoding="UTF-8" standalone="no"?>
<svg width="26px" height="27px" viewBox="0 0 26 27" version="1.1" xmlns="http://www.w3.org/2000/svg" xmlns:xlink="http://www.w3.org/1999/xlink" xmlns:sketch="http://www.bohemiancoding.com/sketch/ns">
    <!-- Generator: Sketch 3.2.1 (9971) - http://www.bohemiancoding.com/sketch -->
    <title>icon-doc-green</title>
    <desc>Created with Sketch.</desc>
    <defs></defs>
    <g id="Page-1" stroke="none" stroke-width="1" fill="none" fill-rule="evenodd" sketch:type="MSPage">
        <g id="icons" sketch:type="MSArtboardGroup" transform="translate(-801.000000, -61.000000)" fill="#00A683">
            <path d="M820,67.5 L802,67.5 C801.448,67.5 801,67.948 801,68.5 L801,86.5 C801,87.052 801.448,87.5 802,87.5 C802.552,87.5 803,87.052 803,86.5 L803,69.5 L819,69.5 L819,86.5 C819,87.052 819.448,87.5 820,87.5 C820.552,87.5 821,87.052 821,86.5 L821,68.5 C821,67.948 820.552,67.5 820,67.5 L820,67.5 Z M815.122,73.5 L806.122,73.5 C805.569,73.5 805.121,73.948 805.121,74.5 C805.121,75.052 805.569,75.5 806.122,75.5 L815.122,75.5 C815.674,75.5 816.121,75.052 816.121,74.5 C816.121,73.948 815.674,73.5 815.122,73.5 L815.122,73.5 Z M813.121,83.5 L806.122,83.5 C805.569,83.5 805.121,83.948 805.121,84.5 C805.121,85.052 805.569,85.5 806.122,85.5 L813.121,85.5 C813.674,85.5 814.121,85.052 814.121,84.5 C814.121,83.948 813.674,83.5 813.121,83.5 L813.121,83.5 Z M806.122,80.5 L811.121,80.5 C811.674,80.5 812.122,80.052 812.122,79.5 C812.122,78.948 811.674,78.5 811.121,78.5 L806.122,78.5 C805.569,78.5 805.121,78.948 805.121,79.5 C805.121,80.052 805.569,80.5 806.122,80.5 L806.122,80.5 Z M826,61.5 L806,61.5 C805.448,61.5 805,61.948 805,62.5 C805,63.053 805.448,63.5 806,63.5 L825,63.5 L825,82.5 C825,83.052 825.448,83.5 826,83.5 C826.552,83.5 827,83.052 827,82.5 L827,62.5 C827,61.948 826.552,61.5 826,61.5 L826,61.5 Z" id="icon-doc-green" sketch:type="MSShapeGroup"></path>
        </g>
    </g>
</svg>