<?xml version="1.0" encoding="UTF-8" standalone="no"?>
<svg width="26px" height="27px" viewBox="0 0 26 27" version="1.1" xmlns="http://www.w3.org/2000/svg" xmlns:xlink="http://www.w3.org/1999/xlink" xmlns:sketch="http://www.bohemiancoding.com/sketch/ns">
    <!-- Generator: Sketch 3.2.1 (9971) - http://www.bohemiancoding.com/sketch -->
    <title>icon-audio-grey</title>
    <desc>Created with Sketch.</desc>
    <defs></defs>
    <g id="Page-1" stroke="none" stroke-width="1" fill="none" fill-rule="evenodd" sketch:type="MSPage">
        <g id="icons" sketch:type="MSArtboardGroup" transform="translate(-670.000000, -123.000000)" fill="#A2A4A0">
            <path d="M692.457,126.703458 C692.102,126.280458 691.471,126.224458 691.048,126.580458 C690.626,126.935458 690.57,127.566458 690.926,127.989458 C692.908,130.350458 694,133.373458 694,136.500458 C694,139.667458 692.884,142.719458 690.857,145.093458 C690.498,145.512458 690.547,146.144458 690.967,146.503458 C691.156,146.663458 691.387,146.742458 691.617,146.742458 C691.899,146.742458 692.18,146.623458 692.377,146.391458 C694.714,143.655458 696,140.142458 696,136.500458 C696,132.903458 694.742,129.424458 692.457,126.703458 L692.457,126.703458 Z M688.249,123.595458 C687.899,123.430458 687.486,123.482458 687.187,123.727458 L679.197,130.300458 L671,130.300458 C670.448,130.300458 670,130.748458 670,131.300458 L670,141.700458 C670,142.252458 670.448,142.700458 671,142.700458 C671.552,142.700458 672,142.252458 672,141.700458 L672,132.300458 L679.555,132.300458 C679.787,132.300458 680.012,132.220458 680.191,132.073458 L686.823,126.617458 L686.823,146.383458 L680.191,140.928458 C680.012,140.781458 679.787,140.700458 679.555,140.700458 L676.444,140.700458 C675.892,140.700458 675.445,141.148458 675.445,141.700458 C675.445,142.252458 675.892,142.700458 676.444,142.700458 L679.197,142.700458 L687.187,149.272458 C687.369,149.422458 687.595,149.500458 687.822,149.500458 C687.967,149.500458 688.114,149.469458 688.249,149.404458 C688.599,149.239458 688.822,148.887458 688.822,148.500458 L688.822,124.500458 C688.822,124.113458 688.599,123.761458 688.249,123.595458 L688.249,123.595458 Z" id="icon-audio-grey" sketch:type="MSShapeGroup"></path>
        </g>
    </g>
</svg>