<?xml version="1.0" encoding="UTF-8" standalone="no"?>
<svg width="26px" height="26px" viewBox="0 0 26 26" version="1.1" xmlns="http://www.w3.org/2000/svg" xmlns:xlink="http://www.w3.org/1999/xlink" xmlns:sketch="http://www.bohemiancoding.com/sketch/ns">
    <!-- Generator: Sketch 3.2.1 (9971) - http://www.bohemiancoding.com/sketch -->
    <title>icon-doc-white</title>
    <desc>Created with Sketch.</desc>
    <defs></defs>
    <g id="Page-1" stroke="none" stroke-width="1" fill="none" fill-rule="evenodd" sketch:type="MSPage">
        <g id="icons" sketch:type="MSArtboardGroup" transform="translate(-801.000000, -177.000000)" fill="#FFFFFF">
            <path d="M820,183 L802,183 C801.448,183 801,183.448 801,184 L801,202 C801,202.552 801.448,203 802,203 C802.552,203 803,202.552 803,202 L803,185 L819,185 L819,202 C819,202.552 819.448,203 820,203 C820.552,203 821,202.552 821,202 L821,184 C821,183.448 820.552,183 820,183 L820,183 Z M815.122,189 L806.122,189 C805.569,189 805.121,189.448 805.121,190 C805.121,190.552 805.569,191 806.122,191 L815.122,191 C815.674,191 816.121,190.552 816.121,190 C816.121,189.448 815.674,189 815.122,189 L815.122,189 Z M813.121,199 L806.122,199 C805.569,199 805.121,199.448 805.121,200 C805.121,200.552 805.569,201 806.122,201 L813.121,201 C813.674,201 814.121,200.552 814.121,200 C814.121,199.448 813.674,199 813.121,199 L813.121,199 Z M806.122,196 L811.121,196 C811.674,196 812.122,195.552 812.122,195 C812.122,194.448 811.674,194 811.121,194 L806.122,194 C805.569,194 805.121,194.448 805.121,195 C805.121,195.552 805.569,196 806.122,196 L806.122,196 Z M826,177 L806,177 C805.448,177 805,177.448 805,178 C805,178.553 805.448,179 806,179 L825,179 L825,198 C825,198.552 825.448,199 826,199 C826.552,199 827,198.552 827,198 L827,178 C827,177.448 826.552,177 826,177 L826,177 Z" id="icon-doc-white" sketch:type="MSShapeGroup"></path>
        </g>
    </g>
</svg>