<?xml version="1.0" encoding="UTF-8" standalone="no"?>
<svg width="24px" height="15px" viewBox="0 0 24 15" version="1.1" xmlns="http://www.w3.org/2000/svg" xmlns:xlink="http://www.w3.org/1999/xlink" xmlns:sketch="http://www.bohemiancoding.com/sketch/ns">
    <!-- Generator: Sketch 3.2.1 (9971) - http://www.bohemiancoding.com/sketch -->
    <title>icon-menu-green</title>
    <desc>Created with Sketch.</desc>
    <defs></defs>
    <g id="Page-1" stroke="none" stroke-width="1" fill="none" fill-rule="evenodd" sketch:type="MSPage">
        <g id="icons" sketch:type="MSArtboardGroup" transform="translate(-100.000000, -69.000000)" fill="#00735D">
            <g id="icon-menu-green" sketch:type="MSLayerGroup" transform="translate(100.000000, 69.000000)">
                <path d="M22.222,2.161 L1.222,2.161 C0.669,2.161 0.222,1.713 0.222,1.161 C0.222,0.608 0.669,0.161 1.222,0.161 L22.222,0.161 C22.775,0.161 23.222,0.608 23.222,1.161 C23.222,1.713 22.775,2.161 22.222,2.161" id="Fill-1" sketch:type="MSShapeGroup"></path>
                <path d="M22.222,8.161 L1.222,8.161 C0.669,8.161 0.222,7.713 0.222,7.161 C0.222,6.608 0.669,6.161 1.222,6.161 L22.222,6.161 C22.775,6.161 23.222,6.608 23.222,7.161 C23.222,7.713 22.775,8.161 22.222,8.161" id="Fill-2" sketch:type="MSShapeGroup"></path>
                <path d="M22.222,14.161 L1.222,14.161 C0.669,14.161 0.222,13.713 0.222,13.161 C0.222,12.608 0.669,12.161 1.222,12.161 L22.222,12.161 C22.775,12.161 23.222,12.608 23.222,13.161 C23.222,13.713 22.775,14.161 22.222,14.161" id="Fill-3" sketch:type="MSShapeGroup"></path>
            </g>
        </g>
    </g>
</svg>