<?xml version="1.0" encoding="UTF-8" standalone="no"?>
<svg width="23px" height="22px" viewBox="0 0 23 22" version="1.1" xmlns="http://www.w3.org/2000/svg" xmlns:xlink="http://www.w3.org/1999/xlink" xmlns:sketch="http://www.bohemiancoding.com/sketch/ns">
    <!-- Generator: Sketch 3.2.1 (9971) - http://www.bohemiancoding.com/sketch -->
    <title>icon-search-white</title>
    <desc>Created with Sketch.</desc>
    <defs></defs>
    <g id="Page-1" stroke="none" stroke-width="1" fill="none" fill-rule="evenodd" sketch:type="MSPage">
        <g id="icons" sketch:type="MSArtboardGroup" transform="translate(-56.000000, -184.000000)" fill="#FFFFFF">
            <g id="icon-search-white" sketch:type="MSLayerGroup" transform="translate(56.000000, 184.000000)">
                <path d="M10.913,16.303 C7.526,16.303 4.77,13.547 4.77,10.161 C4.77,6.774 7.526,4.019 10.913,4.019 C14.299,4.019 17.055,6.774 17.055,10.161 C17.055,11.801 16.416,13.344 15.256,14.504 C14.865,14.895 14.232,14.895 13.842,14.504 C13.451,14.114 13.451,13.481 13.842,13.09 C14.624,12.307 15.055,11.267 15.055,10.161 C15.055,7.877 13.197,6.019 10.913,6.019 C8.628,6.019 6.771,7.877 6.771,10.161 C6.771,12.445 8.628,14.303 10.913,14.303 C11.465,14.303 11.912,14.75 11.912,15.303 C11.912,15.855 11.465,16.303 10.913,16.303" id="Fill-1" sketch:type="MSShapeGroup"></path>
                <path d="M21.768,22.017 C21.513,22.017 21.257,21.919 21.061,21.724 L13.84,14.502 C13.449,14.111 13.45,13.479 13.84,13.088 C14.23,12.697 14.864,12.697 15.255,13.088 L22.476,20.31 C22.866,20.7 22.866,21.333 22.476,21.724 C22.28,21.919 22.024,22.017 21.768,22.017" id="Fill-2" sketch:type="MSShapeGroup"></path>
                <path d="M10.913,20.306 C9.977,20.306 9.045,20.174 8.129,19.913 C2.752,18.378 -0.375,12.754 1.16,7.377 C2.695,2 8.319,-1.127 13.696,0.409 C19.073,1.943 22.2,7.567 20.665,12.944 C20.513,13.476 19.96,13.784 19.429,13.631 C18.898,13.48 18.59,12.927 18.742,12.396 C19.974,8.079 17.464,3.564 13.148,2.331 C8.83,1.102 4.316,3.609 3.083,7.926 C1.852,12.243 4.361,16.757 8.678,17.99 C9.771,18.301 10.89,18.382 12.004,18.231 C12.552,18.156 13.056,18.541 13.13,19.087 C13.205,19.635 12.821,20.139 12.274,20.213 C11.82,20.275 11.366,20.306 10.913,20.306" id="Fill-3" sketch:type="MSShapeGroup"></path>
            </g>
        </g>
    </g>
</svg>