<?xml version="1.0" encoding="UTF-8" standalone="no"?>
<svg width="28px" height="23px" viewBox="0 0 28 23" version="1.1" xmlns="http://www.w3.org/2000/svg" xmlns:xlink="http://www.w3.org/1999/xlink" xmlns:sketch="http://www.bohemiancoding.com/sketch/ns">
    <!-- Generator: Sketch 3.2.1 (9971) - http://www.bohemiancoding.com/sketch -->
    <title>icon-image-green</title>
    <desc>Created with Sketch.</desc>
    <defs></defs>
    <g id="Page-1" stroke="none" stroke-width="1" fill="none" fill-rule="evenodd" sketch:type="MSPage">
        <g id="icons" sketch:type="MSArtboardGroup" transform="translate(-755.000000, -63.000000)" fill="#00A683">
            <path d="M781.949,85.5 L768.949,85.5 C765.589,85.5 762.749,82.633 762.749,79.239 C762.749,75.854 765.531,73.1 768.949,73.1 C772.368,73.1 775.15,75.773 775.15,79.057 C775.15,79.609 774.701,80.057 774.149,80.057 C773.597,80.057 773.149,79.609 773.149,79.057 C773.149,76.838 771.305,75.1 768.949,75.1 C766.673,75.1 764.749,76.996 764.749,79.239 C764.749,81.509 766.712,83.5 768.949,83.5 L780.949,83.5 L780.949,72.5 L777.949,72.5 C777.59,72.5 777.259,72.308 777.081,71.997 L773.369,65.5 L764.581,65.5 L760.869,71.997 C760.69,72.308 760.36,72.5 760,72.5 L757,72.5 L757,83.5 L759.363,83.5 C759.916,83.5 760.363,83.948 760.363,84.5 C760.363,85.053 759.916,85.5 759.363,85.5 L756.001,85.5 C755.448,85.5 755,85.053 755,84.5 L755,71.5 C755,70.948 755.448,70.5 756.001,70.5 L759.42,70.5 L763.132,64.004 C763.31,63.693 763.642,63.5 764,63.5 L773.949,63.5 C774.308,63.5 774.64,63.693 774.818,64.004 L778.53,70.5 L781.949,70.5 C782.501,70.5 782.949,70.948 782.949,71.5 L782.949,84.5 C782.949,85.053 782.501,85.5 781.949,85.5" id="icon-image-green" sketch:type="MSShapeGroup"></path>
        </g>
    </g>
</svg>