<?xml version="1.0" encoding="UTF-8" standalone="no"?>
<svg width="27px" height="26px" viewBox="0 0 27 26" version="1.1" xmlns="http://www.w3.org/2000/svg" xmlns:xlink="http://www.w3.org/1999/xlink" xmlns:sketch="http://www.bohemiancoding.com/sketch/ns">
    <!-- Generator: Sketch 3.2.1 (9971) - http://www.bohemiancoding.com/sketch -->
    <title>icon-plus-green</title>
    <desc>Created with Sketch.</desc>
    <defs></defs>
    <g id="Page-1" stroke="none" stroke-width="1" fill="none" fill-rule="evenodd" sketch:type="MSPage">
        <g id="icons" sketch:type="MSArtboardGroup" transform="translate(-196.000000, -64.000000)" fill="#00A683">
            <g id="icon-plus-green" sketch:type="MSLayerGroup" transform="translate(196.000000, 64.000000)">
                <path d="M13.178,14 L1.178,14 C0.625,14 0.177,13.552 0.177,13 C0.177,12.448 0.625,12 1.178,12 L12.177,12 L12.177,1 C12.177,0.448 12.625,0 13.178,0 C13.73,0 14.177,0.448 14.177,1 L14.177,13 C14.177,13.552 13.73,14 13.178,14" id="Fill-1" sketch:type="MSShapeGroup"></path>
                <path d="M13.178,26 C12.625,26 12.177,25.552 12.177,25 L12.177,19 C12.177,18.448 12.625,18 13.178,18 C13.73,18 14.177,18.448 14.177,19 L14.177,25 C14.177,25.552 13.73,26 13.178,26" id="Fill-2" sketch:type="MSShapeGroup"></path>
                <path d="M25.178,14 L19.178,14 C18.625,14 18.177,13.552 18.177,13 C18.177,12.448 18.625,12 19.178,12 L25.178,12 C25.73,12 26.177,12.448 26.177,13 C26.177,13.552 25.73,14 25.178,14" id="Fill-3" sketch:type="MSShapeGroup"></path>
            </g>
        </g>
    </g>
</svg>