<?xml version="1.0" encoding="UTF-8" standalone="no"?>
<svg width="19px" height="20px" viewBox="0 0 19 20" version="1.1" xmlns="http://www.w3.org/2000/svg" xmlns:xlink="http://www.w3.org/1999/xlink" xmlns:sketch="http://www.bohemiancoding.com/sketch/ns">
    <!-- Generator: Sketch 3.2.1 (9971) - http://www.bohemiancoding.com/sketch -->
    <title>icon-arrow-r-green</title>
    <desc>Created with Sketch.</desc>
    <defs></defs>
    <g id="Page-1" stroke="none" stroke-width="1" fill="none" fill-rule="evenodd" sketch:type="MSPage">
        <g id="icons" sketch:type="MSArtboardGroup" transform="translate(-428.000000, -63.000000)" fill="#00A683">
            <path d="M446.691,72.293 L438.206,63.808 C437.815,63.418 437.182,63.417 436.792,63.808 C436.401,64.198 436.401,64.831 436.792,65.222 L444.57,73 L436.792,80.778 C436.401,81.169 436.401,81.802 436.792,82.192 C436.987,82.388 437.243,82.485 437.499,82.485 C437.755,82.485 438.011,82.388 438.206,82.192 L446.691,73.707 C447.082,73.316 447.082,72.684 446.691,72.293 L446.691,72.293 Z M435,72 L429,72 C428.448,72 428,72.448 428,73 C428,73.552 428.448,74 429,74 L435,74 C435.552,74 435.999,73.552 435.999,73 C435.999,72.448 435.552,72 435,72 L435,72 Z" id="icon-arrow-r-green" sketch:type="MSShapeGroup"></path>
        </g>
    </g>
</svg>