<?xml version="1.0" encoding="UTF-8" standalone="no"?>
<svg width="20px" height="19px" viewBox="0 0 20 19" version="1.1" xmlns="http://www.w3.org/2000/svg" xmlns:xlink="http://www.w3.org/1999/xlink" xmlns:sketch="http://www.bohemiancoding.com/sketch/ns">
    <!-- Generator: Sketch 3.2.1 (9971) - http://www.bohemiancoding.com/sketch -->
    <title>icon-arrow-l-white</title>
    <desc>Created with Sketch.</desc>
    <defs></defs>
    <g id="Page-1" stroke="none" stroke-width="1" fill="none" fill-rule="evenodd" sketch:type="MSPage">
        <g id="icons" sketch:type="MSArtboardGroup" transform="translate(-469.000000, -184.000000)" fill="#FFFFFF">
            <path d="M479.277,184.3 C478.887,183.909 478.254,183.909 477.864,184.3 L469.378,192.785 C468.987,193.176 468.987,193.808 469.378,194.199 L477.864,202.684 C478.059,202.88 478.314,202.977 478.57,202.977 C478.826,202.977 479.082,202.88 479.277,202.684 C479.668,202.294 479.668,201.661 479.277,201.27 L471.499,193.492 L479.277,185.714 C479.668,185.323 479.668,184.69 479.277,184.3 L479.277,184.3 Z M487.069,192.492 L481.069,192.492 C480.517,192.492 480.069,192.94 480.069,193.492 C480.069,194.044 480.517,194.492 481.069,194.492 L487.069,194.492 C487.622,194.492 488.07,194.044 488.07,193.492 C488.07,192.94 487.622,192.492 487.069,192.492 L487.069,192.492 Z" id="icon-arrow-l-white" sketch:type="MSShapeGroup"></path>
        </g>
    </g>
</svg>