<?xml version="1.0" encoding="UTF-8" standalone="no"?>
<svg width="19px" height="19px" viewBox="0 0 19 19" version="1.1" xmlns="http://www.w3.org/2000/svg" xmlns:xlink="http://www.w3.org/1999/xlink" xmlns:sketch="http://www.bohemiancoding.com/sketch/ns">
    <!-- Generator: Sketch 3.2.1 (9971) - http://www.bohemiancoding.com/sketch -->
    <title>icon-arrow-r-white</title>
    <desc>Created with Sketch.</desc>
    <defs></defs>
    <g id="Page-1" stroke="none" stroke-width="1" fill="none" fill-rule="evenodd" sketch:type="MSPage">
        <g id="icons" sketch:type="MSArtboardGroup" transform="translate(-428.000000, -184.000000)" fill="#FFFFFF">
            <path d="M446.691,192.785 L438.206,184.3 C437.815,183.91 437.182,183.909 436.792,184.3 C436.401,184.69 436.401,185.323 436.792,185.714 L444.57,193.492 L436.792,201.27 C436.401,201.661 436.401,202.294 436.792,202.684 C436.987,202.88 437.243,202.977 437.499,202.977 C437.755,202.977 438.011,202.88 438.206,202.684 L446.691,194.199 C447.082,193.808 447.082,193.176 446.691,192.785 L446.691,192.785 Z M435,192.492 L429,192.492 C428.448,192.492 428,192.94 428,193.492 C428,194.044 428.448,194.492 429,194.492 L435,194.492 C435.552,194.492 435.999,194.044 435.999,193.492 C435.999,192.94 435.552,192.492 435,192.492 L435,192.492 Z" id="icon-arrow-r-white" sketch:type="MSShapeGroup"></path>
        </g>
    </g>
</svg>