<?xml version="1.0" encoding="UTF-8" standalone="no"?>
<svg width="28px" height="22px" viewBox="0 0 28 22" version="1.1" xmlns="http://www.w3.org/2000/svg" xmlns:xlink="http://www.w3.org/1999/xlink" xmlns:sketch="http://www.bohemiancoding.com/sketch/ns">
    <!-- Generator: Sketch 3.2.1 (9971) - http://www.bohemiancoding.com/sketch -->
    <title>icon-image-white</title>
    <desc>Created with Sketch.</desc>
    <defs></defs>
    <g id="Page-1" stroke="none" stroke-width="1" fill="none" fill-rule="evenodd" sketch:type="MSPage">
        <g id="icons" sketch:type="MSArtboardGroup" transform="translate(-755.000000, -179.000000)" fill="#FFFFFF">
            <path d="M781.949,201 L768.949,201 C765.589,201 762.749,198.133 762.749,194.739 C762.749,191.354 765.531,188.6 768.949,188.6 C772.368,188.6 775.15,191.273 775.15,194.557 C775.15,195.109 774.701,195.557 774.149,195.557 C773.597,195.557 773.149,195.109 773.149,194.557 C773.149,192.338 771.305,190.6 768.949,190.6 C766.673,190.6 764.749,192.496 764.749,194.739 C764.749,197.009 766.712,199 768.949,199 L780.949,199 L780.949,188 L777.949,188 C777.59,188 777.259,187.808 777.081,187.497 L773.369,181 L764.581,181 L760.869,187.497 C760.69,187.808 760.36,188 760,188 L757,188 L757,199 L759.363,199 C759.916,199 760.363,199.448 760.363,200 C760.363,200.553 759.916,201 759.363,201 L756.001,201 C755.448,201 755,200.553 755,200 L755,187 C755,186.448 755.448,186 756.001,186 L759.42,186 L763.132,179.504 C763.31,179.193 763.642,179 764,179 L773.949,179 C774.308,179 774.64,179.193 774.818,179.504 L778.53,186 L781.949,186 C782.501,186 782.949,186.448 782.949,187 L782.949,200 C782.949,200.553 782.501,201 781.949,201" id="icon-image-white" sketch:type="MSShapeGroup"></path>
        </g>
    </g>
</svg>