<?xml version="1.0" encoding="UTF-8" standalone="no"?>
<svg width="26px" height="26px" viewBox="0 0 26 26" version="1.1" xmlns="http://www.w3.org/2000/svg" xmlns:xlink="http://www.w3.org/1999/xlink" xmlns:sketch="http://www.bohemiancoding.com/sketch/ns">
    <!-- Generator: Sketch 3.2.1 (9971) - http://www.bohemiancoding.com/sketch -->
    <title>icon-audio-green</title>
    <desc>Created with Sketch.</desc>
    <defs></defs>
    <g id="Page-1" stroke="none" stroke-width="1" fill="none" fill-rule="evenodd" sketch:type="MSPage">
        <g id="icons" sketch:type="MSArtboardGroup" transform="translate(-670.000000, -64.000000)" fill="#00A683">
            <path d="M692.457,67.2034579 C692.102,66.7804579 691.471,66.7244579 691.048,67.0804579 C690.626,67.4354579 690.57,68.0664579 690.926,68.4894579 C692.908,70.8504579 694,73.8734579 694,77.0004579 C694,80.1674579 692.884,83.2194579 690.857,85.5934579 C690.498,86.0124579 690.547,86.6444579 690.967,87.0034579 C691.156,87.1634579 691.387,87.2424579 691.617,87.2424579 C691.899,87.2424579 692.18,87.1234579 692.377,86.8914579 C694.714,84.1554579 696,80.6424579 696,77.0004579 C696,73.4034579 694.742,69.9244579 692.457,67.2034579 L692.457,67.2034579 Z M688.249,64.0954579 C687.899,63.9304579 687.486,63.9824579 687.187,64.2274579 L679.197,70.8004579 L671,70.8004579 C670.448,70.8004579 670,71.2484579 670,71.8004579 L670,82.2004579 C670,82.7524579 670.448,83.2004579 671,83.2004579 C671.552,83.2004579 672,82.7524579 672,82.2004579 L672,72.8004579 L679.555,72.8004579 C679.787,72.8004579 680.012,72.7204579 680.191,72.5734579 L686.823,67.1174579 L686.823,86.8834579 L680.191,81.4284579 C680.012,81.2814579 679.787,81.2004579 679.555,81.2004579 L676.444,81.2004579 C675.892,81.2004579 675.445,81.6484579 675.445,82.2004579 C675.445,82.7524579 675.892,83.2004579 676.444,83.2004579 L679.197,83.2004579 L687.187,89.7724579 C687.369,89.9224579 687.595,90.0004579 687.822,90.0004579 C687.967,90.0004579 688.114,89.9694579 688.249,89.9044579 C688.599,89.7394579 688.822,89.3874579 688.822,89.0004579 L688.822,65.0004579 C688.822,64.6134579 688.599,64.2614579 688.249,64.0954579 L688.249,64.0954579 Z" id="icon-audio-green" sketch:type="MSShapeGroup"></path>
        </g>
    </g>
</svg>