<?xml version="1.0" encoding="UTF-8" standalone="no"?>
<svg width="22px" height="22px" viewBox="0 0 22 22" version="1.1" xmlns="http://www.w3.org/2000/svg" xmlns:xlink="http://www.w3.org/1999/xlink" xmlns:sketch="http://www.bohemiancoding.com/sketch/ns">
    <!-- Generator: Sketch 3.2.1 (9971) - http://www.bohemiancoding.com/sketch -->
    <title>icon-search-green</title>
    <desc>Created with Sketch.</desc>
    <defs></defs>
    <g id="Page-1" stroke="none" stroke-width="1" fill="none" fill-rule="evenodd" sketch:type="MSPage">
        <g id="icons" sketch:type="MSArtboardGroup" transform="translate(-56.000000, -65.000000)" fill="#00735D">
            <g id="icon-search-green" sketch:type="MSLayerGroup" transform="translate(56.000000, 65.000000)">
                <path d="M10.177,16.303 C6.79,16.303 4.035,13.547 4.035,10.161 C4.035,6.774 6.79,4.019 10.177,4.019 C13.564,4.019 16.32,6.774 16.32,10.161 C16.32,11.801 15.681,13.344 14.521,14.504 C14.13,14.894 13.497,14.894 13.106,14.504 C12.716,14.113 12.716,13.481 13.106,13.09 C13.889,12.307 14.32,11.267 14.32,10.161 C14.32,7.877 12.461,6.019 10.177,6.019 C7.893,6.019 6.035,7.877 6.035,10.161 C6.035,12.445 7.893,14.303 10.177,14.303 C10.729,14.303 11.177,14.75 11.177,15.303 C11.177,15.855 10.729,16.303 10.177,16.303" id="Fill-1" sketch:type="MSShapeGroup"></path>
                <path d="M21.033,22.017 C20.777,22.017 20.521,21.919 20.326,21.724 L13.104,14.502 C12.714,14.111 12.714,13.479 13.104,13.088 C13.496,12.698 14.129,12.698 14.519,13.088 L21.74,20.31 C22.131,20.7 22.131,21.333 21.74,21.724 C21.545,21.919 21.289,22.017 21.033,22.017" id="Fill-2" sketch:type="MSShapeGroup"></path>
                <path d="M10.178,20.306 C9.242,20.306 8.31,20.174 7.394,19.913 C2.017,18.378 -1.11,12.754 0.425,7.377 C1.96,2 7.583,-1.127 12.961,0.409 C18.338,1.943 21.465,7.567 19.93,12.944 C19.778,13.476 19.224,13.784 18.694,13.631 C18.163,13.48 17.855,12.927 18.006,12.396 C19.239,8.079 16.729,3.564 12.412,2.331 C8.095,1.102 3.58,3.609 2.348,7.926 C1.116,12.243 3.626,16.757 7.943,17.99 C9.035,18.301 10.155,18.382 11.27,18.231 C11.816,18.156 12.321,18.541 12.395,19.087 C12.469,19.635 12.086,20.139 11.539,20.213 C11.085,20.275 10.631,20.306 10.178,20.306" id="Fill-3" sketch:type="MSShapeGroup"></path>
            </g>
        </g>
    </g>
</svg>