<?xml version="1.0" encoding="UTF-8" standalone="no"?>
<svg width="40px" height="30px" viewBox="0 0 40 30" version="1.1" xmlns="http://www.w3.org/2000/svg" xmlns:xlink="http://www.w3.org/1999/xlink" xmlns:sketch="http://www.bohemiancoding.com/sketch/ns">
    <!-- Generator: Sketch 3.2.1 (9971) - http://www.bohemiancoding.com/sketch -->
    <title>icon-quote-white</title>
    <desc>Created with Sketch.</desc>
    <defs></defs>
    <g id="Page-1" stroke="none" stroke-width="1" fill="none" fill-rule="evenodd" sketch:type="MSPage">
        <g id="icons" sketch:type="MSArtboardGroup" transform="translate(-258.000000, -177.000000)" fill="#FFFFFF">
            <g id="icon-quote-white" sketch:type="MSLayerGroup" transform="translate(258.000000, 177.000000)">
                <path d="M9.951,29.5 C4.605,29.5 0.871,25.423 0.871,19.585 C0.871,15.144 2.183,12.761 5.403,7.995 L10.953,0.266 L17.718,3.145 L16.935,4.985 L11.643,2.734 L7.044,9.138 C3.764,13.993 2.871,15.846 2.871,19.585 C2.871,24.319 5.716,27.5 9.951,27.5 C14.092,27.5 17.096,24.63 17.096,20.676 C17.096,17.054 14.767,14.621 11.299,14.621 L10.721,14.621 L10.721,12.621 L11.299,12.621 C15.817,12.621 19.096,16.009 19.096,20.676 C19.096,25.789 15.25,29.5 9.951,29.5" id="Fill-1" sketch:type="MSShapeGroup"></path>
                <path d="M30.607,29.5 C25.26,29.5 21.526,25.423 21.526,19.585 C21.526,15.144 22.838,12.761 26.059,7.995 L31.609,0.266 L38.374,3.145 L37.59,4.985 L32.3,2.734 L27.699,9.138 C24.419,13.993 23.527,15.846 23.527,19.585 C23.527,24.319 26.372,27.5 30.607,27.5 C34.748,27.5 37.752,24.63 37.752,20.676 C37.752,17.054 35.422,14.621 31.954,14.621 L31.377,14.621 L31.377,12.621 L31.954,12.621 C36.473,12.621 39.752,16.009 39.752,20.676 C39.752,25.789 35.906,29.5 30.607,29.5" id="Fill-2" sketch:type="MSShapeGroup"></path>
            </g>
        </g>
    </g>
</svg>