<?xml version="1.0" encoding="UTF-8" standalone="no"?>
<svg width="26px" height="27px" viewBox="0 0 26 27" version="1.1" xmlns="http://www.w3.org/2000/svg" xmlns:xlink="http://www.w3.org/1999/xlink" xmlns:sketch="http://www.bohemiancoding.com/sketch/ns">
    <!-- Generator: Sketch 3.2.1 (9971) - http://www.bohemiancoding.com/sketch -->
    <title>icon-doc-grey</title>
    <desc>Created with Sketch.</desc>
    <defs></defs>
    <g id="Page-1" stroke="none" stroke-width="1" fill="none" fill-rule="evenodd" sketch:type="MSPage">
        <g id="icons" sketch:type="MSArtboardGroup" transform="translate(-801.000000, -121.000000)" fill="#A2A4A0">
            <path d="M820,127.5 L802,127.5 C801.448,127.5 801,127.948 801,128.5 L801,146.5 C801,147.052 801.448,147.5 802,147.5 C802.552,147.5 803,147.052 803,146.5 L803,129.5 L819,129.5 L819,146.5 C819,147.052 819.448,147.5 820,147.5 C820.552,147.5 821,147.052 821,146.5 L821,128.5 C821,127.948 820.552,127.5 820,127.5 L820,127.5 Z M815.122,133.5 L806.122,133.5 C805.569,133.5 805.121,133.948 805.121,134.5 C805.121,135.052 805.569,135.5 806.122,135.5 L815.122,135.5 C815.674,135.5 816.121,135.052 816.121,134.5 C816.121,133.948 815.674,133.5 815.122,133.5 L815.122,133.5 Z M813.121,143.5 L806.122,143.5 C805.569,143.5 805.121,143.948 805.121,144.5 C805.121,145.052 805.569,145.5 806.122,145.5 L813.121,145.5 C813.674,145.5 814.121,145.052 814.121,144.5 C814.121,143.948 813.674,143.5 813.121,143.5 L813.121,143.5 Z M806.122,140.5 L811.121,140.5 C811.674,140.5 812.122,140.052 812.122,139.5 C812.122,138.948 811.674,138.5 811.121,138.5 L806.122,138.5 C805.569,138.5 805.121,138.948 805.121,139.5 C805.121,140.052 805.569,140.5 806.122,140.5 L806.122,140.5 Z M826,121.5 L806,121.5 C805.448,121.5 805,121.948 805,122.5 C805,123.053 805.448,123.5 806,123.5 L825,123.5 L825,142.5 C825,143.052 825.448,143.5 826,143.5 C826.552,143.5 827,143.052 827,142.5 L827,122.5 C827,121.948 826.552,121.5 826,121.5 L826,121.5 Z" id="icon-doc-grey" sketch:type="MSShapeGroup"></path>
        </g>
    </g>
</svg>