<?xml version="1.0" encoding="UTF-8" standalone="no"?>
<svg width="169px" height="65px" viewBox="0 0 169 65" version="1.1" xmlns="http://www.w3.org/2000/svg" xmlns:xlink="http://www.w3.org/1999/xlink" xmlns:sketch="http://www.bohemiancoding.com/sketch/ns">
    <!-- Generator: Sketch 3.2.1 (9971) - http://www.bohemiancoding.com/sketch -->
    <title>rteArchives-mark-white</title>
    <desc>Created with Sketch.</desc>
    <defs></defs>
    <g id="Page-1" stroke="none" stroke-width="1" fill="none" fill-rule="evenodd" sketch:type="MSPage">
        <g id="logo" sketch:type="MSArtboardGroup" transform="translate(-569.000000, -127.000000)" fill="#FFFFFF">
            <path d="M655.79,178.173074 C648.439,178.173074 642.25,172.913074 641.129,165.476074 L655.054,165.476074 C656.593,165.476074 659.944,165.804074 659.944,165.804074 L659.944,159.636074 C659.944,159.636074 656.657,159.882074 654.82,159.882074 L641.129,159.882074 C642.516,152.592074 648.507,147.561074 655.79,147.561074 C659.634,147.561074 664.345,149.314074 664.345,149.314074 L664.436,142.828074 C664.436,142.828074 661.082,141.556074 655.79,141.556074 C643.542,141.556074 632.829,150.912074 632.829,162.828074 C632.829,175.722074 643.542,184.432074 655.79,184.432074 C661.547,184.432074 664.985,182.894074 664.985,182.894074 L664.822,176.189074 C664.822,176.189074 660.577,178.173074 655.79,178.173074 L655.79,178.173074 Z M624.432,148.847074 C627.235,148.847074 631.377,148.847074 634.586,149.155074 L634.749,142.283074 L602.26,142.283074 L602.524,149.155074 C605.641,148.847074 609.863,148.847074 612.584,148.847074 L614.59,148.847074 L614.59,178.435074 C614.59,181.156074 614.123,184.267074 614.123,184.267074 L622.508,184.267074 C622.508,184.267074 621.964,181.156074 621.964,178.435074 L621.964,148.847074 L624.432,148.847074 L624.432,148.847074 Z M664.496,138.851074 L664.579,135.146074 C661.865,134.442074 659.305,134.041074 656.355,134.041074 C649.621,134.041074 643.463,135.700074 638.024,139.399074 L637.945,144.442074 C643.073,139.881074 649.218,137.716074 656.355,137.716074 C658.983,137.716074 662.107,138.181074 664.496,138.851074 L664.496,138.851074 Z M588.287,167.638074 C595.232,166.968074 601.074,161.858074 601.074,155.233074 C601.074,148.181074 597.003,141.940074 584.882,141.437074 C584.379,141.417074 583.854,141.397074 583.309,141.397074 C574.922,141.397074 569.165,141.799074 569.165,141.799074 C569.165,141.799074 569.551,145.935074 569.551,148.026074 L569.551,178.519074 C569.551,181.322074 569,184.267074 569,184.267074 L577.47,184.267074 C577.47,184.267074 576.929,181.322074 576.929,177.962074 L576.929,165.559074 L584.882,173.881074 L588.907,178.048074 C591.388,180.759074 595.713,184.267074 595.713,184.267074 L606.907,184.267074 C606.907,184.267074 601.898,180.759074 599.571,178.519074 L588.287,167.638074 L588.287,167.638074 Z M582.987,162.665074 L576.929,162.665074 L576.929,147.392074 C576.929,147.392074 579.866,147.316074 583.389,147.316074 C583.914,147.316074 584.421,147.360074 584.882,147.382074 C590.521,147.841074 592.848,150.912074 592.848,154.609074 C592.848,158.751074 589.573,161.882074 584.882,162.554074 C584.275,162.637074 583.629,162.665074 582.987,162.665074 L582.987,162.665074 Z M737.246,127.806074 C737.246,127.685074 737.219,127.562074 737.161,127.447074 C736.962,127.048074 736.479,126.886074 736.08,127.085074 L673.61,158.242074 C673.211,158.440074 673.048,158.925074 673.248,159.323074 C673.446,159.722074 673.931,159.884074 674.329,159.685074 L736.799,128.528074 C737.082,128.387074 737.246,128.102074 737.246,127.806074 L737.246,127.806074 Z M736.774,184.117074 L698.828,165.103074 C698.429,164.903074 697.945,165.064074 697.745,165.462074 C697.545,165.863074 697.707,166.345074 698.105,166.544074 L736.051,185.558074 C736.449,185.758074 736.933,185.597074 737.133,185.199074 C737.191,185.083074 737.218,184.959074 737.218,184.839074 C737.218,184.543074 737.056,184.258074 736.774,184.117074 L736.774,184.117074 Z M736.08,139.794074 L685.251,165.143074 C684.704,165.417074 684.704,166.314074 685.251,166.586074 L736.05,191.915074 C736.449,192.114074 736.932,191.952074 737.131,191.553074 C737.329,191.157074 737.169,190.671074 736.769,190.472074 L687.417,165.865074 L735.633,141.818074 L735.633,172.126074 C735.633,172.571074 735.994,172.932074 736.44,172.932074 C736.885,172.932074 737.246,172.571074 737.246,172.126074 L737.246,140.515074 C737.246,140.235074 737.101,139.976074 736.863,139.830074 C736.626,139.683074 736.33,139.668074 736.08,139.794074 L736.08,139.794074 Z M736.773,177.762074 L705.188,161.942074 C704.791,161.742074 704.306,161.904074 704.107,162.302074 C703.907,162.700074 704.07,163.184074 704.467,163.383074 L736.052,179.203074 C736.449,179.403074 736.933,179.241074 737.133,178.843074 C737.191,178.727074 737.218,178.604074 737.218,178.483074 C737.218,178.188074 737.055,177.903074 736.773,177.762074 L736.773,177.762074 Z M736.08,133.441074 L678.885,161.967074 C678.486,162.165074 678.322,162.650074 678.523,163.048074 C678.722,163.447074 679.205,163.609074 679.604,163.410074 L736.799,134.884074 C737.082,134.742074 737.246,134.458074 737.246,134.161074 C737.246,134.040074 737.219,133.918074 737.161,133.802074 C736.962,133.404074 736.479,133.241074 736.08,133.441074 L736.08,133.441074 Z M730.889,169.362074 L730.889,148.895074 C730.889,148.450074 730.529,148.089074 730.083,148.089074 C729.638,148.089074 729.277,148.450074 729.277,148.895074 L729.277,169.362074 C729.277,169.808074 729.638,170.168074 730.083,170.168074 C730.529,170.168074 730.889,169.808074 730.889,169.362074 L730.889,169.362074 Z M724.533,166.560074 L724.533,151.693074 C724.533,151.248074 724.173,150.887074 723.728,150.887074 C723.283,150.887074 722.922,151.248074 722.922,151.693074 L722.922,166.560074 C722.922,167.005074 723.283,167.366074 723.728,167.366074 C724.173,167.366074 724.533,167.005074 724.533,166.560074 L724.533,166.560074 Z" id="rteArchives-mark-white" sketch:type="MSShapeGroup"></path>
        </g>
    </g>
</svg>