<?xml version="1.0" encoding="UTF-8" standalone="no"?>
<svg width="317px" height="64px" viewBox="0 0 317 64" version="1.1" xmlns="http://www.w3.org/2000/svg" xmlns:xlink="http://www.w3.org/1999/xlink" xmlns:sketch="http://www.bohemiancoding.com/sketch/ns">
    <!-- Generator: Sketch 3.2.1 (9971) - http://www.bohemiancoding.com/sketch -->
    <title>rteArchives-logotype-green</title>
    <desc>Created with Sketch.</desc>
    <defs></defs>
    <g id="Page-1" stroke="none" stroke-width="1" fill="none" fill-rule="evenodd" sketch:type="MSPage">
        <g id="logo" sketch:type="MSArtboardGroup" transform="translate(-170.000000, -222.000000)" fill="#00A683">
            <path d="M195.644142,245.898 C195.256142,245.705 194.790142,245.861 194.598142,246.245 L176.224142,282.913 C176.031142,283.298 176.187142,283.766 176.571142,283.958 C176.684142,284.014 176.803142,284.041 176.920142,284.041 C177.206142,284.041 177.481142,283.884 177.617142,283.611 L195.991142,246.944 C196.184142,246.559 196.028142,246.091 195.644142,245.898 L195.644142,245.898 Z M198.697142,252.046 C198.313142,251.852 197.845142,252.009 197.652142,252.393 L182.365142,282.913 C182.172142,283.298 182.328142,283.766 182.713142,283.958 C182.825142,284.014 182.944142,284.041 183.061142,284.041 C183.347142,284.041 183.622142,283.883 183.758142,283.611 L199.045142,253.09 C199.238142,252.706 199.082142,252.238 198.697142,252.046 L198.697142,252.046 Z M199.021142,227.673 C198.829142,227.288 198.361142,227.129 197.976142,227.323 C197.591142,227.515 197.434142,227.983 197.627142,228.368 L225.192142,283.636 C225.328142,283.91 225.603142,284.067 225.889142,284.067 C226.006142,284.067 226.125142,284.042 226.236142,283.986 C226.622142,283.794 226.778142,283.326 226.586142,282.941 L199.021142,227.673 L199.021142,227.673 Z M202.621142,222.575 C202.428142,222.19 201.961142,222.033 201.576142,222.226 C201.190142,222.418 201.033142,222.885 201.226142,223.271 L231.333142,283.636 C231.469142,283.91 231.745142,284.067 232.031142,284.067 C232.148142,284.067 232.266142,284.042 232.378142,283.986 C232.763142,283.794 232.920142,283.326 232.727142,282.941 L202.621142,222.575 L202.621142,222.575 Z M191.096142,277.146 C191.096142,277.577 191.444142,277.925 191.875142,277.925 L211.653142,277.925 C212.082142,277.925 212.431142,277.577 212.431142,277.146 C212.431142,276.716 212.082142,276.367 211.653142,276.367 L191.875142,276.367 C191.444142,276.367 191.096142,276.716 191.096142,277.146 L191.096142,277.146 Z M208.948142,270.226 L194.583142,270.226 C194.153142,270.226 193.804142,270.575 193.804142,271.005 C193.804142,271.435 194.153142,271.784 194.583142,271.784 L208.948142,271.784 C209.378142,271.784 209.727142,271.435 209.727142,271.005 C209.727142,270.575 209.378142,270.226 208.948142,270.226 L208.948142,270.226 Z M195.952142,233.824 C195.687142,233.296 194.820142,233.296 194.557142,233.824 L170.082142,282.912 C169.890142,283.297 170.046142,283.765 170.431142,283.956 C170.815142,284.148 171.284142,283.993 171.476142,283.607 L195.254142,235.918 L218.491142,282.509 L189.204142,282.509 C188.774142,282.509 188.425142,282.858 188.425142,283.288 C188.425142,283.719 188.774142,284.067 189.204142,284.067 L219.750142,284.067 C220.020142,284.067 220.270142,283.928 220.412142,283.698 C220.555142,283.469 220.568142,283.182 220.447142,282.941 L195.952142,233.824 L195.952142,233.824 Z M358.856142,226.632 L347.843142,226.632 C347.413142,226.632 347.065142,226.981 347.065142,227.411 C347.065142,227.841 347.413142,228.19 347.843142,228.19 L358.856142,228.19 C359.286142,228.19 359.634142,227.841 359.634142,227.411 C359.634142,226.981 359.286142,226.632 358.856142,226.632 L358.856142,226.632 Z M358.856142,232.053 L347.843142,232.053 C347.413142,232.053 347.065142,232.401 347.065142,232.832 C347.065142,233.262 347.413142,233.611 347.843142,233.611 L358.856142,233.611 C359.286142,233.611 359.634142,233.262 359.634142,232.832 C359.634142,232.401 359.286142,232.053 358.856142,232.053 L358.856142,232.053 Z M358.856142,237.474 L347.843142,237.474 C347.413142,237.474 347.065142,237.823 347.065142,238.253 C347.065142,238.683 347.413142,239.032 347.843142,239.032 L358.856142,239.032 C359.286142,239.032 359.634142,238.683 359.634142,238.253 C359.634142,237.823 359.286142,237.474 358.856142,237.474 L358.856142,237.474 Z M315.821142,242.715 C316.251142,242.715 316.600142,242.366 316.600142,241.936 L316.600142,222.779 C316.600142,222.349 316.251142,222 315.821142,222 C315.391142,222 315.042142,222.349 315.042142,222.779 L315.042142,241.936 C315.042142,242.366 315.391142,242.715 315.821142,242.715 L315.821142,242.715 Z M243.613142,267.18 C243.183142,267.18 242.834142,267.528 242.834142,267.958 L242.834142,283.288 C242.834142,283.719 243.183142,284.067 243.613142,284.067 C244.044142,284.067 244.392142,283.719 244.392142,283.288 L244.392142,267.958 C244.392142,267.528 244.044142,267.18 243.613142,267.18 L243.613142,267.18 Z M249.034142,265.014 C248.605142,265.014 248.256142,265.363 248.256142,265.793 L248.256142,283.288 C248.256142,283.719 248.605142,284.067 249.034142,284.067 C249.465142,284.067 249.813142,283.719 249.813142,283.288 L249.813142,265.793 C249.813142,265.363 249.465142,265.014 249.034142,265.014 L249.034142,265.014 Z M260.440142,244.135 L237.903142,253.136 C237.503142,253.296 237.309142,253.749 237.469142,254.149 C237.590142,254.454 237.883142,254.639 238.192142,254.639 C238.288142,254.639 238.386142,254.621 238.481142,254.583 L261.018142,245.582 C261.417142,245.423 261.611142,244.969 261.452142,244.57 C261.292142,244.17 260.838142,243.978 260.440142,244.135 L260.440142,244.135 Z M260.440142,249.556 L237.903142,258.558 C237.503142,258.717 237.309142,259.17 237.469142,259.57 C237.590142,259.875 237.883142,260.061 238.192142,260.061 C238.288142,260.061 238.386142,260.042 238.481142,260.005 L261.018142,251.003 C261.417142,250.844 261.611142,250.391 261.452142,249.991 C261.292142,249.591 260.838142,249.401 260.440142,249.556 L260.440142,249.556 Z M260.440142,254.978 L237.903142,263.979 C237.607142,264.097 237.413142,264.384 237.413142,264.702 L237.413142,283.288 C237.413142,283.719 237.762142,284.067 238.192142,284.067 C238.623142,284.067 238.971142,283.719 238.971142,283.288 L238.971142,265.23 L261.018142,256.425 C261.417142,256.265 261.611142,255.812 261.452142,255.412 C261.292142,255.013 260.838142,254.821 260.440142,254.978 L260.440142,254.978 Z M285.329142,255.941 C288.378142,255.941 289.683142,256.352 291.975142,258.034 C292.322142,258.289 292.809142,258.213 293.064142,257.867 C293.318142,257.52 293.244142,257.032 292.896142,256.778 C290.335142,254.898 288.708142,254.383 285.329142,254.383 C279.561142,254.383 275.534142,258.526 275.534142,264.46 C275.534142,270.393 279.561142,274.536 285.329142,274.536 C288.265142,274.536 290.670142,273.775 292.896142,272.142 C293.244142,271.887 293.318142,271.399 293.064142,271.053 C292.810142,270.707 292.323142,270.63 291.975142,270.885 C290.029142,272.313 287.917142,272.978 285.329142,272.978 C279.669142,272.978 277.091142,268.563 277.091142,264.46 C277.091142,260.357 279.669142,255.941 285.329142,255.941 L285.329142,255.941 Z M296.036142,253.491 C296.306142,253.157 296.255142,252.666 295.920142,252.395 C293.047142,250.07 289.701142,248.987 285.389142,248.987 C274.560142,248.987 269.712142,256.759 269.712142,264.461 C269.712142,272.164 274.560142,279.936 285.389142,279.936 C289.524142,279.936 293.166142,278.758 295.920142,276.527 C296.255142,276.257 296.306142,275.766 296.036142,275.432 C295.765142,275.096 295.274142,275.045 294.940142,275.316 C291.814142,277.847 288.021142,278.378 285.389142,278.378 C278.361142,278.378 271.270142,274.075 271.270142,264.461 C271.270142,254.848 278.361142,250.545 285.389142,250.545 C289.378142,250.545 292.324142,251.489 294.940142,253.607 C295.274142,253.878 295.765142,253.825 296.036142,253.491 L296.036142,253.491 Z M299.012142,249.107 C299.293142,248.782 299.260142,248.29 298.935142,248.008 C295.703142,245.2 290.787142,243.591 285.449142,243.591 C274.719142,243.591 263.891142,250.045 263.891142,264.464 C263.891142,278.882 274.719142,285.336 285.449142,285.336 C290.787142,285.336 295.703142,283.726 298.935142,280.919 C299.260142,280.637 299.293142,280.145 299.012142,279.819 C298.729142,279.495 298.239142,279.46 297.912142,279.743 C295.003142,282.269 290.345142,283.778 285.449142,283.778 C275.494142,283.778 265.449142,277.806 265.449142,264.464 C265.449142,251.121 275.494142,245.148 285.449142,245.148 C290.345142,245.148 295.003142,246.658 297.912142,249.184 C298.239142,249.467 298.729142,249.433 299.012142,249.107 L299.012142,249.107 Z M347.856142,245.055 C347.426142,245.055 347.077142,245.404 347.077142,245.834 L347.077142,283.331 C347.077142,283.761 347.426142,284.11 347.856142,284.11 C348.287142,284.11 348.635142,283.761 348.635142,283.331 L348.635142,245.834 C348.635142,245.404 348.287142,245.055 347.856142,245.055 L347.856142,245.055 Z M353.277142,245.055 C352.847142,245.055 352.498142,245.404 352.498142,245.834 L352.498142,283.331 C352.498142,283.761 352.847142,284.11 353.277142,284.11 C353.708142,284.11 354.056142,283.761 354.056142,283.331 L354.056142,245.834 C354.056142,245.404 353.708142,245.055 353.277142,245.055 L353.277142,245.055 Z M358.698142,245.055 C358.269142,245.055 357.920142,245.404 357.920142,245.834 L357.920142,283.331 C357.920142,283.761 358.269142,284.11 358.698142,284.11 C359.129142,284.11 359.478142,283.761 359.478142,283.331 L359.478142,245.834 C359.478142,245.404 359.129142,245.055 358.698142,245.055 L358.698142,245.055 Z M366.034142,245.445 C365.866142,245.049 365.405142,244.863 365.012142,245.036 C364.616142,245.205 364.434142,245.663 364.603142,246.058 L380.697142,283.638 C380.823142,283.934 381.111142,284.111 381.413142,284.111 C381.514142,284.111 381.619142,284.09 381.719142,284.047 C382.115142,283.878 382.298142,283.42 382.128142,283.024 L366.034142,245.445 L366.034142,245.445 Z M371.456142,245.445 C371.288142,245.049 370.826142,244.863 370.434142,245.036 C370.038142,245.205 369.855142,245.663 370.024142,246.058 L386.118142,283.638 C386.244142,283.934 386.532142,284.111 386.834142,284.111 C386.936142,284.111 387.041142,284.09 387.141142,284.047 C387.536142,283.878 387.719142,283.42 387.550142,283.024 L371.456142,245.445 L371.456142,245.445 Z M408.928142,245.038 C408.533142,244.864 408.074142,245.045 407.903142,245.441 L392.271142,281.391 L376.878142,245.445 C376.708142,245.049 376.247142,244.863 375.855142,245.036 C375.460142,245.205 375.276142,245.663 375.446142,246.058 L391.514142,283.577 C391.572142,283.8 391.717142,283.997 391.944142,284.096 C392.045142,284.141 392.151142,284.162 392.255142,284.162 C392.555142,284.162 392.842142,283.986 392.969142,283.693 L409.331142,246.063 C409.503142,245.668 409.323142,245.209 408.928142,245.038 L408.928142,245.038 Z M391.962142,271.431 C392.064142,271.475 392.169142,271.497 392.274142,271.497 C392.574142,271.497 392.860142,271.322 392.988142,271.029 L403.909142,246.064 C404.082142,245.67 403.902142,245.211 403.508142,245.038 C403.116142,244.866 402.655142,245.044 402.482142,245.44 L391.560142,270.405 C391.388142,270.799 391.567142,271.258 391.962142,271.431 L391.962142,271.431 Z M389.301142,265.215 C389.403142,265.259 389.508142,265.28 389.612142,265.28 C389.912142,265.28 390.198142,265.105 390.326142,264.811 L398.489142,246.063 C398.661142,245.668 398.480142,245.209 398.085142,245.038 C397.690142,244.864 397.233142,245.045 397.060142,245.441 L388.898142,264.189 C388.726142,264.584 388.906142,265.043 389.301142,265.215 L389.301142,265.215 Z M305.017142,222 C304.586142,222 304.238142,222.349 304.238142,222.779 L304.238142,283.288 C304.238142,283.719 304.586142,284.067 305.017142,284.067 C305.447142,284.067 305.795142,283.719 305.795142,283.288 L305.795142,222.779 C305.795142,222.349 305.447142,222 305.017142,222 L305.017142,222 Z M465.925142,265.695 C466.408142,265.89 466.894142,266.086 467.413142,266.304 C467.413142,266.304 472.835142,268.275 474.131142,268.765 C476.826142,269.786 478.592142,270.696 478.592142,273.899 C478.592142,278.297 471.222142,278.424 470.382142,278.424 C466.894142,278.424 462.115142,277.371 459.160142,274.417 C458.856142,274.112 458.362142,274.112 458.059142,274.417 C457.754142,274.721 457.754142,275.214 458.059142,275.518 C462.201142,279.66 468.537142,279.982 470.382142,279.982 C474.888142,279.982 480.150142,278.389 480.150142,273.899 C480.150142,269.72 477.673142,268.442 474.683142,267.308 C473.388142,266.817 467.984142,264.853 467.981142,264.853 C467.491142,264.647 466.998142,264.448 466.510142,264.25 C462.065142,262.453 458.227142,260.901 458.227142,255.24 C458.227142,250.265 462.310142,245.245 471.431142,245.245 C476.988142,245.245 480.696142,246.485 483.453142,249.262 C483.758142,249.568 484.251142,249.568 484.555142,249.266 C484.860142,248.963 484.863142,248.469 484.560142,248.164 C481.486142,245.068 477.438142,243.688 471.431142,243.688 C464.321142,243.688 456.669142,247.303 456.669142,255.24 C456.669142,261.952 461.374142,263.854 465.925142,265.695 L465.925142,265.695 Z M431.032142,243.634 C418.602142,243.634 410.252142,252.062 410.252142,264.605 C410.252142,277.235 418.408142,285.395 431.032142,285.395 C435.696142,285.395 439.639142,284.806 443.724142,281.93 C444.075142,281.682 444.160142,281.196 443.913142,280.845 C443.664142,280.493 443.179142,280.409 442.827142,280.655 C439.065142,283.305 435.524142,283.837 431.032142,283.837 C419.355142,283.837 411.809142,276.288 411.809142,264.605 C411.809142,252.994 419.535142,245.192 431.032142,245.192 C442.499142,245.192 449.346142,252.45 449.346142,264.605 L449.346142,268.287 L427.973142,268.287 C427.542142,268.287 427.194142,268.636 427.194142,269.066 C427.194142,269.497 427.542142,269.845 427.973142,269.845 L450.124142,269.845 C450.555142,269.845 450.903142,269.497 450.903142,269.066 L450.903142,264.605 C450.903142,251.67 443.289142,243.634 431.032142,243.634 L431.032142,243.634 Z M310.438142,248.032 C310.868142,248.032 311.217142,247.684 311.217142,247.253 L311.217142,222.779 C311.217142,222.349 310.868142,222 310.438142,222 C310.008142,222 309.659142,222.349 309.659142,222.779 L309.659142,247.253 C309.659142,247.684 310.008142,248.032 310.438142,248.032 L310.438142,248.032 Z M325.189142,243.637 C315.007142,243.637 309.680142,250.467 309.680142,257.216 L309.680142,283.278 C309.680142,283.708 310.028142,284.057 310.458142,284.057 C310.889142,284.057 311.237142,283.708 311.237142,283.278 L311.237142,257.216 C311.237142,251.242 316.030142,245.194 325.189142,245.194 C332.058142,245.194 339.165142,249.691 339.165142,257.216 C339.165142,265.695 339.128142,282.062 339.123142,283.259 L339.123142,283.327 L339.124142,283.327 C339.134142,283.522 339.215142,283.726 339.352142,283.864 C339.498142,284.01 339.696142,284.117 339.903142,284.117 C340.370142,284.117 340.556142,284.117 340.633142,283.33 L340.681142,283.329 L340.633142,283.327 C340.634142,283.315 340.636142,283.301 340.637142,283.288 L340.681142,283.288 C340.681142,283.215 340.671142,283.144 340.653142,283.076 C340.684142,282.538 340.686142,281.722 340.689142,280.484 L340.703142,273.547 C340.713142,268.106 340.722142,261.574 340.722142,257.216 C340.722142,248.715 332.824142,243.637 325.189142,243.637 L325.189142,243.637 Z M445.004142,265.83 C445.435142,265.83 445.783142,265.481 445.783142,265.051 C445.783142,259.757 444.292142,255.651 441.349142,252.848 C437.041142,248.744 431.240142,248.972 431.032142,248.987 C421.948142,248.987 415.604142,255.41 415.604142,264.605 C415.604142,273.982 421.660142,280.041 431.032142,280.041 C433.425142,280.041 439.231142,279.732 441.439142,276.86 C441.701142,276.519 441.638142,276.03 441.296142,275.767 C440.953142,275.503 440.465142,275.571 440.203142,275.911 C438.745142,277.808 434.509142,278.483 431.032142,278.483 C422.606142,278.483 417.162142,273.036 417.162142,264.605 C417.162142,256.196 422.736142,250.545 431.068142,250.544 C431.118142,250.546 436.472142,250.343 440.287142,253.988 C442.900142,256.485 444.226142,260.207 444.226142,265.051 C444.226142,265.481 444.573142,265.83 445.004142,265.83 L445.004142,265.83 Z M427.439142,264.605 C427.439142,265.036 427.788142,265.384 428.218142,265.384 L439.656142,265.384 C440.087142,265.384 440.435142,265.036 440.435142,264.605 C440.435142,261.192 439.471142,258.569 437.569142,256.806 C434.815142,254.251 431.128142,254.499 431.032142,254.508 C425.194142,254.508 420.958142,258.754 420.958142,264.605 C420.958142,270.494 424.898142,273.547 428.585142,274.441 C428.646142,274.455 428.708142,274.462 428.769142,274.462 C429.121142,274.462 429.439142,274.223 429.526142,273.866 C429.626142,273.449 429.370142,273.027 428.951142,272.926 C425.840142,272.172 422.516142,269.59 422.516142,264.605 C422.516142,259.578 426.018142,256.066 431.090142,256.064 C431.120142,256.057 434.247142,255.85 436.510142,257.948 C437.940142,259.273 438.728142,261.249 438.858142,263.826 L428.218142,263.826 C427.788142,263.826 427.439142,264.175 427.439142,264.605 L427.439142,264.605 Z M476.231142,261.945 L469.680142,259.649 C466.581142,258.707 465.007142,257.845 465.007142,255.751 C465.007142,253.355 466.839142,250.558 472.002142,250.558 C475.838142,250.558 478.478142,251.488 480.561142,253.571 C480.865142,253.876 481.359142,253.876 481.662142,253.571 C481.967142,253.267 481.967142,252.774 481.662142,252.469 C479.264142,250.07 476.284142,249.001 472.002142,249.001 C466.094142,249.001 463.450142,252.391 463.450142,255.751 C463.450142,259.102 466.303142,260.251 469.196142,261.13 L475.703142,263.411 C480.440142,265.17 485.066142,267.357 485.066142,272.96 C485.066142,279.853 479.288142,283.806 469.216142,283.806 C460.631142,283.806 456.173142,278.775 456.131142,278.724 C455.850142,278.399 455.358142,278.362 455.031142,278.641 C454.705142,278.921 454.668142,279.413 454.948142,279.74 C455.146142,279.969 459.883142,285.363 469.216142,285.363 C480.116142,285.363 486.624142,280.727 486.624142,272.96 C486.624142,266.357 481.267142,263.815 476.231142,261.945 L476.231142,261.945 Z M470.458142,275.205 C472.041142,275.205 473.606142,274.844 474.987142,274.084 C475.363142,273.876 475.501142,273.402 475.294142,273.025 C475.085142,272.648 474.612142,272.51 474.235142,272.718 C470.812142,274.603 465.825142,273.475 463.342142,270.256 C463.081142,269.915 462.591142,269.853 462.250142,270.114 C461.909142,270.377 461.846142,270.866 462.108142,271.207 C464.089142,273.775 467.309142,275.205 470.458142,275.205 L470.458142,275.205 Z M468.385142,255.71 C468.029142,255.951 467.936142,256.436 468.177142,256.792 C468.418142,257.147 468.903142,257.24 469.259142,257 C471.553142,255.444 475.431142,256.372 477.362142,258.242 C477.514142,258.389 477.709142,258.461 477.904142,258.461 C478.108142,258.461 478.311142,258.382 478.464142,258.224 C478.763142,257.915 478.756142,257.422 478.446142,257.123 C476.079142,254.834 471.366142,253.691 468.385142,255.71 L468.385142,255.71 Z M323.979142,254.178 C323.548142,254.178 323.200142,254.526 323.200142,254.957 C323.200142,255.387 323.548142,255.735 323.979142,255.735 C327.084142,255.735 328.132142,256.99 328.132142,260.706 L328.132142,283.278 C328.132142,283.708 328.480142,284.057 328.911142,284.057 C329.341142,284.057 329.689142,283.708 329.689142,283.278 L329.689142,260.706 C329.689142,256.13 327.982142,254.178 323.979142,254.178 L323.979142,254.178 Z M325.404142,249.582 C319.560142,249.582 315.319142,253.353 315.319142,258.547 L315.319142,283.278 C315.319142,283.708 315.667142,284.057 316.098142,284.057 C316.528142,284.057 316.877142,283.708 316.877142,283.278 L316.877142,258.547 C316.877142,254.186 320.383142,251.14 325.404142,251.14 C332.624142,251.14 333.702142,256.029 333.702142,258.942 L333.702142,283.278 C333.702142,283.708 334.051142,284.057 334.481142,284.057 C334.911142,284.057 335.260142,283.708 335.260142,283.278 L335.260142,258.942 C335.260142,252.993 331.668142,249.582 325.404142,249.582 L325.404142,249.582 Z" id="rteArchives-logotype-green" sketch:type="MSShapeGroup"></path>
        </g>
    </g>
</svg>