<?xml version="1.0" encoding="UTF-8" standalone="no"?>
<svg width="459px" height="66px" viewBox="0 0 459 66" version="1.1" xmlns="http://www.w3.org/2000/svg" xmlns:xlink="http://www.w3.org/1999/xlink" xmlns:sketch="http://www.bohemiancoding.com/sketch/ns">
    <!-- Generator: Sketch 3.2.1 (9971) - http://www.bohemiancoding.com/sketch -->
    <title>rteArchives-logo-green</title>
    <desc>Created with Sketch.</desc>
    <defs></defs>
    <g id="Page-1" stroke="none" stroke-width="1" fill="none" fill-rule="evenodd" sketch:type="MSPage">
        <g id="logo" sketch:type="MSArtboardGroup" transform="translate(-28.000000, -32.000000)" fill="#00A683">
            <g id="rteArchives-logo-green" sketch:type="MSLayerGroup" transform="translate(28.000000, 32.000000)">
                <path d="M109.219,55.724 C99.971,55.724 92.184,49.108 90.774,39.751 L108.293,39.751 C110.229,39.751 114.444,40.164 114.444,40.164 L114.444,32.404 C114.444,32.404 110.309,32.714 107.998,32.714 L90.774,32.714 C92.52,23.542 100.057,17.213 109.219,17.213 C114.054,17.213 119.981,19.419 119.981,19.419 L120.096,11.259 C120.096,11.259 115.875,9.659 109.219,9.659 C93.81,9.659 80.332,21.429 80.332,36.42 C80.332,52.641 93.81,63.599 109.219,63.599 C116.461,63.599 120.787,61.663 120.787,61.663 L120.581,53.229 C120.58,53.229 115.24,55.724 109.219,55.724" id="Fill-1" sketch:type="MSShapeGroup"></path>
                <path d="M56.799,63.391 C56.798,63.391 57.387,59.478 57.387,56.055 L57.387,18.831 L54.863,18.831 C51.44,18.831 46.129,18.831 42.208,19.218 L41.875,10.574 L82.748,10.574 L82.542,19.218 C78.506,18.831 73.295,18.831 69.769,18.831 L66.663,18.831 L66.663,56.055 C66.663,59.478 67.349,63.391 67.349,63.391 L56.799,63.391" id="Fill-2" sketch:type="MSShapeGroup"></path>
                <path d="M120.171,6.256 C117.166,5.413 113.235,4.828 109.929,4.828 C100.951,4.828 93.22,7.551 86.768,13.29 L86.868,6.945 C93.71,2.292 101.457,0.204 109.929,0.204 C113.64,0.204 116.861,0.709 120.276,1.594 L120.171,6.256" id="Fill-3" sketch:type="MSShapeGroup"></path>
                <path d="M17.63,36.215 L10.008,36.215 L10.008,17 C10.008,17 13.703,16.906 18.135,16.906 C18.795,16.906 19.433,16.96 20.013,16.988 C27.107,17.566 30.035,21.429 30.035,26.08 C30.035,31.291 25.914,35.23 20.013,36.075 C19.25,36.18 18.437,36.215 17.63,36.215 M38.492,56.16 L24.296,42.471 C33.033,41.629 40.383,35.2 40.383,26.865 C40.383,17.993 35.262,10.142 20.013,9.509 C19.38,9.484 18.72,9.459 18.035,9.459 C7.482,9.459 0.24,9.964 0.24,9.964 C0.24,9.964 0.725,15.167 0.725,17.798 L0.725,56.16 C0.725,59.686 0.033,63.391 0.033,63.391 L10.688,63.391 C10.688,63.391 10.008,59.686 10.008,55.46 L10.008,39.856 L20.013,50.326 L25.076,55.567 C28.197,58.978 33.638,63.391 33.638,63.391 L47.722,63.391 C47.722,63.391 41.42,58.978 38.492,56.16" id="Fill-4" sketch:type="MSShapeGroup"></path>
                <path d="M167.709,25.707 C167.321,25.514 166.855,25.67 166.663,26.054 L148.29,62.722 C148.096,63.107 148.252,63.575 148.636,63.767 C148.749,63.823 148.868,63.85 148.985,63.85 C149.27,63.85 149.546,63.693 149.682,63.42 L168.055,26.753 C168.249,26.368 168.093,25.9 167.709,25.707 L167.709,25.707 Z M170.762,31.855 C170.378,31.661 169.91,31.818 169.717,32.202 L154.431,62.722 C154.238,63.107 154.393,63.575 154.778,63.767 C154.89,63.823 155.01,63.85 155.126,63.85 C155.411,63.85 155.687,63.692 155.823,63.42 L171.11,32.899 C171.303,32.515 171.147,32.047 170.762,31.855 L170.762,31.855 Z M171.086,7.482 C170.895,7.097 170.426,6.938 170.041,7.132 C169.656,7.324 169.499,7.792 169.692,8.177 L197.257,63.445 C197.393,63.719 197.668,63.876 197.955,63.876 C198.071,63.876 198.19,63.851 198.301,63.795 C198.687,63.603 198.844,63.135 198.651,62.75 L171.086,7.482 L171.086,7.482 Z M174.685,2.384 C174.494,1.999 174.026,1.842 173.64,2.035 C173.255,2.227 173.099,2.694 173.291,3.08 L203.398,63.445 C203.535,63.719 203.809,63.876 204.096,63.876 C204.213,63.876 204.331,63.851 204.443,63.795 C204.828,63.603 204.985,63.135 204.792,62.75 L174.685,2.384 L174.685,2.384 Z M163.161,56.955 C163.161,57.386 163.509,57.734 163.94,57.734 L183.717,57.734 C184.147,57.734 184.496,57.386 184.496,56.955 C184.496,56.525 184.147,56.176 183.717,56.176 L163.94,56.176 C163.509,56.176 163.161,56.525 163.161,56.955 L163.161,56.955 Z M181.013,50.035 L166.648,50.035 C166.217,50.035 165.869,50.384 165.869,50.814 C165.869,51.244 166.217,51.593 166.648,51.593 L181.013,51.593 C181.444,51.593 181.792,51.244 181.792,50.814 C181.792,50.384 181.444,50.035 181.013,50.035 L181.013,50.035 Z M168.016,13.633 C167.752,13.105 166.884,13.105 166.622,13.633 L142.147,62.721 C141.954,63.106 142.111,63.574 142.496,63.765 C142.879,63.957 143.349,63.802 143.541,63.416 L167.319,15.727 L190.555,62.318 L161.269,62.318 C160.838,62.318 160.491,62.667 160.491,63.097 C160.491,63.528 160.838,63.876 161.269,63.876 L191.815,63.876 C192.085,63.876 192.336,63.737 192.477,63.507 C192.619,63.278 192.633,62.991 192.512,62.75 L168.016,13.633 L168.016,13.633 Z M330.921,6.441 L319.908,6.441 C319.478,6.441 319.13,6.79 319.13,7.22 C319.13,7.65 319.478,7.999 319.908,7.999 L330.921,7.999 C331.351,7.999 331.7,7.65 331.7,7.22 C331.7,6.79 331.351,6.441 330.921,6.441 L330.921,6.441 Z M330.921,11.862 L319.908,11.862 C319.478,11.862 319.13,12.21 319.13,12.641 C319.13,13.071 319.478,13.42 319.908,13.42 L330.921,13.42 C331.351,13.42 331.7,13.071 331.7,12.641 C331.7,12.21 331.351,11.862 330.921,11.862 L330.921,11.862 Z M330.921,17.283 L319.908,17.283 C319.478,17.283 319.13,17.632 319.13,18.062 C319.13,18.492 319.478,18.841 319.908,18.841 L330.921,18.841 C331.351,18.841 331.7,18.492 331.7,18.062 C331.7,17.632 331.351,17.283 330.921,17.283 L330.921,17.283 Z M287.886,22.524 C288.316,22.524 288.665,22.175 288.665,21.745 L288.665,2.588 C288.665,2.158 288.316,1.809 287.886,1.809 C287.455,1.809 287.107,2.158 287.107,2.588 L287.107,21.745 C287.107,22.175 287.455,22.524 287.886,22.524 L287.886,22.524 Z M215.678,46.989 C215.248,46.989 214.899,47.337 214.899,47.767 L214.899,63.097 C214.899,63.528 215.248,63.876 215.678,63.876 C216.109,63.876 216.458,63.528 216.458,63.097 L216.458,47.767 C216.458,47.337 216.109,46.989 215.678,46.989 L215.678,46.989 Z M221.1,44.823 C220.669,44.823 220.32,45.172 220.32,45.602 L220.32,63.097 C220.32,63.528 220.669,63.876 221.1,63.876 C221.53,63.876 221.878,63.528 221.878,63.097 L221.878,45.602 C221.878,45.172 221.53,44.823 221.1,44.823 L221.1,44.823 Z M232.505,23.944 L209.968,32.945 C209.568,33.105 209.374,33.558 209.534,33.958 C209.655,34.263 209.948,34.448 210.257,34.448 C210.353,34.448 210.451,34.43 210.546,34.392 L233.082,25.391 C233.482,25.232 233.676,24.778 233.517,24.379 C233.358,23.979 232.903,23.787 232.505,23.944 L232.505,23.944 Z M232.505,29.365 L209.968,38.367 C209.568,38.526 209.374,38.979 209.534,39.379 C209.655,39.684 209.948,39.87 210.257,39.87 C210.353,39.87 210.451,39.851 210.546,39.814 L233.082,30.812 C233.482,30.653 233.676,30.2 233.517,29.8 C233.358,29.4 232.903,29.21 232.505,29.365 L232.505,29.365 Z M232.505,34.787 L209.968,43.788 C209.672,43.906 209.478,44.193 209.478,44.511 L209.478,63.097 C209.478,63.528 209.827,63.876 210.257,63.876 C210.687,63.876 211.036,63.528 211.036,63.097 L211.036,45.039 L233.082,36.234 C233.482,36.074 233.676,35.621 233.517,35.221 C233.358,34.822 232.903,34.63 232.505,34.787 L232.505,34.787 Z M257.394,35.75 C260.444,35.75 261.747,36.161 264.04,37.843 C264.387,38.098 264.874,38.022 265.129,37.676 C265.384,37.329 265.308,36.841 264.962,36.587 C262.399,34.707 260.773,34.192 257.394,34.192 C251.626,34.192 247.598,38.335 247.598,44.269 C247.598,50.202 251.626,54.345 257.394,54.345 C260.33,54.345 262.735,53.584 264.962,51.951 C265.308,51.696 265.384,51.208 265.129,50.862 C264.875,50.516 264.388,50.439 264.04,50.694 C262.094,52.122 259.983,52.787 257.394,52.787 C251.734,52.787 249.156,48.372 249.156,44.269 C249.156,40.166 251.734,35.75 257.394,35.75 L257.394,35.75 Z M268.101,33.3 C268.371,32.966 268.32,32.475 267.985,32.204 C265.112,29.879 261.766,28.796 257.453,28.796 C246.624,28.796 241.778,36.568 241.778,44.27 C241.778,51.973 246.624,59.745 257.453,59.745 C261.589,59.745 265.231,58.567 267.985,56.336 C268.32,56.066 268.371,55.575 268.101,55.241 C267.83,54.905 267.339,54.854 267.005,55.125 C263.879,57.656 260.086,58.187 257.453,58.187 C250.426,58.187 243.335,53.884 243.335,44.27 C243.335,34.657 250.426,30.354 257.453,30.354 C261.443,30.354 264.389,31.298 267.005,33.416 C267.339,33.687 267.83,33.634 268.101,33.3 L268.101,33.3 Z M271.076,28.916 C271.358,28.591 271.325,28.099 271,27.817 C267.768,25.009 262.853,23.4 257.514,23.4 C246.784,23.4 235.957,29.854 235.957,44.273 C235.957,58.691 246.784,65.145 257.514,65.145 C262.853,65.145 267.768,63.535 271,60.728 C271.325,60.446 271.358,59.954 271.076,59.628 C270.794,59.304 270.303,59.269 269.978,59.552 C267.068,62.078 262.41,63.587 257.514,63.587 C247.56,63.587 237.514,57.615 237.514,44.273 C237.514,30.93 247.56,24.957 257.514,24.957 C262.41,24.957 267.068,26.467 269.978,28.993 C270.303,29.276 270.794,29.242 271.076,28.916 L271.076,28.916 Z M319.921,24.864 C319.491,24.864 319.142,25.213 319.142,25.643 L319.142,63.14 C319.142,63.57 319.491,63.919 319.921,63.919 C320.351,63.919 320.7,63.57 320.7,63.14 L320.7,25.643 C320.7,25.213 320.351,24.864 319.921,24.864 L319.921,24.864 Z M325.343,24.864 C324.912,24.864 324.564,25.213 324.564,25.643 L324.564,63.14 C324.564,63.57 324.912,63.919 325.343,63.919 C325.773,63.919 326.122,63.57 326.122,63.14 L326.122,25.643 C326.122,25.213 325.773,24.864 325.343,24.864 L325.343,24.864 Z M330.764,24.864 C330.333,24.864 329.985,25.213 329.985,25.643 L329.985,63.14 C329.985,63.57 330.333,63.919 330.764,63.919 C331.194,63.919 331.543,63.57 331.543,63.14 L331.543,25.643 C331.543,25.213 331.194,24.864 330.764,24.864 L330.764,24.864 Z M338.1,25.254 C337.931,24.858 337.47,24.672 337.077,24.845 C336.682,25.014 336.499,25.472 336.668,25.868 L352.762,63.447 C352.888,63.743 353.175,63.92 353.477,63.92 C353.58,63.92 353.685,63.899 353.784,63.856 C354.18,63.687 354.362,63.229 354.193,62.833 L338.1,25.254 L338.1,25.254 Z M343.521,25.254 C343.352,24.858 342.892,24.672 342.498,24.845 C342.103,25.014 341.92,25.472 342.09,25.868 L358.183,63.447 C358.309,63.743 358.597,63.92 358.899,63.92 C359.001,63.92 359.106,63.899 359.206,63.856 C359.601,63.687 359.784,63.229 359.615,62.833 L343.521,25.254 L343.521,25.254 Z M380.993,24.847 C380.597,24.673 380.139,24.854 379.968,25.25 L364.337,61.2 L348.942,25.254 C348.773,24.858 348.312,24.672 347.92,24.845 C347.524,25.014 347.341,25.472 347.511,25.868 L363.578,63.386 C363.637,63.609 363.781,63.806 364.009,63.905 C364.11,63.95 364.216,63.971 364.32,63.971 C364.62,63.971 364.907,63.795 365.034,63.502 L381.396,25.872 C381.568,25.477 381.388,25.018 380.993,24.847 L380.993,24.847 Z M364.027,51.24 C364.128,51.284 364.234,51.306 364.339,51.306 C364.639,51.306 364.924,51.131 365.053,50.838 L375.975,25.873 C376.147,25.479 375.967,25.02 375.572,24.847 C375.18,24.675 374.721,24.853 374.547,25.249 L363.625,50.214 C363.452,50.608 363.633,51.067 364.027,51.24 L364.027,51.24 Z M361.365,45.024 C361.467,45.068 361.573,45.089 361.677,45.089 C361.977,45.089 362.263,44.914 362.391,44.62 L370.553,25.872 C370.725,25.477 370.545,25.018 370.15,24.847 C369.755,24.673 369.297,24.854 369.125,25.25 L360.963,43.998 C360.79,44.393 360.971,44.852 361.365,45.024 L361.365,45.024 Z M277.082,1.809 C276.651,1.809 276.302,2.158 276.302,2.588 L276.302,63.097 C276.302,63.528 276.651,63.876 277.082,63.876 C277.512,63.876 277.86,63.528 277.86,63.097 L277.86,2.588 C277.86,2.158 277.512,1.809 277.082,1.809 L277.082,1.809 Z M437.99,45.504 C438.473,45.699 438.959,45.895 439.479,46.113 C439.479,46.113 444.9,48.084 446.195,48.574 C448.891,49.595 450.657,50.505 450.657,53.708 C450.657,58.106 443.287,58.233 442.447,58.233 C438.96,58.233 434.18,57.18 431.225,54.226 C430.922,53.921 430.427,53.921 430.124,54.226 C429.818,54.53 429.818,55.023 430.124,55.327 C434.266,59.469 440.603,59.791 442.447,59.791 C446.953,59.791 452.215,58.198 452.215,53.708 C452.215,49.529 449.738,48.251 446.747,47.117 C445.453,46.626 440.048,44.662 440.046,44.662 C439.556,44.456 439.064,44.257 438.575,44.059 C434.13,42.262 430.292,40.71 430.292,35.049 C430.292,30.074 434.374,25.054 443.495,25.054 C449.054,25.054 452.761,26.294 455.518,29.071 C455.822,29.377 456.316,29.377 456.62,29.075 C456.925,28.772 456.928,28.278 456.624,27.973 C453.551,24.877 449.502,23.497 443.495,23.497 C436.387,23.497 428.734,27.112 428.734,35.049 C428.734,41.761 433.44,43.663 437.99,45.504 L437.99,45.504 Z M403.096,23.443 C390.667,23.443 382.316,31.871 382.316,44.414 C382.316,57.044 390.473,65.204 403.096,65.204 C407.761,65.204 411.704,64.615 415.788,61.739 C416.14,61.491 416.225,61.005 415.977,60.654 C415.729,60.302 415.244,60.218 414.892,60.464 C411.13,63.114 407.589,63.646 403.096,63.646 C391.42,63.646 383.874,56.097 383.874,44.414 C383.874,32.803 391.599,25.001 403.096,25.001 C414.564,25.001 421.411,32.259 421.411,44.414 L421.411,48.096 L400.037,48.096 C399.607,48.096 399.259,48.445 399.259,48.875 C399.259,49.306 399.607,49.654 400.037,49.654 L422.19,49.654 C422.62,49.654 422.969,49.306 422.969,48.875 L422.969,44.414 C422.969,31.479 415.354,23.443 403.096,23.443 L403.096,23.443 Z M282.503,27.841 C282.933,27.841 283.282,27.493 283.282,27.062 L283.282,2.588 C283.282,2.158 282.933,1.809 282.503,1.809 C282.073,1.809 281.724,2.158 281.724,2.588 L281.724,27.062 C281.724,27.493 282.073,27.841 282.503,27.841 L282.503,27.841 Z M297.254,23.446 C287.072,23.446 281.745,30.276 281.745,37.025 L281.745,63.087 C281.745,63.517 282.093,63.866 282.523,63.866 C282.954,63.866 283.302,63.517 283.302,63.087 L283.302,37.025 C283.302,31.051 288.095,25.003 297.254,25.003 C304.123,25.003 311.229,29.5 311.229,37.025 C311.229,45.504 311.194,61.871 311.188,63.068 L311.188,63.136 L311.189,63.136 C311.198,63.331 311.28,63.535 311.417,63.673 C311.562,63.819 311.761,63.926 311.967,63.926 C312.435,63.926 312.622,63.926 312.698,63.139 L312.746,63.138 L312.698,63.136 C312.699,63.124 312.701,63.11 312.702,63.097 L312.746,63.097 C312.746,63.024 312.736,62.953 312.717,62.885 C312.749,62.347 312.751,61.531 312.754,60.293 L312.767,53.356 C312.778,47.915 312.787,41.383 312.787,37.025 C312.787,28.524 304.89,23.446 297.254,23.446 L297.254,23.446 Z M417.069,45.639 C417.499,45.639 417.848,45.29 417.848,44.86 C417.848,39.566 416.357,35.46 413.415,32.657 C409.106,28.553 403.305,28.781 403.096,28.796 C394.013,28.796 387.67,35.219 387.67,44.414 C387.67,53.791 393.725,59.85 403.096,59.85 C405.49,59.85 411.296,59.541 413.504,56.669 C413.767,56.328 413.702,55.839 413.361,55.576 C413.018,55.312 412.53,55.38 412.268,55.72 C410.81,57.617 406.574,58.292 403.096,58.292 C394.672,58.292 389.228,52.845 389.228,44.414 C389.228,36.005 394.801,30.354 403.133,30.353 C403.184,30.355 408.537,30.152 412.352,33.797 C414.965,36.294 416.29,40.016 416.29,44.86 C416.29,45.29 416.639,45.639 417.069,45.639 L417.069,45.639 Z M399.504,44.414 C399.504,44.845 399.852,45.193 400.283,45.193 L411.721,45.193 C412.151,45.193 412.5,44.845 412.5,44.414 C412.5,41.001 411.536,38.378 409.634,36.615 C406.879,34.06 403.193,34.308 403.096,34.317 C397.26,34.317 393.024,38.563 393.024,44.414 C393.024,50.303 396.963,53.356 400.65,54.25 C400.712,54.264 400.773,54.271 400.834,54.271 C401.185,54.271 401.504,54.032 401.591,53.675 C401.691,53.258 401.435,52.836 401.017,52.735 C397.905,51.981 394.581,49.399 394.581,44.414 C394.581,39.387 398.083,35.875 403.155,35.873 C403.185,35.866 406.313,35.659 408.575,37.757 C410.005,39.082 410.793,41.058 410.923,43.635 L400.283,43.635 C399.852,43.635 399.504,43.984 399.504,44.414 L399.504,44.414 Z M448.297,41.754 L441.744,39.458 C438.646,38.516 437.072,37.654 437.072,35.56 C437.072,33.164 438.904,30.368 444.067,30.368 C447.903,30.368 450.543,31.297 452.626,33.38 C452.93,33.685 453.424,33.685 453.728,33.38 C454.033,33.076 454.033,32.583 453.728,32.278 C451.328,29.879 448.35,28.81 444.067,28.81 C438.158,28.81 435.514,32.2 435.514,35.56 C435.514,38.911 438.368,40.06 441.261,40.939 L447.768,43.22 C452.505,44.979 457.131,47.166 457.131,52.769 C457.131,59.662 451.353,63.615 441.281,63.615 C432.696,63.615 428.238,58.584 428.196,58.533 C427.915,58.208 427.424,58.171 427.096,58.45 C426.77,58.73 426.732,59.222 427.013,59.549 C427.21,59.778 431.948,65.172 441.281,65.172 C452.182,65.172 458.688,60.536 458.688,52.769 C458.688,46.166 453.332,43.624 448.297,41.754 L448.297,41.754 Z M442.523,55.014 C444.106,55.014 445.671,54.653 447.052,53.893 C447.428,53.685 447.566,53.211 447.358,52.834 C447.151,52.457 446.677,52.319 446.3,52.527 C442.877,54.412 437.89,53.284 435.407,50.065 C435.145,49.724 434.655,49.662 434.315,49.923 C433.974,50.186 433.911,50.675 434.173,51.016 C436.154,53.584 439.374,55.014 442.523,55.014 L442.523,55.014 Z M440.45,35.519 C440.094,35.76 440.001,36.245 440.242,36.601 C440.483,36.956 440.967,37.049 441.324,36.809 C443.618,35.253 447.495,36.181 449.428,38.051 C449.579,38.198 449.774,38.27 449.97,38.27 C450.173,38.27 450.377,38.191 450.529,38.033 C450.828,37.724 450.821,37.231 450.511,36.932 C448.144,34.643 443.431,33.5 440.45,35.519 L440.45,35.519 Z M296.043,33.987 C295.613,33.987 295.264,34.335 295.264,34.766 C295.264,35.196 295.613,35.544 296.043,35.544 C299.149,35.544 300.196,36.799 300.196,40.515 L300.196,63.087 C300.196,63.517 300.545,63.866 300.975,63.866 C301.406,63.866 301.754,63.517 301.754,63.087 L301.754,40.515 C301.754,35.939 300.047,33.987 296.043,33.987 L296.043,33.987 Z M297.469,29.391 C291.625,29.391 287.384,33.162 287.384,38.356 L287.384,63.087 C287.384,63.517 287.733,63.866 288.163,63.866 C288.593,63.866 288.942,63.517 288.942,63.087 L288.942,38.356 C288.942,33.995 292.448,30.949 297.469,30.949 C304.689,30.949 305.767,35.838 305.767,38.751 L305.767,63.087 C305.767,63.517 306.115,63.866 306.546,63.866 C306.976,63.866 307.325,63.517 307.325,63.087 L307.325,38.751 C307.325,32.802 303.733,29.391 297.469,29.391 L297.469,29.391 Z" id="Fill-5" sketch:type="MSShapeGroup"></path>
            </g>
        </g>
    </g>
</svg>