<?xml version="1.0" encoding="UTF-8" standalone="no"?>
<svg width="65px" height="66px" viewBox="0 0 65 66" version="1.1" xmlns="http://www.w3.org/2000/svg" xmlns:xlink="http://www.w3.org/1999/xlink" xmlns:sketch="http://www.bohemiancoding.com/sketch/ns">
    <!-- Generator: Sketch 3.2.1 (9971) - http://www.bohemiancoding.com/sketch -->
    <title>rteArchives-symbol-green</title>
    <desc>Created with Sketch.</desc>
    <defs></defs>
    <g id="Page-1" stroke="none" stroke-width="1" fill="none" fill-rule="evenodd" sketch:type="MSPage">
        <g id="logo" sketch:type="MSArtboardGroup" transform="translate(-821.000000, -31.000000)" fill="#00A683">
            <g id="rteArchives-symbol-green" sketch:type="MSLayerGroup" transform="translate(821.000000, 31.000000)">
                <path d="M64.96,1.219 C64.96,1.098 64.934,0.975 64.875,0.86 C64.677,0.461 64.193,0.299 63.795,0.498 L1.324,31.655 C0.925,31.853 0.762,32.338 0.962,32.736 C1.161,33.135 1.645,33.297 2.043,33.098 L64.514,1.941 C64.797,1.8 64.96,1.515 64.96,1.219" id="Fill-1" sketch:type="MSShapeGroup"></path>
                <path d="M64.488,57.53 L26.542,38.516 C26.144,38.316 25.659,38.477 25.46,38.875 C25.26,39.276 25.421,39.758 25.819,39.957 L63.765,58.971 C64.163,59.171 64.648,59.01 64.847,58.612 C64.905,58.496 64.933,58.372 64.933,58.252 C64.933,57.956 64.77,57.671 64.488,57.53" id="Fill-2" sketch:type="MSShapeGroup"></path>
                <path d="M63.795,13.207 L12.965,38.556 C12.419,38.83 12.419,39.727 12.965,39.999 L63.764,65.328 C64.163,65.527 64.647,65.365 64.845,64.966 C65.044,64.57 64.883,64.084 64.484,63.885 L15.132,39.278 L63.348,15.231 L63.348,45.539 C63.348,45.984 63.709,46.345 64.154,46.345 C64.599,46.345 64.96,45.984 64.96,45.539 L64.96,13.928 C64.96,13.648 64.815,13.389 64.578,13.243 C64.341,13.096 64.044,13.081 63.795,13.207" id="Fill-3" sketch:type="MSShapeGroup"></path>
                <path d="M64.487,51.175 L32.903,35.355 C32.505,35.155 32.021,35.317 31.822,35.715 C31.621,36.113 31.784,36.597 32.182,36.796 L63.766,52.616 C64.163,52.816 64.648,52.654 64.847,52.256 C64.905,52.14 64.933,52.017 64.933,51.896 C64.933,51.601 64.77,51.316 64.487,51.175" id="Fill-4" sketch:type="MSShapeGroup"></path>
                <path d="M63.795,6.854 L6.599,35.38 C6.201,35.578 6.037,36.063 6.238,36.461 C6.436,36.86 6.92,37.022 7.319,36.823 L64.514,8.297 C64.797,8.155 64.96,7.871 64.96,7.574 C64.96,7.453 64.934,7.331 64.875,7.215 C64.677,6.817 64.193,6.654 63.795,6.854" id="Fill-5" sketch:type="MSShapeGroup"></path>
                <path d="M58.604,42.775 L58.604,22.308 C58.604,21.863 58.243,21.502 57.798,21.502 C57.353,21.502 56.992,21.863 56.992,22.308 L56.992,42.775 C56.992,43.221 57.353,43.581 57.798,43.581 C58.243,43.581 58.604,43.221 58.604,42.775" id="Fill-6" sketch:type="MSShapeGroup"></path>
                <path d="M52.248,39.973 L52.248,25.106 C52.248,24.661 51.888,24.3 51.443,24.3 C50.997,24.3 50.636,24.661 50.636,25.106 L50.636,39.973 C50.636,40.418 50.997,40.779 51.443,40.779 C51.888,40.779 52.248,40.418 52.248,39.973" id="Fill-7" sketch:type="MSShapeGroup"></path>
            </g>
        </g>
    </g>
</svg>