<?xml version="1.0" encoding="UTF-8" standalone="no"?>
<svg width="459px" height="66px" viewBox="0 0 459 66" version="1.1" xmlns="http://www.w3.org/2000/svg" xmlns:xlink="http://www.w3.org/1999/xlink" xmlns:sketch="http://www.bohemiancoding.com/sketch/ns">
    <!-- Generator: Sketch 3.2.1 (9971) - http://www.bohemiancoding.com/sketch -->
    <title>rteArchives-logo-white</title>
    <desc>Created with Sketch.</desc>
    <defs></defs>
    <g id="Page-1" stroke="none" stroke-width="1" fill="none" fill-rule="evenodd" sketch:type="MSPage">
        <g id="logo" sketch:type="MSArtboardGroup" transform="translate(-28.000000, -127.000000)" fill="#FFFFFF">
            <g id="rteArchives-logo-white" sketch:type="MSLayerGroup" transform="translate(28.000000, 127.000000)">
                <path d="M109.219,56.083 C99.971,56.083 92.184,49.467 90.774,40.11 L108.293,40.11 C110.229,40.11 114.444,40.522 114.444,40.522 L114.444,32.763 C114.444,32.763 110.309,33.073 107.998,33.073 L90.774,33.073 C92.52,23.901 100.057,17.572 109.219,17.572 C114.054,17.572 119.981,19.778 119.981,19.778 L120.096,11.618 C120.096,11.618 115.875,10.018 109.219,10.018 C93.81,10.018 80.332,21.788 80.332,36.779 C80.332,53 93.81,63.958 109.219,63.958 C116.461,63.958 120.787,62.022 120.787,62.022 L120.581,53.588 C120.58,53.588 115.24,56.083 109.219,56.083" id="Fill-1" sketch:type="MSShapeGroup"></path>
                <path d="M56.799,63.75 C56.798,63.75 57.387,59.837 57.387,56.414 L57.387,19.19 L54.863,19.19 C51.44,19.19 46.129,19.19 42.208,19.577 L41.875,10.933 L82.748,10.933 L82.542,19.577 C78.506,19.19 73.295,19.19 69.769,19.19 L66.663,19.19 L66.663,56.414 C66.663,59.837 67.349,63.75 67.349,63.75 L56.799,63.75" id="Fill-2" sketch:type="MSShapeGroup"></path>
                <path d="M120.171,6.614 C117.166,5.772 113.235,5.187 109.929,5.187 C100.951,5.187 93.22,7.91 86.768,13.648 L86.868,7.304 C93.71,2.651 101.457,0.563 109.929,0.563 C113.64,0.563 116.861,1.068 120.276,1.953 L120.171,6.614" id="Fill-3" sketch:type="MSShapeGroup"></path>
                <path d="M17.63,36.574 L10.008,36.574 L10.008,17.359 C10.008,17.359 13.703,17.265 18.135,17.265 C18.795,17.265 19.433,17.319 20.013,17.347 C27.107,17.925 30.035,21.788 30.035,26.439 C30.035,31.65 25.914,35.589 20.013,36.434 C19.25,36.539 18.437,36.574 17.63,36.574 M38.492,56.519 L24.296,42.83 C33.033,41.988 40.383,35.558 40.383,27.224 C40.383,18.352 35.262,10.5 20.013,9.868 C19.38,9.842 18.72,9.818 18.035,9.818 C7.482,9.818 0.24,10.323 0.24,10.323 C0.24,10.323 0.725,15.526 0.725,18.157 L0.725,56.519 C0.725,60.045 0.033,63.75 0.033,63.75 L10.688,63.75 C10.688,63.75 10.008,60.045 10.008,55.818 L10.008,40.215 L20.013,50.684 L25.076,55.926 C28.197,59.337 33.638,63.75 33.638,63.75 L47.722,63.75 C47.722,63.75 41.42,59.337 38.492,56.519" id="Fill-4" sketch:type="MSShapeGroup"></path>
                <path d="M167.709,26.066 C167.321,25.873 166.855,26.029 166.663,26.413 L148.29,63.081 C148.096,63.466 148.252,63.934 148.636,64.126 C148.749,64.182 148.868,64.209 148.985,64.209 C149.27,64.209 149.546,64.052 149.682,63.779 L168.055,27.112 C168.249,26.727 168.093,26.259 167.709,26.066 L167.709,26.066 Z M170.762,32.213 C170.378,32.02 169.91,32.177 169.717,32.561 L154.431,63.081 C154.238,63.466 154.393,63.934 154.778,64.126 C154.89,64.182 155.01,64.209 155.126,64.209 C155.411,64.209 155.687,64.051 155.823,63.778 L171.11,33.258 C171.303,32.874 171.147,32.406 170.762,32.213 L170.762,32.213 Z M171.086,7.841 C170.895,7.455 170.426,7.297 170.041,7.491 C169.656,7.683 169.499,8.151 169.692,8.536 L197.257,63.804 C197.393,64.078 197.668,64.235 197.955,64.235 C198.071,64.235 198.19,64.209 198.301,64.153 C198.687,63.962 198.844,63.494 198.651,63.109 L171.086,7.841 L171.086,7.841 Z M174.685,2.743 C174.494,2.358 174.026,2.2 173.64,2.394 C173.255,2.586 173.099,3.053 173.291,3.438 L203.398,63.804 C203.535,64.078 203.809,64.235 204.096,64.235 C204.213,64.235 204.331,64.209 204.443,64.153 C204.828,63.962 204.985,63.494 204.792,63.109 L174.685,2.743 L174.685,2.743 Z M163.161,57.314 C163.161,57.744 163.509,58.093 163.94,58.093 L183.717,58.093 C184.147,58.093 184.496,57.744 184.496,57.314 C184.496,56.884 184.147,56.535 183.717,56.535 L163.94,56.535 C163.509,56.535 163.161,56.884 163.161,57.314 L163.161,57.314 Z M181.013,50.394 L166.648,50.394 C166.217,50.394 165.869,50.742 165.869,51.173 C165.869,51.603 166.217,51.952 166.648,51.952 L181.013,51.952 C181.444,51.952 181.792,51.603 181.792,51.173 C181.792,50.742 181.444,50.394 181.013,50.394 L181.013,50.394 Z M168.016,13.992 C167.752,13.464 166.884,13.464 166.622,13.992 L142.147,63.08 C141.954,63.465 142.111,63.933 142.496,64.124 C142.879,64.316 143.349,64.161 143.541,63.775 L167.319,16.086 L190.555,62.677 L161.269,62.677 C160.838,62.677 160.491,63.026 160.491,63.456 C160.491,63.887 160.838,64.235 161.269,64.235 L191.815,64.235 C192.085,64.235 192.336,64.095 192.477,63.866 C192.619,63.637 192.633,63.35 192.512,63.109 L168.016,13.992 L168.016,13.992 Z M330.921,6.8 L319.908,6.8 C319.478,6.8 319.13,7.149 319.13,7.579 C319.13,8.009 319.478,8.358 319.908,8.358 L330.921,8.358 C331.351,8.358 331.7,8.009 331.7,7.579 C331.7,7.149 331.351,6.8 330.921,6.8 L330.921,6.8 Z M330.921,12.221 L319.908,12.221 C319.478,12.221 319.13,12.569 319.13,13 C319.13,13.43 319.478,13.778 319.908,13.778 L330.921,13.778 C331.351,13.778 331.7,13.43 331.7,13 C331.7,12.569 331.351,12.221 330.921,12.221 L330.921,12.221 Z M330.921,17.642 L319.908,17.642 C319.478,17.642 319.13,17.99 319.13,18.421 C319.13,18.851 319.478,19.2 319.908,19.2 L330.921,19.2 C331.351,19.2 331.7,18.851 331.7,18.421 C331.7,17.99 331.351,17.642 330.921,17.642 L330.921,17.642 Z M287.886,22.883 C288.316,22.883 288.665,22.534 288.665,22.104 L288.665,2.947 C288.665,2.517 288.316,2.168 287.886,2.168 C287.455,2.168 287.107,2.517 287.107,2.947 L287.107,22.104 C287.107,22.534 287.455,22.883 287.886,22.883 L287.886,22.883 Z M215.678,47.347 C215.248,47.347 214.899,47.696 214.899,48.126 L214.899,63.456 C214.899,63.887 215.248,64.235 215.678,64.235 C216.109,64.235 216.458,63.887 216.458,63.456 L216.458,48.126 C216.458,47.696 216.109,47.347 215.678,47.347 L215.678,47.347 Z M221.1,45.182 C220.669,45.182 220.32,45.531 220.32,45.961 L220.32,63.456 C220.32,63.887 220.669,64.235 221.1,64.235 C221.53,64.235 221.878,63.887 221.878,63.456 L221.878,45.961 C221.878,45.531 221.53,45.182 221.1,45.182 L221.1,45.182 Z M232.505,24.303 L209.968,33.304 C209.568,33.464 209.374,33.917 209.534,34.317 C209.655,34.622 209.948,34.807 210.257,34.807 C210.353,34.807 210.451,34.789 210.546,34.751 L233.082,25.75 C233.482,25.591 233.676,25.137 233.517,24.738 C233.358,24.338 232.903,24.146 232.505,24.303 L232.505,24.303 Z M232.505,29.724 L209.968,38.726 C209.568,38.885 209.374,39.338 209.534,39.738 C209.655,40.043 209.948,40.229 210.257,40.229 C210.353,40.229 210.451,40.21 210.546,40.172 L233.082,31.171 C233.482,31.012 233.676,30.559 233.517,30.159 C233.358,29.759 232.903,29.568 232.505,29.724 L232.505,29.724 Z M232.505,35.146 L209.968,44.147 C209.672,44.265 209.478,44.552 209.478,44.87 L209.478,63.456 C209.478,63.887 209.827,64.235 210.257,64.235 C210.687,64.235 211.036,63.887 211.036,63.456 L211.036,45.398 L233.082,36.593 C233.482,36.433 233.676,35.98 233.517,35.58 C233.358,35.181 232.903,34.989 232.505,35.146 L232.505,35.146 Z M257.394,36.109 C260.444,36.109 261.747,36.519 264.04,38.201 C264.387,38.457 264.874,38.381 265.129,38.034 C265.384,37.688 265.308,37.2 264.962,36.945 C262.399,35.066 260.773,34.551 257.394,34.551 C251.626,34.551 247.598,38.694 247.598,44.627 C247.598,50.561 251.626,54.704 257.394,54.704 C260.33,54.704 262.735,53.943 264.962,52.309 C265.308,52.055 265.384,51.567 265.129,51.22 C264.875,50.874 264.388,50.798 264.04,51.053 C262.094,52.481 259.983,53.146 257.394,53.146 C251.734,53.146 249.156,48.731 249.156,44.627 C249.156,40.524 251.734,36.109 257.394,36.109 L257.394,36.109 Z M268.101,33.659 C268.371,33.325 268.32,32.834 267.985,32.563 C265.112,30.238 261.766,29.155 257.453,29.155 C246.624,29.155 241.778,36.927 241.778,44.629 C241.778,52.332 246.624,60.104 257.453,60.104 C261.589,60.104 265.231,58.925 267.985,56.695 C268.32,56.424 268.371,55.934 268.101,55.599 C267.83,55.264 267.339,55.213 267.005,55.484 C263.879,58.015 260.086,58.546 257.453,58.546 C250.426,58.546 243.335,54.243 243.335,44.629 C243.335,35.016 250.426,30.713 257.453,30.713 C261.443,30.713 264.389,31.657 267.005,33.775 C267.339,34.046 267.83,33.993 268.101,33.659 L268.101,33.659 Z M271.076,29.275 C271.358,28.95 271.325,28.458 271,28.176 C267.768,25.368 262.853,23.759 257.514,23.759 C246.784,23.759 235.957,30.213 235.957,44.632 C235.957,59.05 246.784,65.504 257.514,65.504 C262.853,65.504 267.768,63.894 271,61.087 C271.325,60.804 271.358,60.313 271.076,59.987 C270.794,59.663 270.303,59.628 269.978,59.911 C267.068,62.437 262.41,63.946 257.514,63.946 C247.56,63.946 237.514,57.974 237.514,44.632 C237.514,31.289 247.56,25.316 257.514,25.316 C262.41,25.316 267.068,26.825 269.978,29.352 C270.303,29.635 270.794,29.601 271.076,29.275 L271.076,29.275 Z M319.921,25.223 C319.491,25.223 319.142,25.572 319.142,26.002 L319.142,63.499 C319.142,63.929 319.491,64.278 319.921,64.278 C320.351,64.278 320.7,63.929 320.7,63.499 L320.7,26.002 C320.7,25.572 320.351,25.223 319.921,25.223 L319.921,25.223 Z M325.343,25.223 C324.912,25.223 324.564,25.572 324.564,26.002 L324.564,63.499 C324.564,63.929 324.912,64.278 325.343,64.278 C325.773,64.278 326.122,63.929 326.122,63.499 L326.122,26.002 C326.122,25.572 325.773,25.223 325.343,25.223 L325.343,25.223 Z M330.764,25.223 C330.333,25.223 329.985,25.572 329.985,26.002 L329.985,63.499 C329.985,63.929 330.333,64.278 330.764,64.278 C331.194,64.278 331.543,63.929 331.543,63.499 L331.543,26.002 C331.543,25.572 331.194,25.223 330.764,25.223 L330.764,25.223 Z M338.1,25.613 C337.931,25.217 337.47,25.031 337.077,25.204 C336.682,25.372 336.499,25.831 336.668,26.226 L352.762,63.806 C352.888,64.101 353.175,64.279 353.477,64.279 C353.58,64.279 353.685,64.258 353.784,64.215 C354.18,64.046 354.362,63.588 354.193,63.192 L338.1,25.613 L338.1,25.613 Z M343.521,25.613 C343.352,25.217 342.892,25.031 342.498,25.204 C342.103,25.372 341.92,25.831 342.09,26.226 L358.183,63.806 C358.309,64.101 358.597,64.279 358.899,64.279 C359.001,64.279 359.106,64.258 359.206,64.215 C359.601,64.046 359.784,63.588 359.615,63.192 L343.521,25.613 L343.521,25.613 Z M380.993,25.206 C380.597,25.032 380.139,25.213 379.968,25.609 L364.337,61.559 L348.942,25.613 C348.773,25.217 348.312,25.031 347.92,25.204 C347.524,25.372 347.341,25.831 347.511,26.226 L363.578,63.745 C363.637,63.968 363.781,64.165 364.009,64.264 C364.11,64.308 364.216,64.33 364.32,64.33 C364.62,64.33 364.907,64.154 365.034,63.861 L381.396,26.231 C381.568,25.836 381.388,25.377 380.993,25.206 L380.993,25.206 Z M364.027,51.599 C364.128,51.643 364.234,51.664 364.339,51.664 C364.639,51.664 364.924,51.49 365.053,51.196 L375.975,26.232 C376.147,25.838 375.967,25.378 375.572,25.206 C375.18,25.034 374.721,25.212 374.547,25.608 L363.625,50.573 C363.452,50.966 363.633,51.426 364.027,51.599 L364.027,51.599 Z M361.365,45.382 C361.467,45.427 361.573,45.448 361.677,45.448 C361.977,45.448 362.263,45.273 362.391,44.979 L370.553,26.231 C370.725,25.836 370.545,25.377 370.15,25.206 C369.755,25.032 369.297,25.213 369.125,25.609 L360.963,44.357 C360.79,44.752 360.971,45.211 361.365,45.382 L361.365,45.382 Z M277.082,2.168 C276.651,2.168 276.302,2.517 276.302,2.947 L276.302,63.456 C276.302,63.887 276.651,64.235 277.082,64.235 C277.512,64.235 277.86,63.887 277.86,63.456 L277.86,2.947 C277.86,2.517 277.512,2.168 277.082,2.168 L277.082,2.168 Z M437.99,45.863 C438.473,46.058 438.959,46.254 439.479,46.471 C439.479,46.471 444.9,48.442 446.195,48.933 C448.891,49.954 450.657,50.863 450.657,54.067 C450.657,58.465 443.287,58.592 442.447,58.592 C438.96,58.592 434.18,57.539 431.225,54.585 C430.922,54.28 430.427,54.28 430.124,54.585 C429.818,54.889 429.818,55.381 430.124,55.686 C434.266,59.828 440.603,60.15 442.447,60.15 C446.953,60.15 452.215,58.557 452.215,54.067 C452.215,49.888 449.738,48.609 446.747,47.476 C445.453,46.985 440.048,45.021 440.046,45.021 C439.556,44.815 439.064,44.616 438.575,44.418 C434.13,42.621 430.292,41.069 430.292,35.408 C430.292,30.433 434.374,25.413 443.495,25.413 C449.054,25.413 452.761,26.652 455.518,29.43 C455.822,29.735 456.316,29.736 456.62,29.434 C456.925,29.13 456.928,28.637 456.624,28.332 C453.551,25.236 449.502,23.856 443.495,23.856 C436.386,23.856 428.734,27.471 428.734,35.408 C428.734,42.12 433.44,44.022 437.99,45.863 L437.99,45.863 Z M403.096,23.802 C390.667,23.802 382.316,32.23 382.316,44.773 C382.316,57.403 390.473,65.563 403.096,65.563 C407.761,65.563 411.704,64.974 415.788,62.098 C416.14,61.85 416.225,61.363 415.977,61.012 C415.729,60.66 415.244,60.577 414.892,60.823 C411.13,63.472 407.589,64.005 403.096,64.005 C391.42,64.005 383.874,56.456 383.874,44.773 C383.874,33.162 391.599,25.36 403.096,25.36 C414.564,25.36 421.411,32.617 421.411,44.773 L421.411,48.455 L400.037,48.455 C399.607,48.455 399.259,48.804 399.259,49.234 C399.259,49.664 399.607,50.013 400.037,50.013 L422.19,50.013 C422.62,50.013 422.969,49.664 422.969,49.234 L422.969,44.773 C422.969,31.838 415.354,23.802 403.096,23.802 L403.096,23.802 Z M282.503,28.2 C282.933,28.2 283.282,27.851 283.282,27.421 L283.282,2.947 C283.282,2.517 282.933,2.168 282.503,2.168 C282.073,2.168 281.724,2.517 281.724,2.947 L281.724,27.421 C281.724,27.851 282.073,28.2 282.503,28.2 L282.503,28.2 Z M297.254,23.805 C287.072,23.805 281.745,30.635 281.745,37.383 L281.745,63.446 C281.745,63.876 282.093,64.225 282.523,64.225 C282.954,64.225 283.302,63.876 283.302,63.446 L283.302,37.383 C283.302,31.41 288.095,25.362 297.254,25.362 C304.123,25.362 311.229,29.859 311.229,37.383 C311.229,45.863 311.194,62.23 311.188,63.427 L311.188,63.495 L311.189,63.495 C311.198,63.69 311.28,63.894 311.417,64.031 C311.562,64.178 311.761,64.284 311.967,64.284 C312.435,64.284 312.622,64.284 312.698,63.498 L312.746,63.497 L312.698,63.495 C312.699,63.483 312.701,63.469 312.702,63.456 L312.746,63.456 C312.746,63.383 312.736,63.311 312.717,63.244 C312.749,62.706 312.751,61.89 312.754,60.652 L312.767,53.715 C312.778,48.274 312.787,41.742 312.787,37.383 C312.787,28.883 304.89,23.805 297.254,23.805 L297.254,23.805 Z M417.069,45.998 C417.499,45.998 417.848,45.649 417.848,45.219 C417.848,39.924 416.357,35.819 413.415,33.016 C409.106,28.911 403.305,29.14 403.096,29.155 C394.013,29.155 387.67,35.578 387.67,44.773 C387.67,54.15 393.725,60.209 403.096,60.209 C405.49,60.209 411.296,59.899 413.504,57.028 C413.767,56.687 413.702,56.198 413.361,55.935 C413.018,55.671 412.53,55.738 412.268,56.078 C410.81,57.975 406.574,58.651 403.096,58.651 C394.672,58.651 389.228,53.203 389.228,44.773 C389.228,36.363 394.801,30.713 403.133,30.712 C403.184,30.714 408.537,30.511 412.352,34.156 C414.965,36.653 416.29,40.375 416.29,45.219 C416.29,45.649 416.639,45.998 417.069,45.998 L417.069,45.998 Z M399.504,44.773 C399.504,45.203 399.852,45.552 400.283,45.552 L411.721,45.552 C412.151,45.552 412.5,45.203 412.5,44.773 C412.5,41.36 411.536,38.737 409.634,36.974 C406.879,34.419 403.193,34.667 403.096,34.676 C397.26,34.676 393.024,38.922 393.024,44.773 C393.024,50.662 396.963,53.715 400.65,54.609 C400.712,54.623 400.773,54.63 400.834,54.63 C401.185,54.63 401.504,54.391 401.591,54.034 C401.691,53.617 401.435,53.195 401.017,53.093 C397.905,52.34 394.581,49.758 394.581,44.773 C394.581,39.745 398.083,36.234 403.155,36.232 C403.185,36.225 406.313,36.018 408.575,38.116 C410.005,39.441 410.793,41.417 410.923,43.994 L400.283,43.994 C399.852,43.994 399.504,44.343 399.504,44.773 L399.504,44.773 Z M448.297,42.113 L441.744,39.817 C438.646,38.875 437.072,38.013 437.072,35.919 C437.072,33.523 438.904,30.727 444.067,30.727 C447.903,30.727 450.543,31.656 452.626,33.739 C452.93,34.044 453.424,34.044 453.728,33.739 C454.033,33.435 454.033,32.942 453.728,32.637 C451.328,30.238 448.35,29.169 444.067,29.169 C438.158,29.169 435.514,32.559 435.514,35.919 C435.514,39.27 438.368,40.419 441.261,41.298 L447.768,43.578 C452.505,45.338 457.131,47.525 457.131,53.128 C457.131,60.02 451.353,63.974 441.281,63.974 C432.696,63.974 428.238,58.942 428.196,58.892 C427.915,58.567 427.424,58.53 427.096,58.809 C426.77,59.089 426.732,59.581 427.013,59.908 C427.21,60.137 431.948,65.531 441.281,65.531 C452.182,65.531 458.688,60.895 458.688,53.128 C458.688,46.525 453.332,43.982 448.297,42.113 L448.297,42.113 Z M442.523,55.373 C444.106,55.373 445.671,55.012 447.052,54.252 C447.428,54.044 447.565,53.57 447.358,53.193 C447.151,52.816 446.677,52.678 446.3,52.886 C442.877,54.771 437.89,53.643 435.407,50.424 C435.145,50.083 434.655,50.021 434.315,50.282 C433.974,50.545 433.911,51.034 434.173,51.375 C436.154,53.943 439.374,55.373 442.523,55.373 L442.523,55.373 Z M440.45,35.878 C440.094,36.119 440.001,36.604 440.242,36.96 C440.483,37.315 440.967,37.408 441.324,37.168 C443.618,35.612 447.495,36.54 449.428,38.41 C449.579,38.557 449.774,38.629 449.97,38.629 C450.173,38.629 450.377,38.55 450.529,38.392 C450.828,38.083 450.821,37.59 450.511,37.291 C448.144,35.002 443.431,33.859 440.45,35.878 L440.45,35.878 Z M296.043,34.346 C295.613,34.346 295.264,34.694 295.264,35.124 C295.264,35.555 295.613,35.903 296.043,35.903 C299.149,35.903 300.196,37.158 300.196,40.874 L300.196,63.446 C300.196,63.876 300.545,64.225 300.975,64.225 C301.406,64.225 301.754,63.876 301.754,63.446 L301.754,40.874 C301.754,36.298 300.047,34.346 296.043,34.346 L296.043,34.346 Z M297.469,29.75 C291.625,29.75 287.384,33.521 287.384,38.715 L287.384,63.446 C287.384,63.876 287.733,64.225 288.163,64.225 C288.593,64.225 288.942,63.876 288.942,63.446 L288.942,38.715 C288.942,34.354 292.448,31.308 297.469,31.308 C304.689,31.308 305.767,36.196 305.767,39.11 L305.767,63.446 C305.767,63.876 306.115,64.225 306.546,64.225 C306.976,64.225 307.325,63.876 307.325,63.446 L307.325,39.11 C307.325,33.161 303.733,29.75 297.469,29.75 L297.469,29.75 Z" id="Fill-5" sketch:type="MSShapeGroup"></path>
            </g>
        </g>
    </g>
</svg>