<?xml version="1.0" encoding="UTF-8" standalone="no"?>
<svg width="169px" height="65px" viewBox="0 0 169 65" version="1.1" xmlns="http://www.w3.org/2000/svg" xmlns:xlink="http://www.w3.org/1999/xlink" xmlns:sketch="http://www.bohemiancoding.com/sketch/ns">
    <!-- Generator: Sketch 3.2.1 (9971) - http://www.bohemiancoding.com/sketch -->
    <title>rteArchives-mark-green</title>
    <desc>Created with Sketch.</desc>
    <defs></defs>
    <g id="Page-1" stroke="none" stroke-width="1" fill="none" fill-rule="evenodd" sketch:type="MSPage">
        <g id="logo" sketch:type="MSArtboardGroup" transform="translate(-569.000000, -32.000000)" fill="#00A683">
            <path d="M641.129,70.4760739 L655.055,70.4760739 C656.593,70.4760739 659.944,70.8040739 659.944,70.8040739 L659.944,64.6360739 C659.944,64.6360739 656.657,64.8820739 654.82,64.8820739 L641.129,64.8820739 C642.517,57.5920739 648.507,52.5610739 655.79,52.5610739 C659.634,52.5610739 664.345,54.3140739 664.345,54.3140739 L664.436,47.8280739 C664.436,47.8280739 661.082,46.5560739 655.79,46.5560739 C643.542,46.5560739 632.829,55.9120739 632.829,67.8280739 C632.829,80.7220739 643.542,89.4320739 655.79,89.4320739 C661.547,89.4320739 664.985,87.8940739 664.985,87.8940739 L664.822,81.1890739 C664.822,81.1890739 660.577,83.1730739 655.79,83.1730739 C648.439,83.1730739 642.25,77.9130739 641.129,70.4760739 Z M624.433,53.8470739 C627.235,53.8470739 631.377,53.8470739 634.585,54.1550739 L634.749,47.2830739 L602.26,47.2830739 L602.524,54.1550739 C605.642,53.8470739 609.863,53.8470739 612.584,53.8470739 L614.59,53.8470739 L614.59,83.4350739 C614.59,86.1560739 614.123,89.2670739 614.123,89.2670739 L622.509,89.2670739 C622.508,89.2670739 621.964,86.1560739 621.964,83.4350739 L621.964,53.8470739 L624.433,53.8470739 L624.433,53.8470739 Z M588.287,72.6380739 C595.232,71.9680739 601.074,66.8580739 601.074,60.2330739 C601.074,53.1810739 597.003,46.9400739 584.882,46.4370739 C584.379,46.4170739 583.854,46.3970739 583.309,46.3970739 C574.922,46.3970739 569.165,46.7990739 569.165,46.7990739 C569.164,46.7990739 569.551,50.9350739 569.551,53.0260739 L569.551,83.5190739 C569.551,86.3220739 569,89.2670739 569,89.2670739 L577.47,89.2670739 C577.47,89.2670739 576.929,86.3220739 576.929,82.9620739 L576.929,70.5590739 L584.882,78.8810739 L588.907,83.0480739 C591.388,85.7590739 595.713,89.2670739 595.713,89.2670739 L606.907,89.2670739 C606.907,89.2670739 601.899,85.7590739 599.571,83.5190739 L588.287,72.6380739 L588.287,72.6380739 Z M582.987,67.6650739 L576.929,67.6650739 L576.929,52.3920739 C576.929,52.3920739 579.867,52.3160739 583.389,52.3160739 C583.914,52.3160739 584.421,52.3600739 584.882,52.3820739 C590.521,52.8410739 592.848,55.9120739 592.848,59.6090739 C592.848,63.7510739 589.573,66.8820739 584.882,67.5540739 C584.275,67.6370739 583.629,67.6650739 582.987,67.6650739 L582.987,67.6650739 Z M664.496,43.8510739 L664.58,40.1460739 C661.865,39.4420739 659.304,39.0410739 656.355,39.0410739 C649.621,39.0410739 643.463,40.7000739 638.024,44.3990739 L637.945,49.4420739 C643.073,44.8810739 649.219,42.7160739 656.355,42.7160739 C658.982,42.7160739 662.107,43.1810739 664.496,43.8510739 L664.496,43.8510739 Z M737.245,32.8060739 C737.245,32.6850739 737.219,32.5620739 737.161,32.4470739 C736.963,32.0480739 736.479,31.8860739 736.08,32.0850739 L673.61,63.2420739 C673.211,63.4400739 673.048,63.9250739 673.248,64.3230739 C673.446,64.7220739 673.93,64.8840739 674.329,64.6850739 L736.8,33.5280739 C737.082,33.3870739 737.245,33.1020739 737.245,32.8060739 L737.245,32.8060739 Z M736.773,82.7620739 L705.189,66.9420739 C704.791,66.7420739 704.306,66.9040739 704.107,67.3020739 C703.907,67.7000739 704.07,68.1840739 704.467,68.3830739 L736.052,84.2030739 C736.449,84.4030739 736.934,84.2410739 737.133,83.8430739 C737.191,83.7270739 737.218,83.6040739 737.218,83.4830739 C737.218,83.1880739 737.055,82.9030739 736.773,82.7620739 L736.773,82.7620739 Z M736.774,89.1170739 L698.828,70.1030739 C698.429,69.9030739 697.945,70.0640739 697.746,70.4620739 C697.546,70.8630739 697.707,71.3450739 698.105,71.5440739 L736.051,90.5580739 C736.449,90.7580739 736.934,90.5970739 737.133,90.1990739 C737.191,90.0830739 737.218,89.9590739 737.218,89.8390739 C737.218,89.5430739 737.056,89.2580739 736.774,89.1170739 L736.774,89.1170739 Z M736.08,38.4410739 L678.885,66.9670739 C678.486,67.1650739 678.322,67.6500739 678.523,68.0480739 C678.722,68.4470739 679.206,68.6090739 679.605,68.4100739 L736.8,39.8840739 C737.082,39.7420739 737.245,39.4580739 737.245,39.1610739 C737.245,39.0400739 737.219,38.9180739 737.161,38.8020739 C736.963,38.4040739 736.479,38.2410739 736.08,38.4410739 L736.08,38.4410739 Z M736.08,44.7940739 L685.251,70.1430739 C684.704,70.4170739 684.704,71.3140739 685.251,71.5860739 L736.05,96.9150739 C736.449,97.1140739 736.933,96.9520739 737.131,96.5530739 C737.329,96.1570739 737.169,95.6710739 736.77,95.4720739 L687.417,70.8650739 L735.634,46.8180739 L735.634,77.1260739 C735.634,77.5710739 735.994,77.9320739 736.44,77.9320739 C736.885,77.9320739 737.245,77.5710739 737.245,77.1260739 L737.245,45.5150739 C737.245,45.2350739 737.101,44.9760739 736.864,44.8300739 C736.627,44.6830739 736.329,44.6680739 736.08,44.7940739 L736.08,44.7940739 Z M724.534,71.5600739 L724.534,56.6930739 C724.534,56.2480739 724.173,55.8870739 723.728,55.8870739 C723.283,55.8870739 722.922,56.2480739 722.922,56.6930739 L722.922,71.5600739 C722.922,72.0050739 723.283,72.3660739 723.728,72.3660739 C724.173,72.3660739 724.534,72.0050739 724.534,71.5600739 L724.534,71.5600739 Z M730.889,74.3620739 L730.889,53.8950739 C730.889,53.4500739 730.529,53.0890739 730.083,53.0890739 C729.638,53.0890739 729.277,53.4500739 729.277,53.8950739 L729.277,74.3620739 C729.277,74.8080739 729.638,75.1680739 730.083,75.1680739 C730.529,75.1680739 730.889,74.8080739 730.889,74.3620739 L730.889,74.3620739 Z" id="rteArchives-mark-green" sketch:type="MSShapeGroup"></path>
        </g>
    </g>
</svg>