<?xml version="1.0" encoding="UTF-8" standalone="no"?>
<svg width="65px" height="66px" viewBox="0 0 65 66" version="1.1" xmlns="http://www.w3.org/2000/svg" xmlns:xlink="http://www.w3.org/1999/xlink" xmlns:sketch="http://www.bohemiancoding.com/sketch/ns">
    <!-- Generator: Sketch 3.2.1 (9971) - http://www.bohemiancoding.com/sketch -->
    <title>rteArchives-symbol-white</title>
    <desc>Created with Sketch.</desc>
    <defs></defs>
    <g id="Page-1" stroke="none" stroke-width="1" fill="none" fill-rule="evenodd" sketch:type="MSPage">
        <g id="logo" sketch:type="MSArtboardGroup" transform="translate(-821.000000, -127.000000)" fill="#FFFFFF">
            <g id="rteArchives-symbol-white" sketch:type="MSLayerGroup" transform="translate(821.000000, 127.000000)">
                <path d="M65,1.219 C65,1.098 64.974,0.975 64.916,0.86 C64.717,0.461 64.233,0.299 63.834,0.498 L1.365,31.655 C0.966,31.853 0.802,32.338 1.003,32.736 C1.201,33.135 1.685,33.297 2.084,33.098 L64.554,1.941 C64.837,1.8 65,1.515 65,1.219" id="Fill-1" sketch:type="MSShapeGroup"></path>
                <path d="M64.529,57.53 L26.582,38.516 C26.183,38.316 25.7,38.477 25.5,38.875 C25.3,39.276 25.462,39.758 25.86,39.957 L63.805,58.971 C64.204,59.171 64.688,59.01 64.887,58.612 C64.945,58.496 64.973,58.372 64.973,58.252 C64.973,57.956 64.811,57.671 64.529,57.53" id="Fill-2" sketch:type="MSShapeGroup"></path>
                <path d="M63.834,13.207 L13.005,38.556 C12.458,38.83 12.458,39.727 13.005,39.999 L63.804,65.328 C64.203,65.527 64.687,65.365 64.886,64.966 C65.084,64.57 64.923,64.084 64.524,63.885 L15.172,39.278 L63.388,15.231 L63.388,45.539 C63.388,45.984 63.749,46.345 64.194,46.345 C64.64,46.345 65,45.984 65,45.539 L65,13.928 C65,13.648 64.855,13.389 64.618,13.243 C64.381,13.096 64.084,13.081 63.834,13.207" id="Fill-3" sketch:type="MSShapeGroup"></path>
                <path d="M64.527,51.175 L32.943,35.355 C32.545,35.155 32.061,35.317 31.862,35.715 C31.662,36.113 31.824,36.597 32.222,36.796 L63.806,52.616 C64.204,52.816 64.688,52.654 64.887,52.256 C64.945,52.14 64.973,52.017 64.973,51.896 C64.973,51.601 64.81,51.316 64.527,51.175" id="Fill-4" sketch:type="MSShapeGroup"></path>
                <path d="M63.834,6.854 L6.639,35.38 C6.241,35.578 6.077,36.063 6.278,36.461 C6.476,36.86 6.96,37.022 7.359,36.823 L64.554,8.297 C64.837,8.155 65,7.871 65,7.574 C65,7.453 64.974,7.331 64.916,7.215 C64.717,6.817 64.233,6.654 63.834,6.854" id="Fill-5" sketch:type="MSShapeGroup"></path>
                <path d="M58.643,42.775 L58.643,22.308 C58.643,21.863 58.283,21.502 57.838,21.502 C57.393,21.502 57.032,21.863 57.032,22.308 L57.032,42.775 C57.032,43.221 57.393,43.581 57.838,43.581 C58.283,43.581 58.643,43.221 58.643,42.775" id="Fill-6" sketch:type="MSShapeGroup"></path>
                <path d="M52.288,39.973 L52.288,25.106 C52.288,24.661 51.928,24.3 51.482,24.3 C51.037,24.3 50.677,24.661 50.677,25.106 L50.677,39.973 C50.677,40.418 51.037,40.779 51.482,40.779 C51.928,40.779 52.288,40.418 52.288,39.973" id="Fill-7" sketch:type="MSShapeGroup"></path>
            </g>
        </g>
    </g>
</svg>