<?xml version="1.0" encoding="UTF-8" standalone="no"?>
<svg width="32px" height="32px" viewBox="0 0 32 32" version="1.1" xmlns="http://www.w3.org/2000/svg" xmlns:xlink="http://www.w3.org/1999/xlink" xmlns:sketch="http://www.bohemiancoding.com/sketch/ns">
    <!-- Generator: Sketch 3.2.1 (9971) - http://www.bohemiancoding.com/sketch -->
    <title>social-TW-white</title>
    <desc>Created with Sketch.</desc>
    <defs></defs>
    <g id="Page-1" stroke="none" stroke-width="1" fill="none" fill-rule="evenodd" sketch:type="MSPage">
        <g id="social" sketch:type="MSArtboardGroup" transform="translate(-101.000000, -43.000000)">
            <g id="social-TW-white" sketch:type="MSLayerGroup" transform="translate(101.000000, 43.000000)">
                <path d="M16,0 C7.164,0 0,7.164 0,16 C0,24.838 7.164,31.999 16,31.999 C24.835,31.999 31.999,24.838 31.999,16 C31.999,7.164 24.835,0 16,0" id="Fill-1" fill="#FFFFFF" sketch:type="MSShapeGroup"></path>
                <path d="M22.362,13.093 C22.369,13.234 22.372,13.374 22.372,13.517 C22.372,17.854 19.07,22.856 13.032,22.856 C11.178,22.856 9.453,22.313 8,21.382 C8.257,21.411 8.519,21.427 8.783,21.427 C10.322,21.427 11.736,20.903 12.859,20.022 C11.424,19.995 10.211,19.046 9.795,17.743 C9.994,17.78 10.199,17.802 10.411,17.802 C10.711,17.802 11.001,17.761 11.275,17.687 C9.775,17.384 8.642,16.058 8.642,14.468 L8.642,14.427 C9.086,14.673 9.592,14.819 10.13,14.837 C9.249,14.249 8.67,13.243 8.67,12.105 C8.67,11.503 8.832,10.939 9.114,10.454 C10.733,12.441 13.152,13.747 15.88,13.884 C15.824,13.644 15.795,13.394 15.795,13.136 C15.795,11.323 17.265,9.855 19.078,9.855 C20.021,9.855 20.875,10.253 21.473,10.89 C22.221,10.743 22.924,10.47 23.558,10.093 C23.312,10.861 22.793,11.503 22.115,11.909 C22.779,11.831 23.412,11.653 24,11.394 C23.56,12.052 23.004,12.63 22.362,13.093" id="Fill-2" fill="#38A4DC" sketch:type="MSShapeGroup"></path>
            </g>
        </g>
    </g>
</svg>