<?xml version="1.0" encoding="UTF-8" standalone="no"?>
<svg width="32px" height="32px" viewBox="0 0 32 32" version="1.1" xmlns="http://www.w3.org/2000/svg" xmlns:xlink="http://www.w3.org/1999/xlink" xmlns:sketch="http://www.bohemiancoding.com/sketch/ns">
    <!-- Generator: Sketch 3.2.1 (9971) - http://www.bohemiancoding.com/sketch -->
    <title>social-TW-colour</title>
    <desc>Created with Sketch.</desc>
    <defs></defs>
    <g id="Page-1" stroke="none" stroke-width="1" fill="none" fill-rule="evenodd" sketch:type="MSPage">
        <g id="social" sketch:type="MSArtboardGroup" transform="translate(-101.000000, -99.000000)">
            <g id="social-TW-colour" sketch:type="MSLayerGroup" transform="translate(101.000000, 99.000000)">
                <path d="M16,0.001 C7.165,0.001 0,7.165 0,16 C0,24.838 7.165,32 16,32 C24.835,32 32,24.838 32,16 C32,7.165 24.835,0.001 16,0.001" id="Fill-1" fill="#38A4DC" sketch:type="MSShapeGroup"></path>
                <path d="M22.362,13.093 C22.369,13.234 22.372,13.374 22.372,13.517 C22.372,17.855 19.071,22.856 13.033,22.856 C11.178,22.856 9.454,22.313 8.001,21.382 C8.258,21.411 8.519,21.427 8.784,21.427 C10.323,21.427 11.737,20.903 12.86,20.023 C11.424,19.995 10.212,19.046 9.795,17.743 C9.995,17.78 10.2,17.802 10.412,17.802 C10.711,17.802 11.002,17.761 11.276,17.687 C9.776,17.384 8.643,16.058 8.643,14.468 L8.643,14.427 C9.087,14.673 9.593,14.82 10.131,14.837 C9.249,14.249 8.67,13.243 8.67,12.105 C8.67,11.503 8.833,10.939 9.115,10.455 C10.733,12.441 13.153,13.747 15.88,13.884 C15.825,13.644 15.795,13.394 15.795,13.136 C15.795,11.324 17.265,9.855 19.079,9.855 C20.022,9.855 20.875,10.253 21.474,10.89 C22.221,10.744 22.924,10.47 23.558,10.093 C23.312,10.861 22.793,11.503 22.115,11.909 C22.779,11.831 23.412,11.654 24,11.394 C23.561,12.052 23.004,12.63 22.362,13.093" id="Fill-2" fill="#FFFFFF" sketch:type="MSShapeGroup"></path>
            </g>
        </g>
    </g>
</svg>