<?xml version="1.0" encoding="UTF-8" standalone="no"?>
<svg width="32px" height="32px" viewBox="0 0 32 32" version="1.1" xmlns="http://www.w3.org/2000/svg" xmlns:xlink="http://www.w3.org/1999/xlink" xmlns:sketch="http://www.bohemiancoding.com/sketch/ns">
    <!-- Generator: Sketch 3.2.1 (9971) - http://www.bohemiancoding.com/sketch -->
    <title>social-GP-colour</title>
    <desc>Created with Sketch.</desc>
    <defs></defs>
    <g id="Page-1" stroke="none" stroke-width="1" fill="none" fill-rule="evenodd" sketch:type="MSPage">
        <g id="social" sketch:type="MSArtboardGroup" transform="translate(-146.000000, -99.000000)">
            <g id="social-GP-colour" sketch:type="MSLayerGroup" transform="translate(146.000000, 99.000000)">
                <path d="M16,0.001 C7.165,0.001 0,7.165 0,16 C0,24.838 7.165,32 16,32 C24.837,32 32,24.838 32,16 C32,7.165 24.837,0.001 16,0.001" id="Fill-1" fill="#D64A38" sketch:type="MSShapeGroup"></path>
                <path d="M23.994,11.483 L21.818,11.483 L21.818,13.657 L20.73,13.657 L20.73,11.483 L18.556,11.483 L18.556,10.395 L20.73,10.395 L20.73,8.219 L21.818,8.219 L21.818,10.395 L23.994,10.395 L23.994,11.483" id="Fill-2" fill="#FFFFFF" sketch:type="MSShapeGroup"></path>
                <path d="M16.272,17.156 C15.834,16.828 14.883,16.156 14.883,15.705 C14.883,15.176 15.033,14.916 15.83,14.293 C16.646,13.656 17.223,12.817 17.223,11.774 C17.223,10.637 16.759,9.608 15.885,9.108 L17.123,9.108 L18.177,8 L13.461,8 C11.069,8 9.074,9.766 9.074,11.707 C9.074,13.69 10.384,15.272 12.635,15.272 C12.791,15.272 12.944,15.262 13.092,15.252 C12.945,15.531 12.842,15.844 12.842,16.172 C12.842,16.723 13.145,17.037 13.52,17.4 C13.237,17.4 12.963,17.408 12.664,17.408 C9.924,17.408 8.006,19.295 8.006,21.104 C8.006,22.887 10.319,24 13.058,24 C16.182,24 18.103,22.229 18.103,20.445 C18.103,19.018 17.794,18.299 16.272,17.156 L16.272,17.156 Z M10.848,11.676 C10.628,10.008 11.481,8.731 12.751,8.768 C14.022,8.807 15.109,10.176 15.328,11.844 C15.547,13.514 14.816,14.588 13.546,14.551 C12.275,14.512 11.066,13.346 10.848,11.676 L10.848,11.676 Z M13.048,23.213 C11.154,23.213 9.787,22.014 9.787,20.574 C9.787,19.162 11.391,17.945 13.285,17.967 C13.726,17.971 14.139,18.041 14.512,18.162 C15.541,18.877 16.369,19.324 16.578,20.139 C16.617,20.303 16.639,20.473 16.639,20.647 C16.639,22.088 15.711,23.213 13.048,23.213 L13.048,23.213 Z" id="Fill-3" fill="#FFFFFF" sketch:type="MSShapeGroup"></path>
            </g>
        </g>
    </g>
</svg>