<?xml version="1.0" encoding="UTF-8" standalone="no"?>
<svg width="33px" height="33px" viewBox="0 0 33 33" version="1.1" xmlns="http://www.w3.org/2000/svg" xmlns:xlink="http://www.w3.org/1999/xlink" xmlns:sketch="http://www.bohemiancoding.com/sketch/ns">
    <!-- Generator: Sketch 3.2.1 (9971) - http://www.bohemiancoding.com/sketch -->
    <title>social-SHARE-white</title>
    <desc>Created with Sketch.</desc>
    <defs></defs>
    <g id="Page-1" stroke="none" stroke-width="1" fill="none" fill-rule="evenodd" sketch:type="MSPage">
        <g id="social" sketch:type="MSArtboardGroup" transform="translate(-283.000000, -43.000000)">
            <g id="social-SHARE-white" sketch:type="MSLayerGroup" transform="translate(283.000000, 43.000000)">
                <path d="M16.797,0.252 C7.962,0.252 0.797,7.416 0.797,16.252 C0.797,25.09 7.962,32.252 16.797,32.252 C25.634,32.252 32.797,25.09 32.797,16.252 C32.797,7.416 25.634,0.252 16.797,0.252" id="Fill-1" fill="#FFFFFF" sketch:type="MSShapeGroup"></path>
                <path id="Fill-2" fill="#FFFFFF" sketch:type="MSShapeGroup"></path>
                <path id="Stroke-3" stroke="#00A683" stroke-width="2" stroke-linecap="round" stroke-linejoin="round" sketch:type="MSShapeGroup"></path>
                <path d="M21.66,24.299 C22.004,24.299 22.338,24.122 22.524,23.805 C22.803,23.328 22.644,22.715 22.167,22.436 L14.646,18.027 C14.819,17.521 14.933,16.988 14.933,16.424 C14.933,15.86 14.819,15.327 14.646,14.821 L22.167,10.412 C22.644,10.133 22.803,9.52 22.524,9.043 C22.245,8.567 21.632,8.407 21.156,8.686 L13.636,13.094 C12.72,12.076 11.407,11.424 9.933,11.424 C7.177,11.424 4.933,13.667 4.933,16.424 C4.933,19.18 7.177,21.424 9.933,21.424 C11.407,21.424 12.72,20.771 13.635,19.753 L21.156,24.161 C21.315,24.255 21.488,24.299 21.66,24.299 L21.66,24.299 Z M9.933,19.424 C8.279,19.424 6.933,18.078 6.933,16.424 C6.933,14.769 8.279,13.424 9.933,13.424 C11.587,13.424 12.933,14.769 12.933,16.424 C12.933,18.078 11.587,19.424 9.933,19.424 L9.933,19.424 Z M19.281,7.689 C19.729,7.156 20.355,6.794 21.042,6.67 C21.831,6.53 22.627,6.702 23.285,7.159 C23.944,7.616 24.384,8.302 24.526,9.09 C24.819,10.719 23.734,12.282 22.106,12.576 C21.562,12.673 21.202,13.193 21.3,13.737 C21.387,14.221 21.808,14.56 22.283,14.56 C22.342,14.56 22.401,14.555 22.461,14.544 C25.174,14.054 26.984,11.449 26.494,8.736 C26.257,7.421 25.523,6.278 24.426,5.516 C23.329,4.754 22.001,4.465 20.687,4.702 C19.542,4.908 18.499,5.512 17.751,6.401 C17.395,6.823 17.449,7.454 17.871,7.81 C18.293,8.165 18.924,8.111 19.281,7.689 L19.281,7.689 Z M22.453,18.387 C21.909,18.289 21.39,18.652 21.293,19.196 C21.196,19.74 21.559,20.259 22.103,20.356 C22.788,20.478 23.414,20.839 23.865,21.372 C24.933,22.635 24.775,24.532 23.512,25.6 C22.9,26.117 22.123,26.366 21.324,26.299 C20.526,26.232 19.801,25.858 19.284,25.247 C18.927,24.825 18.296,24.772 17.874,25.128 C17.453,25.485 17.4,26.116 17.757,26.538 C18.619,27.558 19.827,28.181 21.158,28.292 C21.3,28.304 21.442,28.31 21.583,28.31 C22.762,28.31 23.892,27.898 24.803,27.127 C26.909,25.347 27.173,22.186 25.392,20.08 C24.641,19.192 23.597,18.591 22.453,18.387 L22.453,18.387 Z" id="Fill-4" fill="#00A683" sketch:type="MSShapeGroup"></path>
            </g>
        </g>
    </g>
</svg>