<?xml version="1.0" encoding="UTF-8" standalone="no"?>
<svg width="32px" height="33px" viewBox="0 0 32 33" version="1.1" xmlns="http://www.w3.org/2000/svg" xmlns:xlink="http://www.w3.org/1999/xlink" xmlns:sketch="http://www.bohemiancoding.com/sketch/ns">
    <!-- Generator: Sketch 3.2.1 (9971) - http://www.bohemiancoding.com/sketch -->
    <title>social-WA-colour</title>
    <desc>Created with Sketch.</desc>
    <defs></defs>
    <g id="Page-1" stroke="none" stroke-width="1" fill="none" fill-rule="evenodd" sketch:type="MSPage">
        <g id="social" sketch:type="MSArtboardGroup" transform="translate(-237.000000, -98.000000)">
            <g id="social-WA-colour" sketch:type="MSLayerGroup" transform="translate(237.000000, 98.000000)">
                <path d="M16,0.5 C7.163,0.5 0,7.664 0,16.5 C0,25.337 7.163,32.5 16,32.5 C24.837,32.5 32,25.337 32,16.5 C32,7.664 24.837,0.5 16,0.5" id="Fill-1" fill="#00974E" sketch:type="MSShapeGroup"></path>
                <path d="M24.728,12.558 C24.34,11.644 23.809,10.817 23.149,10.072 C22.44,9.272 21.621,8.614 20.689,8.093 C19.819,7.609 18.893,7.272 17.916,7.091 C17.499,7.013 17.073,6.993 16.651,6.945 C16.625,6.942 16.599,6.928 16.572,6.919 L15.724,6.919 C15.693,6.928 15.663,6.944 15.631,6.945 C14.892,6.976 14.172,7.108 13.465,7.318 C12.528,7.597 11.658,8.013 10.854,8.569 C10.048,9.128 9.346,9.796 8.748,10.575 C7.918,11.655 7.354,12.857 7.052,14.182 C6.83,15.152 6.77,16.134 6.862,17.128 C6.99,18.509 7.403,19.795 8.097,20.994 C8.129,21.05 8.139,21.14 8.118,21.201 C7.59,22.786 7.056,24.37 6.524,25.954 C6.51,25.995 6.507,26.039 6.5,26.081 L6.58,26.081 C6.879,25.981 7.178,25.877 7.478,25.781 C8.576,25.428 9.674,25.077 10.772,24.726 C11.024,24.646 11.278,24.572 11.526,24.483 C11.623,24.447 11.694,24.471 11.773,24.515 C12.518,24.917 13.306,25.207 14.132,25.388 C15.104,25.601 16.087,25.657 17.08,25.559 C18.572,25.411 19.952,24.938 21.207,24.12 C23.127,22.87 24.44,21.146 25.095,18.952 C25.74,16.786 25.612,14.644 24.728,12.558 L24.728,12.558 Z M22.323,20.999 C21.225,22.45 19.772,23.387 18.009,23.829 C16.825,24.126 15.634,24.131 14.442,23.862 C13.561,23.663 12.741,23.32 11.982,22.834 C11.902,22.783 11.836,22.775 11.749,22.803 C10.852,23.092 9.955,23.379 9.057,23.666 C9.013,23.681 8.967,23.689 8.892,23.708 C9.047,23.25 9.19,22.821 9.335,22.391 C9.497,21.908 9.663,21.424 9.818,20.938 C9.837,20.883 9.823,20.796 9.79,20.748 C9.184,19.877 8.761,18.927 8.545,17.888 C8.24,16.426 8.343,14.993 8.858,13.591 C9.196,12.674 9.693,11.853 10.345,11.124 C11.392,9.955 12.672,9.165 14.191,8.761 C14.642,8.641 15.098,8.567 15.562,8.528 C16.748,8.429 17.892,8.61 18.995,9.042 C19.802,9.357 20.534,9.801 21.192,10.369 C22.522,11.516 23.402,12.938 23.757,14.659 C24.237,16.982 23.756,19.107 22.323,20.999 L22.323,20.999 Z M20.686,18.293 C20.436,18.173 20.19,18.045 19.94,17.927 C19.565,17.751 19.193,17.572 18.812,17.411 C18.583,17.314 18.488,17.363 18.337,17.557 C18.113,17.846 17.883,18.131 17.647,18.411 C17.511,18.573 17.396,18.596 17.214,18.526 C15.855,17.995 14.814,17.09 14.071,15.837 C13.932,15.605 13.948,15.543 14.12,15.334 C14.316,15.092 14.502,14.841 14.681,14.585 C14.776,14.448 14.76,14.293 14.695,14.141 C14.562,13.829 14.433,13.515 14.301,13.201 C14.173,12.896 14.049,12.589 13.914,12.288 C13.855,12.156 13.764,12.045 13.601,12.037 C13.433,12.029 13.265,12.027 13.098,12.024 C12.855,12.021 12.635,12.089 12.457,12.259 C11.901,12.792 11.602,13.438 11.607,14.215 C11.609,14.777 11.782,15.291 12.035,15.783 C12.335,16.371 12.734,16.894 13.143,17.408 C13.741,18.162 14.425,18.826 15.218,19.377 C15.899,19.85 16.657,20.152 17.434,20.413 C17.844,20.551 18.259,20.67 18.769,20.684 C18.865,20.672 19.033,20.661 19.195,20.625 C19.755,20.501 20.233,20.224 20.59,19.777 C20.851,19.451 20.884,19.041 20.903,18.636 C20.911,18.468 20.833,18.363 20.686,18.293 L20.686,18.293 Z" id="Fill-2" fill="#FFFFFF" sketch:type="MSShapeGroup"></path>
            </g>
        </g>
    </g>
</svg>