<?xml version="1.0" encoding="UTF-8" standalone="no"?>
<svg width="32px" height="32px" viewBox="0 0 32 32" version="1.1" xmlns="http://www.w3.org/2000/svg" xmlns:xlink="http://www.w3.org/1999/xlink" xmlns:sketch="http://www.bohemiancoding.com/sketch/ns">
    <!-- Generator: Sketch 3.2.1 (9971) - http://www.bohemiancoding.com/sketch -->
    <title>social-FB-white</title>
    <desc>Created with Sketch.</desc>
    <defs></defs>
    <g id="Page-1" stroke="none" stroke-width="1" fill="none" fill-rule="evenodd" sketch:type="MSPage">
        <g id="social" sketch:type="MSArtboardGroup" transform="translate(-56.000000, -43.000000)">
            <g id="social-FB-white" sketch:type="MSLayerGroup" transform="translate(56.000000, 43.000000)">
                <path d="M16,0 C7.165,0 0.001,7.164 0.001,16 C0.001,24.838 7.165,31.999 16,31.999 C24.837,31.999 32,24.838 32,16 C32,7.164 24.837,0 16,0" id="Fill-1" fill="#FFFFFF" sketch:type="MSShapeGroup"></path>
                <path d="M19.428,16.006 L17.186,16.006 L17.186,24 L13.863,24 L13.863,16.006 L12.284,16.006 L12.284,13.182 L13.863,13.182 L13.863,11.354 C13.863,10.045 14.484,8 17.216,8 L19.677,8.01 L19.677,10.752 L17.891,10.752 C17.6,10.752 17.186,10.897 17.186,11.522 L17.186,13.182 L19.719,13.182 L19.428,16.006" id="Fill-2" fill="#375896" sketch:type="MSShapeGroup"></path>
            </g>
        </g>
    </g>
</svg>