<?xml version="1.0" encoding="UTF-8" standalone="no"?>
<svg width="32px" height="32px" viewBox="0 0 32 32" version="1.1" xmlns="http://www.w3.org/2000/svg" xmlns:xlink="http://www.w3.org/1999/xlink" xmlns:sketch="http://www.bohemiancoding.com/sketch/ns">
    <!-- Generator: Sketch 3.2.1 (9971) - http://www.bohemiancoding.com/sketch -->
    <title>social-WA-white</title>
    <desc>Created with Sketch.</desc>
    <defs></defs>
    <g id="Page-1" stroke="none" stroke-width="1" fill="none" fill-rule="evenodd" sketch:type="MSPage">
        <g id="social" sketch:type="MSArtboardGroup" transform="translate(-237.000000, -43.000000)">
            <g id="social-WA-white" sketch:type="MSLayerGroup" transform="translate(237.000000, 43.000000)">
                <path d="M16,0 C7.163,0 0,7.164 0,16 C0,24.837 7.163,32 16,32 C24.837,32 32,24.837 32,16 C32,7.164 24.837,0 16,0" id="Fill-1" fill="#FFFFFF" sketch:type="MSShapeGroup"></path>
                <path d="M24.728,12.058 C24.34,11.144 23.809,10.317 23.149,9.572 C22.44,8.772 21.621,8.114 20.689,7.593 C19.819,7.109 18.893,6.772 17.916,6.591 C17.499,6.514 17.073,6.493 16.651,6.445 C16.625,6.442 16.599,6.428 16.572,6.419 L15.724,6.419 C15.693,6.428 15.663,6.444 15.631,6.445 C14.892,6.476 14.172,6.608 13.465,6.818 C12.528,7.097 11.658,7.513 10.854,8.069 C10.048,8.628 9.346,9.296 8.748,10.075 C7.918,11.155 7.354,12.357 7.052,13.682 C6.83,14.652 6.77,15.634 6.862,16.628 C6.99,18.009 7.403,19.295 8.097,20.494 C8.129,20.55 8.139,20.64 8.118,20.701 C7.59,22.286 7.056,23.87 6.524,25.454 C6.51,25.495 6.507,25.539 6.5,25.581 L6.58,25.581 C6.879,25.481 7.178,25.377 7.478,25.281 C8.576,24.928 9.674,24.577 10.772,24.226 C11.024,24.146 11.278,24.072 11.526,23.983 C11.623,23.947 11.694,23.971 11.773,24.015 C12.518,24.417 13.306,24.707 14.132,24.888 C15.104,25.101 16.087,25.157 17.08,25.059 C18.572,24.911 19.952,24.438 21.207,23.62 C23.127,22.37 24.44,20.646 25.095,18.452 C25.74,16.286 25.612,14.144 24.728,12.058 L24.728,12.058 Z M22.323,20.499 C21.225,21.95 19.772,22.887 18.009,23.329 C16.825,23.626 15.634,23.631 14.442,23.362 C13.561,23.163 12.741,22.82 11.982,22.334 C11.902,22.283 11.836,22.275 11.749,22.303 C10.852,22.592 9.955,22.879 9.057,23.166 C9.013,23.181 8.967,23.189 8.892,23.209 C9.047,22.75 9.19,22.321 9.335,21.891 C9.497,21.408 9.663,20.924 9.818,20.438 C9.837,20.383 9.823,20.296 9.79,20.248 C9.184,19.377 8.761,18.427 8.545,17.388 C8.24,15.926 8.343,14.493 8.858,13.091 C9.196,12.174 9.693,11.353 10.345,10.625 C11.392,9.455 12.672,8.665 14.191,8.261 C14.642,8.141 15.098,8.067 15.562,8.028 C16.748,7.929 17.892,8.111 18.995,8.542 C19.802,8.857 20.534,9.301 21.192,9.869 C22.522,11.016 23.402,12.438 23.757,14.159 C24.237,16.482 23.756,18.608 22.323,20.499 L22.323,20.499 Z M20.686,17.794 C20.436,17.673 20.19,17.546 19.94,17.427 C19.565,17.251 19.193,17.072 18.812,16.911 C18.583,16.814 18.488,16.863 18.337,17.057 C18.113,17.346 17.883,17.631 17.647,17.911 C17.511,18.073 17.396,18.096 17.214,18.026 C15.855,17.495 14.814,16.59 14.071,15.337 C13.932,15.105 13.948,15.043 14.12,14.834 C14.316,14.592 14.502,14.341 14.681,14.085 C14.776,13.948 14.76,13.793 14.695,13.641 C14.562,13.329 14.433,13.015 14.301,12.701 C14.173,12.397 14.049,12.089 13.914,11.788 C13.855,11.656 13.764,11.545 13.601,11.537 C13.433,11.529 13.265,11.527 13.098,11.524 C12.855,11.521 12.635,11.589 12.457,11.759 C11.901,12.292 11.602,12.938 11.607,13.715 C11.609,14.277 11.782,14.791 12.035,15.283 C12.335,15.871 12.734,16.394 13.143,16.908 C13.741,17.662 14.425,18.326 15.218,18.877 C15.899,19.35 16.657,19.652 17.434,19.914 C17.844,20.051 18.259,20.17 18.769,20.184 C18.865,20.172 19.033,20.161 19.195,20.125 C19.755,20.001 20.233,19.724 20.59,19.277 C20.851,18.951 20.884,18.541 20.903,18.136 C20.911,17.968 20.833,17.863 20.686,17.794 L20.686,17.794 Z" id="Fill-2" fill="#00974E" sketch:type="MSShapeGroup"></path>
            </g>
        </g>
    </g>
</svg>