<?xml version="1.0" encoding="UTF-8" standalone="no"?>
<svg width="33px" height="33px" viewBox="0 0 33 33" version="1.1" xmlns="http://www.w3.org/2000/svg" xmlns:xlink="http://www.w3.org/1999/xlink" xmlns:sketch="http://www.bohemiancoding.com/sketch/ns">
    <!-- Generator: Sketch 3.2.1 (9971) - http://www.bohemiancoding.com/sketch -->
    <title>social-SHARE-colour</title>
    <desc>Created with Sketch.</desc>
    <defs></defs>
    <g id="Page-1" stroke="none" stroke-width="1" fill="none" fill-rule="evenodd" sketch:type="MSPage">
        <g id="social" sketch:type="MSArtboardGroup" transform="translate(-283.000000, -98.000000)">
            <g id="social-SHARE-colour" sketch:type="MSLayerGroup" transform="translate(283.000000, 98.000000)">
                <path d="M16.797,0.75 C7.962,0.75 0.797,7.914 0.797,16.75 C0.797,25.588 7.962,32.75 16.797,32.75 C25.634,32.75 32.797,25.588 32.797,16.75 C32.797,7.914 25.634,0.75 16.797,0.75" id="Fill-1" fill="#00A683" sketch:type="MSShapeGroup"></path>
                <path d="M21.66,24.797 C22.004,24.797 22.338,24.62 22.524,24.303 C22.803,23.826 22.644,23.213 22.167,22.934 L14.646,18.525 C14.819,18.019 14.933,17.486 14.933,16.922 C14.933,16.358 14.819,15.825 14.646,15.319 L22.167,10.91 C22.644,10.631 22.803,10.018 22.524,9.541 C22.245,9.065 21.632,8.905 21.156,9.185 L13.636,13.592 C12.72,12.575 11.407,11.922 9.933,11.922 C7.177,11.922 4.933,14.165 4.933,16.922 C4.933,19.679 7.177,21.922 9.933,21.922 C11.407,21.922 12.72,21.269 13.635,20.252 L21.156,24.66 C21.315,24.753 21.488,24.797 21.66,24.797 L21.66,24.797 Z M9.933,19.922 C8.279,19.922 6.933,18.576 6.933,16.922 C6.933,15.267 8.279,13.922 9.933,13.922 C11.587,13.922 12.933,15.267 12.933,16.922 C12.933,18.576 11.587,19.922 9.933,19.922 L9.933,19.922 Z M19.281,8.187 C19.729,7.654 20.355,7.293 21.042,7.168 C21.831,7.028 22.627,7.2 23.285,7.657 C23.944,8.114 24.384,8.8 24.526,9.589 C24.819,11.217 23.734,12.78 22.106,13.074 C21.562,13.172 21.202,13.692 21.3,14.235 C21.387,14.719 21.808,15.058 22.283,15.058 C22.342,15.058 22.401,15.053 22.461,15.042 C25.174,14.552 26.984,11.947 26.494,9.234 C26.257,7.919 25.523,6.776 24.426,6.014 C23.329,5.252 22.001,4.963 20.687,5.2 C19.542,5.406 18.499,6.01 17.751,6.899 C17.395,7.321 17.449,7.952 17.871,8.308 C18.293,8.663 18.924,8.609 19.281,8.187 L19.281,8.187 Z M22.453,18.885 C21.909,18.787 21.39,19.15 21.293,19.694 C21.196,20.238 21.559,20.757 22.103,20.854 C22.788,20.976 23.414,21.337 23.865,21.87 C24.933,23.133 24.775,25.03 23.512,26.098 C22.9,26.615 22.123,26.864 21.324,26.797 C20.526,26.73 19.801,26.356 19.284,25.745 C18.927,25.323 18.296,25.27 17.874,25.627 C17.453,25.983 17.4,26.614 17.757,27.036 C18.619,28.056 19.827,28.679 21.158,28.79 C21.3,28.802 21.442,28.808 21.583,28.808 C22.762,28.808 23.892,28.396 24.803,27.625 C26.909,25.845 27.173,22.684 25.392,20.578 C24.641,19.69 23.597,19.089 22.453,18.885 L22.453,18.885 Z" id="Fill-4" fill="#FFFFFF" sketch:type="MSShapeGroup"></path>
            </g>
        </g>
    </g>
</svg>