<?xml version="1.0" encoding="UTF-8" standalone="no"?>
<svg width="476px" height="65px" viewBox="0 0 476 65" version="1.1" xmlns="http://www.w3.org/2000/svg" xmlns:xlink="http://www.w3.org/1999/xlink" xmlns:sketch="http://www.bohemiancoding.com/sketch/ns">
    <!-- Generator: Sketch 3.2.1 (9971) - http://www.bohemiancoding.com/sketch -->
    <title>Imported Layers</title>
    <desc>Created with Sketch.</desc>
    <defs></defs>
    <g id="Page-1" stroke="none" stroke-width="1" fill="none" fill-rule="evenodd" sketch:type="MSPage">
        <g id="Desktop" sketch:type="MSArtboardGroup" transform="translate(-222.000000, -136.000000)" fill="#FFFFFF">
            <g id="Imported-Layers" sketch:type="MSLayerGroup" transform="translate(222.000000, 136.000000)">
                <path d="M111.888,56.615 C102.475,56.615 94.55,49.257 93.114,40.458 L110.946,40.458 C112.916,40.458 116.608,40.674 116.608,40.674 L116.608,32.776 C116.608,32.776 112.998,33.125 110.646,33.125 L93.114,33.125 C94.891,24.326 102.562,17.33 111.888,17.33 C116.811,17.33 122.843,19.567 122.843,19.567 L122.96,11.257 C122.959,11.257 118.664,9.626 111.888,9.626 C96.204,9.626 82.485,21.606 82.485,36.864 C82.485,53.376 96.204,64.528 111.888,64.528 C119.259,64.528 123.662,62.558 123.662,62.558 L123.454,54.024 C123.454,54.024 118.017,56.615 111.888,56.615" id="Fill-1" sketch:type="MSShapeGroup"></path>
                <path d="M58.532,63.923 C58.532,63.923 59.413,60.333 59.413,56.849 L59.413,18.46 L56.561,18.46 C53.077,18.46 47.671,18.996 43.68,19.39 L43.341,11.127 L84.944,11.127 L84.735,19.39 C80.627,18.996 75.322,18.46 71.734,18.46 L68.212,18.46 L68.212,56.849 C68.212,60.333 69.27,63.923 69.27,63.923 L58.532,63.923" id="Fill-2" sketch:type="MSShapeGroup"></path>
                <path d="M123.037,6.16 C119.978,5.302 115.976,4.707 112.611,4.707 C103.473,4.707 95.603,7.478 89.037,13.32 L89.138,6.862 C96.103,2.125 103.988,0 112.611,0 C116.388,0 119.666,0.514 123.143,1.415 L123.037,6.16" id="Fill-3" sketch:type="MSShapeGroup"></path>
                <path d="M18.35,36.058 L11.017,36.058 L11.017,17.097 C11.017,17.097 14.722,17 19.233,17 C19.905,17 20.525,17.056 21.116,17.084 C28.337,17.672 31.303,21.605 31.303,26.339 C31.303,31.643 27.102,35.354 21.095,36.214 C20.318,36.321 19.484,36.058 18.662,36.058 M39.897,56.759 L25.447,42.924 C34.341,42.067 41.822,35.572 41.822,27.089 C41.822,18.058 36.609,10.091 21.088,9.446 C20.444,9.421 19.771,9.408 19.074,9.408 C8.333,9.408 0.61,9.928 0.61,9.928 C0.61,9.928 0.751,15.231 0.751,17.909 L0.751,56.956 L0.751,63.923 L11.596,63.923 C11.596,63.923 11.017,60.545 11.017,56.243 L11.017,40.361 L21.144,51.018 L26.27,56.156 C29.447,59.627 34.957,63.923 34.957,63.923 L49.292,63.923 C49.292,63.923 42.878,59.627 39.897,56.759" id="Fill-4" sketch:type="MSShapeGroup"></path>
                <path d="M150.817,63.619 C150.706,63.619 150.594,63.594 150.488,63.541 C150.127,63.359 149.98,62.919 150.162,62.557 L168.899,25.163 C169.08,24.802 169.521,24.653 169.883,24.837 C170.245,25.018 170.392,25.458 170.21,25.821 L151.473,63.214 C151.344,63.47 151.085,63.619 150.817,63.619" id="Fill-5" sketch:type="MSShapeGroup"></path>
                <path d="M157.08,63.619 C156.969,63.619 156.857,63.594 156.752,63.541 C156.39,63.359 156.243,62.919 156.424,62.557 L172.013,31.433 C172.195,31.071 172.635,30.926 172.997,31.105 C173.359,31.287 173.506,31.728 173.325,32.09 L157.736,63.214 C157.607,63.47 157.349,63.619 157.08,63.619" id="Fill-6" sketch:type="MSShapeGroup"></path>
                <path d="M200.755,63.646 C200.486,63.646 200.227,63.497 200.099,63.24 L171.988,6.877 C171.807,6.515 171.954,6.075 172.316,5.894 C172.679,5.712 173.119,5.861 173.3,6.223 L201.411,62.585 C201.591,62.948 201.444,63.388 201.082,63.568 C200.977,63.622 200.865,63.646 200.755,63.646" id="Fill-7" sketch:type="MSShapeGroup"></path>
                <path d="M207.018,63.646 C206.749,63.646 206.49,63.497 206.362,63.24 L175.658,1.679 C175.478,1.316 175.624,0.876 175.987,0.695 C176.349,0.512 176.79,0.663 176.97,1.024 L207.674,62.585 C207.855,62.948 207.707,63.388 207.345,63.568 C207.24,63.622 207.128,63.646 207.018,63.646" id="Fill-8" sketch:type="MSShapeGroup"></path>
                <path d="M185.536,56.59 L166.47,56.59 C166.066,56.59 165.737,56.262 165.737,55.857 C165.737,55.451 166.066,55.123 166.47,55.123 L185.536,55.123 C185.941,55.123 186.269,55.451 186.269,55.857 C186.269,56.262 185.941,56.59 185.536,56.59" id="Fill-9" sketch:type="MSShapeGroup"></path>
                <path d="M184.069,50.724 L169.404,50.724 C168.999,50.724 168.67,50.396 168.67,49.99 C168.67,49.585 168.999,49.257 169.404,49.257 L184.069,49.257 C184.474,49.257 184.803,49.585 184.803,49.99 C184.803,50.396 184.474,50.724 184.069,50.724" id="Fill-10" sketch:type="MSShapeGroup"></path>
                <path d="M144.65,63.36 C144.54,63.36 144.429,63.336 144.325,63.283 C143.962,63.104 143.814,62.663 143.993,62.301 L168.906,12.114 C169.029,11.865 169.283,11.707 169.562,11.707 C169.846,11.71 170.095,11.863 170.219,12.113 L195.15,62.074 C195.263,62.301 195.251,62.232 195.118,62.448 C194.984,62.664 194.748,62.456 194.494,62.456 L163.538,62.456 C163.133,62.456 162.804,62.128 162.804,61.723 C162.804,61.317 163.133,60.99 163.538,60.99 L193.309,60.99 L169.564,13.746 L145.307,62.783 C145.179,63.042 144.92,63.36 144.65,63.36" id="Fill-11" sketch:type="MSShapeGroup"></path>
                <path d="M339.524,5.261 L327.791,5.261 C327.386,5.261 327.058,4.933 327.058,4.527 C327.058,4.122 327.386,3.794 327.791,3.794 L339.524,3.794 C339.928,3.794 340.256,4.122 340.256,4.527 C340.256,4.933 339.928,5.261 339.524,5.261" id="Fill-12" sketch:type="MSShapeGroup"></path>
                <path d="M339.524,11.127 L327.791,11.127 C327.386,11.127 327.058,10.799 327.058,10.394 C327.058,9.988 327.386,9.66 327.791,9.66 L339.524,9.66 C339.928,9.66 340.256,9.988 340.256,10.394 C340.256,10.799 339.928,11.127 339.524,11.127" id="Fill-13" sketch:type="MSShapeGroup"></path>
                <path d="M339.524,16.993 L327.791,16.993 C327.386,16.993 327.058,16.665 327.058,16.26 C327.058,15.855 327.386,15.527 327.791,15.527 L339.524,15.527 C339.928,15.527 340.256,15.855 340.256,16.26 C340.256,16.665 339.928,16.993 339.524,16.993" id="Fill-14" sketch:type="MSShapeGroup"></path>
                <path d="M294.794,21.338 C294.389,21.338 294.06,21.01 294.06,20.605 L294.06,1.54 C294.06,1.134 294.389,0.806 294.794,0.806 C295.199,0.806 295.527,1.134 295.527,1.54 L295.527,20.605 C295.527,21.01 295.199,21.338 294.794,21.338" id="Fill-15" sketch:type="MSShapeGroup"></path>
                <path d="M219.999,63.868 C219.595,63.868 219.267,63.54 219.267,63.135 L219.267,47.003 C219.267,46.597 219.595,46.269 219.999,46.269 C220.405,46.269 220.733,46.597 220.733,47.003 L220.733,63.135 C220.733,63.54 220.405,63.868 219.999,63.868" id="Fill-16" sketch:type="MSShapeGroup"></path>
                <path d="M225.866,63.868 C225.461,63.868 225.133,63.54 225.133,63.135 L225.133,45.536 C225.133,45.131 225.461,44.803 225.866,44.803 C226.271,44.803 226.599,45.131 226.599,45.536 L226.599,63.135 C226.599,63.54 226.271,63.868 225.866,63.868" id="Fill-17" sketch:type="MSShapeGroup"></path>
                <path d="M214.768,33.634 C214.477,33.634 214.201,33.459 214.087,33.173 C213.937,32.797 214.119,32.37 214.495,32.22 L237.479,23.041 C237.855,22.891 238.282,23.074 238.432,23.45 C238.583,23.826 238.399,24.252 238.023,24.403 L215.04,33.582 C214.95,33.617 214.858,33.634 214.768,33.634" id="Fill-18" sketch:type="MSShapeGroup"></path>
                <path d="M214.768,39.163 C214.477,39.163 214.201,38.988 214.087,38.702 C213.937,38.326 214.119,37.899 214.495,37.749 L237.479,28.57 C237.855,28.417 238.282,28.603 238.432,28.979 C238.583,29.355 238.399,29.781 238.023,29.932 L215.04,39.111 C214.95,39.146 214.858,39.163 214.768,39.163" id="Fill-19" sketch:type="MSShapeGroup"></path>
                <path d="M214.133,63.868 C213.728,63.868 213.4,63.54 213.4,63.135 L213.4,43.958 C213.4,43.656 213.585,43.386 213.864,43.275 L236.848,34.208 C237.224,34.062 237.65,34.245 237.799,34.621 C237.948,34.998 237.763,35.424 237.386,35.573 L214.867,44.457 L214.867,63.135 C214.867,63.54 214.538,63.868 214.133,63.868" id="Fill-20" sketch:type="MSShapeGroup"></path>
                <path d="M262.838,53.926 C256.992,53.926 252.909,49.725 252.909,43.711 C252.909,37.696 256.992,33.496 262.838,33.496 C266.268,33.496 267.919,34.018 270.519,35.925 C270.846,36.165 270.916,36.624 270.676,36.951 C270.437,37.277 269.978,37.348 269.651,37.108 C267.301,35.383 265.964,34.962 262.838,34.962 C258.762,34.962 254.376,37.7 254.376,43.711 C254.376,49.722 258.762,52.459 262.838,52.459 C265.492,52.459 267.657,51.777 269.651,50.313 C269.978,50.074 270.437,50.145 270.676,50.471 C270.916,50.797 270.846,51.256 270.519,51.496 C268.26,53.154 265.819,53.926 262.838,53.926" id="Fill-21" sketch:type="MSShapeGroup"></path>
                <path d="M262.899,59.432 C254.972,59.432 246.973,54.572 246.973,43.713 C246.973,32.853 254.972,27.993 262.899,27.993 C267.282,27.993 270.682,29.093 273.6,31.456 C273.915,31.711 273.964,32.172 273.709,32.487 C273.454,32.801 272.992,32.849 272.677,32.596 C269.999,30.427 266.983,29.459 262.899,29.459 C255.702,29.459 248.44,33.867 248.44,43.713 C248.44,53.559 255.702,57.966 262.899,57.966 C265.593,57.966 269.476,57.422 272.677,54.83 C272.992,54.577 273.454,54.625 273.709,54.939 C273.964,55.253 273.915,55.715 273.6,55.97 C270.802,58.235 267.103,59.432 262.899,59.432" id="Fill-22" sketch:type="MSShapeGroup"></path>
                <path d="M262.961,64.94 C252.048,64.94 241.037,58.377 241.037,43.715 C241.037,29.052 252.048,22.49 262.961,22.49 C268.391,22.49 273.389,24.126 276.673,26.98 C276.979,27.246 277.012,27.709 276.746,28.015 C276.48,28.32 276.017,28.351 275.712,28.087 C272.734,25.501 267.967,23.956 262.961,23.956 C252.778,23.956 242.503,30.066 242.503,43.715 C242.503,57.364 252.778,63.473 262.961,63.473 C267.967,63.473 272.734,61.929 275.712,59.342 C276.017,59.078 276.48,59.109 276.746,59.415 C277.012,59.72 276.979,60.184 276.673,60.449 C273.389,63.303 268.391,64.94 262.961,64.94" id="Fill-23" sketch:type="MSShapeGroup"></path>
                <path d="M328.524,63.868 C328.119,63.868 327.791,63.54 327.791,63.135 L327.791,25.004 C327.791,24.599 328.119,24.271 328.524,24.271 C328.929,24.271 329.257,24.599 329.257,25.004 L329.257,63.135 C329.257,63.54 328.929,63.868 328.524,63.868" id="Fill-24" sketch:type="MSShapeGroup"></path>
                <path d="M334.39,63.868 C333.985,63.868 333.657,63.54 333.657,63.135 L333.657,25.004 C333.657,24.599 333.985,24.271 334.39,24.271 C334.795,24.271 335.123,24.599 335.123,25.004 L335.123,63.135 C335.123,63.54 334.795,63.868 334.39,63.868" id="Fill-25" sketch:type="MSShapeGroup"></path>
                <path d="M340.256,63.868 C339.852,63.868 339.524,63.54 339.524,63.135 L339.524,25.004 C339.524,24.599 339.852,24.271 340.256,24.271 C340.662,24.271 340.99,24.599 340.99,25.004 L340.99,63.135 C340.99,63.54 340.662,63.868 340.256,63.868" id="Fill-26" sketch:type="MSShapeGroup"></path>
                <path d="M365.225,63.69 C364.94,63.69 364.669,63.523 364.55,63.245 L348.138,24.921 C347.978,24.549 348.151,24.118 348.524,23.959 C348.896,23.798 349.327,23.971 349.486,24.344 L365.898,62.668 C366.058,63.04 365.885,63.471 365.513,63.63 C365.418,63.671 365.321,63.69 365.225,63.69" id="Fill-27" sketch:type="MSShapeGroup"></path>
                <path d="M370.753,63.69 C370.468,63.69 370.198,63.523 370.079,63.245 L353.666,24.921 C353.507,24.549 353.68,24.118 354.052,23.959 C354.424,23.798 354.855,23.971 355.014,24.344 L371.427,62.668 C371.587,63.04 371.414,63.471 371.041,63.63 C370.947,63.671 370.849,63.69 370.753,63.69" id="Fill-28" sketch:type="MSShapeGroup"></path>
                <path d="M376.282,63.69 C375.997,63.69 375.726,63.523 375.607,63.245 L359.195,24.921 C359.036,24.549 359.208,24.118 359.58,23.959 C359.953,23.798 360.384,23.971 360.543,24.344 L376.955,62.668 C377.115,63.04 376.943,63.471 376.57,63.63 C376.476,63.671 376.378,63.69 376.282,63.69" id="Fill-29" sketch:type="MSShapeGroup"></path>
                <path d="M376.281,63.741 C376.183,63.741 376.084,63.722 375.989,63.68 C375.617,63.519 375.447,63.087 375.609,62.716 L392.295,24.341 C392.456,23.969 392.888,23.798 393.259,23.96 C393.631,24.121 393.801,24.554 393.639,24.925 L376.954,63.3 C376.833,63.576 376.564,63.741 376.281,63.741" id="Fill-30" sketch:type="MSShapeGroup"></path>
                <path d="M376.3,50.825 C376.202,50.825 376.103,50.806 376.007,50.764 C375.636,50.601 375.466,50.169 375.629,49.798 L386.767,24.339 C386.929,23.967 387.361,23.797 387.732,23.961 C388.103,24.124 388.272,24.555 388.11,24.926 L376.972,50.385 C376.852,50.661 376.583,50.825 376.3,50.825" id="Fill-31" sketch:type="MSShapeGroup"></path>
                <path d="M373.586,44.486 C373.488,44.486 373.388,44.467 373.293,44.425 C372.922,44.264 372.752,43.832 372.914,43.46 L381.237,24.34 C381.399,23.968 381.831,23.797 382.202,23.96 C382.574,24.122 382.744,24.554 382.582,24.926 L374.258,44.046 C374.138,44.322 373.868,44.486 373.586,44.486" id="Fill-32" sketch:type="MSShapeGroup"></path>
                <path d="M283.061,63.868 C282.656,63.868 282.328,63.54 282.328,63.135 L282.328,1.54 C282.328,1.134 282.656,0.806 283.061,0.806 C283.466,0.806 283.794,1.134 283.794,1.54 L283.794,63.135 C283.794,63.54 283.466,63.868 283.061,63.868" id="Fill-33" sketch:type="MSShapeGroup"></path>
                <path d="M458.888,59.48 C457.013,59.48 450.573,59.153 446.365,54.945 C446.078,54.659 446.078,54.195 446.364,53.908 C446.651,53.622 447.115,53.622 447.401,53.908 C450.428,56.935 455.32,58.014 458.888,58.014 C459.751,58.014 467.322,57.883 467.322,53.337 C467.322,50.031 465.505,49.095 462.732,48.044 C461.412,47.544 455.883,45.535 455.882,45.534 C455.355,45.314 454.86,45.114 454.368,44.915 C449.745,43.045 444.965,41.112 444.965,34.309 C444.965,28.664 449.657,22.588 459.958,22.588 C466.065,22.588 470.181,23.991 473.303,27.136 C473.588,27.423 473.587,27.887 473.299,28.173 C473.011,28.457 472.547,28.456 472.262,28.169 C469.437,25.324 465.643,24.055 459.958,24.055 C450.614,24.055 446.431,29.205 446.431,34.309 C446.431,40.123 450.364,41.714 454.918,43.555 C455.416,43.757 455.918,43.959 456.417,44.169 C456.419,44.169 461.932,46.173 463.253,46.672 C466.281,47.82 468.788,49.114 468.788,53.337 C468.788,57.871 463.455,59.48 458.888,59.48" id="Fill-34" sketch:type="MSShapeGroup"></path>
                <path d="M418.795,65 C405.979,65 397.699,56.702 397.699,43.859 C397.699,31.303 406.418,22.534 418.902,22.534 C431.452,22.534 439.248,30.705 439.248,43.859 L439.248,47.736 C439.248,48.141 438.92,47.791 438.515,47.791 L415.784,47.791 C415.379,47.791 415.05,47.463 415.05,47.057 C415.05,46.652 415.379,46.324 415.784,46.324 L437.782,46.324 L437.782,43.859 C437.782,31.424 430.724,24 418.902,24 C407.097,24 399.165,31.981 399.165,43.859 C399.165,55.81 406.87,63.533 418.795,63.533 C423.778,63.533 427.289,62.493 430.913,59.942 C431.243,59.709 431.701,59.788 431.934,60.118 C432.167,60.45 432.088,60.908 431.757,61.14 C427.914,63.846 424.038,65 418.795,65" id="Fill-35" sketch:type="MSShapeGroup"></path>
                <path d="M288.927,27.204 C288.522,27.204 288.194,26.876 288.194,26.471 L288.194,1.54 C288.194,1.134 288.522,0.806 288.927,0.806 C289.333,0.806 289.661,1.134 289.661,1.54 L289.661,26.471 C289.661,26.876 289.333,27.204 288.927,27.204" id="Fill-36" sketch:type="MSShapeGroup"></path>
                <path d="M288.927,63.868 C288.522,63.868 288.194,63.54 288.194,63.135 L288.194,36.323 C288.194,29.486 293.546,22.565 303.776,22.565 C313.913,22.565 319.151,29.684 319.151,36.382 C319.151,44.822 318.991,61.67 318.991,62.988 L318.991,63.029 L318.991,63.057 C318.991,63.059 318.991,62.456 318.991,62.456 L319.223,62.456 C319.215,63.923 319.255,63.139 319.125,63.269 C318.988,63.406 318.859,63.354 318.665,63.354 C318.234,63.354 318.115,62.456 318.038,62.456 L317.99,62.456 C317.99,62.456 318.001,62.619 318.022,62.553 C317.985,62.014 317.981,61.325 317.976,60.008 L317.951,52.99 C317.933,47.426 317.916,40.789 317.916,36.343 C317.916,30.357 312.96,24.013 303.776,24.013 C294.509,24.013 289.661,30.215 289.661,36.323 L289.661,63.135 C289.661,63.54 289.333,63.868 288.927,63.868" id="Fill-37" sketch:type="MSShapeGroup"></path>
                <path d="M418.759,59.54 C409.239,59.54 403.088,53.385 403.088,43.859 C403.088,34.369 409.385,27.993 418.759,27.993 C418.972,27.982 424.864,27.746 429.238,31.914 C432.226,34.76 433.741,38.932 433.741,44.314 C433.741,44.72 433.412,45.048 433.008,45.048 C432.603,45.048 432.274,44.72 432.274,44.314 C432.274,39.35 430.913,35.534 428.227,32.976 C424.303,29.237 418.85,29.455 418.794,29.459 C410.263,29.46 404.554,35.247 404.554,43.859 C404.554,52.493 410.13,58.073 418.759,58.073 C423.371,58.073 426.885,57.084 428.16,55.426 C428.408,55.105 428.868,55.045 429.189,55.291 C429.51,55.538 429.57,55.999 429.323,56.32 C427.088,59.226 421.191,59.54 418.759,59.54" id="Fill-38" sketch:type="MSShapeGroup"></path>
                <path d="M416.399,53.589 C416.342,53.589 416.284,53.583 416.226,53.568 C412.501,52.665 408.521,49.606 408.521,43.729 C408.521,37.781 412.916,33.297 418.746,33.297 C418.823,33.285 422.555,32.91 425.357,35.423 C427.301,37.167 428.287,39.49 428.287,42.997 C428.287,43.402 427.958,43.391 427.553,43.391 L415.784,43.391 C415.379,43.391 415.05,43.063 415.05,42.658 C415.05,42.252 415.379,41.924 415.784,41.924 L426.804,41.924 C426.682,40.458 425.867,37.511 424.378,36.176 C422.058,34.094 418.857,34.585 418.825,34.589 C413.671,34.594 409.987,38.449 409.987,43.644 C409.987,49.97 415.027,51.726 416.571,52.101 C416.965,52.196 417.206,52.614 417.111,53.007 C417.03,53.343 416.73,53.589 416.399,53.589" id="Fill-39" sketch:type="MSShapeGroup"></path>
                <path d="M457.699,64.967 C448.209,64.967 443.395,59.488 443.195,59.254 C442.932,58.948 442.967,58.486 443.273,58.221 C443.579,57.958 444.042,57.991 444.307,58.297 C444.352,58.35 448.913,63.5 457.699,63.5 C468.01,63.5 473.924,59.447 473.924,52.379 C473.924,46.626 469.187,44.385 464.336,42.584 L457.698,40.257 C454.769,39.367 451.879,38.206 451.879,34.83 C451.879,31.433 454.558,28.007 460.54,28.007 C464.889,28.007 467.915,29.092 470.349,31.527 C470.636,31.814 470.636,32.278 470.349,32.564 C470.063,32.851 469.598,32.851 469.312,32.564 C467.175,30.427 464.469,29.473 460.54,29.473 C455.23,29.473 453.346,32.359 453.346,34.83 C453.346,37.004 454.965,37.894 458.154,38.863 L464.834,41.204 C469.948,43.104 475.39,45.685 475.39,52.379 C475.39,60.261 468.777,64.967 457.699,64.967" id="Fill-40" sketch:type="MSShapeGroup"></path>
                <path d="M458.965,54.609 C455.772,54.609 452.507,53.159 450.499,50.554 C450.252,50.233 450.311,49.772 450.632,49.525 C450.953,49.276 451.413,49.337 451.661,49.659 C454.21,52.968 459.332,54.125 462.847,52.187 C463.201,51.993 463.647,52.12 463.843,52.476 C464.038,52.83 463.909,53.276 463.554,53.472 C462.156,54.242 460.569,54.609 458.965,54.609" id="Fill-41" sketch:type="MSShapeGroup"></path>
                <path d="M466.56,37.533 C466.376,37.533 466.193,37.464 466.05,37.327 C464.063,35.405 460.074,34.45 457.71,36.053 C457.374,36.279 456.918,36.193 456.691,35.857 C456.464,35.522 456.551,35.065 456.886,34.838 C459.903,32.795 464.674,33.954 467.07,36.273 C467.361,36.554 467.368,37.019 467.087,37.31 C466.943,37.459 466.751,37.533 466.56,37.533" id="Fill-42" sketch:type="MSShapeGroup"></path>
                <path d="M306.526,63.868 C306.121,63.868 305.792,63.54 305.792,63.135 L305.792,41.35 C305.792,35.971 304.075,34.869 301.497,34.869 C301.091,34.869 300.763,34.541 300.763,34.136 C300.763,33.731 301.091,33.403 301.497,33.403 C306.661,33.403 307.259,37.938 307.259,41.35 L307.259,63.135 C307.259,63.54 306.93,63.868 306.526,63.868" id="Fill-43" sketch:type="MSShapeGroup"></path>
                <path d="M312.392,63.868 C311.987,63.868 311.659,63.54 311.659,63.135 L311.659,38.084 C311.659,32.689 309.059,30.066 303.71,30.066 C298.739,30.066 295.527,33.055 295.527,37.681 L295.527,63.135 C295.527,63.54 295.199,63.868 294.794,63.868 C294.389,63.868 294.06,63.54 294.06,63.135 L294.06,37.681 C294.06,32.25 297.938,28.6 303.71,28.6 C309.87,28.6 313.125,31.88 313.125,38.084 L313.125,63.135 C313.125,63.54 312.797,63.868 312.392,63.868" id="Fill-44" sketch:type="MSShapeGroup"></path>
            </g>
        </g>
    </g>
</svg>