<?xml version="1.0" encoding="UTF-8" standalone="no"?>
<svg width="605px" height="122px" viewBox="0 0 605 122" version="1.1" xmlns="http://www.w3.org/2000/svg" xmlns:xlink="http://www.w3.org/1999/xlink" xmlns:sketch="http://www.bohemiancoding.com/sketch/ns">
    <!-- Generator: Sketch 3.2.1 (9971) - http://www.bohemiancoding.com/sketch -->
    <title>Imported Layers</title>
    <desc>Created with Sketch.</desc>
    <defs></defs>
    <g id="Page-1" stroke="none" stroke-width="1" fill="none" fill-rule="evenodd" sketch:type="MSPage">
        <g id="Imported-Layers" sketch:type="MSLayerGroup" fill="#00A683">
            <path d="M14.107,118.95 C13.839,118.95 13.567,118.889 13.311,118.761 C12.432,118.32 12.076,117.25 12.517,116.371 L47.507,46.542 C47.948,45.664 49.018,45.308 49.897,45.748 C50.775,46.189 51.131,47.259 50.69,48.138 L15.7,117.967 C15.388,118.59 14.76,118.95 14.107,118.95" id="Fill-1" sketch:type="MSShapeGroup"></path>
            <path d="M25.803,118.95 C25.535,118.95 25.263,118.889 25.007,118.761 C24.128,118.32 23.773,117.251 24.213,116.372 L53.323,58.25 C53.764,57.372 54.833,57.016 55.712,57.456 C56.591,57.896 56.947,58.966 56.506,59.845 L27.397,117.966 C27.085,118.59 26.456,118.95 25.803,118.95" id="Fill-2" sketch:type="MSShapeGroup"></path>
            <path d="M107.363,119 C106.71,119 106.08,118.638 105.769,118.014 L53.274,12.763 C52.835,11.883 53.193,10.814 54.073,10.375 C54.951,9.935 56.022,10.293 56.461,11.174 L108.955,116.424 C109.394,117.304 109.037,118.373 108.156,118.811 C107.901,118.94 107.63,119 107.363,119" id="Fill-3" sketch:type="MSShapeGroup"></path>
            <path d="M119.059,119 C118.405,119 117.776,118.638 117.464,118.014 L60.129,3.055 C59.69,2.175 60.047,1.106 60.928,0.667 C61.806,0.227 62.876,0.585 63.315,1.466 L120.651,116.424 C121.09,117.304 120.732,118.373 119.852,118.811 C119.597,118.94 119.326,119 119.059,119" id="Fill-4" sketch:type="MSShapeGroup"></path>
            <path d="M80.249,107.303 L42.586,107.303 C41.603,107.303 40.806,106.506 40.806,105.522 C40.806,104.539 41.603,103.742 42.586,103.742 L80.249,103.742 C81.232,103.742 82.029,104.539 82.029,105.522 C82.029,106.506 81.232,107.303 80.249,107.303" id="Fill-5" sketch:type="MSShapeGroup"></path>
            <path d="M75.101,95.606 L47.745,95.606 C46.761,95.606 45.964,94.81 45.964,93.826 C45.964,92.843 46.761,92.046 47.745,92.046 L75.101,92.046 C76.085,92.046 76.881,92.843 76.881,93.826 C76.881,94.81 76.085,95.606 75.101,95.606" id="Fill-6" sketch:type="MSShapeGroup"></path>
            <path d="M95.67,118.999 L37.501,118.999 C36.517,118.999 35.72,118.202 35.72,117.219 C35.72,116.235 36.517,115.438 37.501,115.438 L92.793,115.438 L49.023,27.673 L4.006,117.958 C3.567,118.837 2.499,119.194 1.618,118.757 C0.738,118.317 0.38,117.249 0.819,116.368 L47.43,22.889 C47.731,22.285 48.348,21.903 49.023,21.903 C49.698,21.903 50.315,22.284 50.617,22.889 L97.264,116.424 C97.539,116.976 97.509,117.631 97.185,118.155 C96.86,118.68 96.287,118.999 95.67,118.999" id="Fill-7" sketch:type="MSShapeGroup"></path>
            <path d="M360.578,12.588 L339.607,12.588 C338.624,12.588 337.827,11.791 337.827,10.808 C337.827,9.824 338.624,9.027 339.607,9.027 L360.578,9.027 C361.561,9.027 362.358,9.824 362.358,10.808 C362.358,11.791 361.561,12.588 360.578,12.588" id="Fill-8" sketch:type="MSShapeGroup"></path>
            <path d="M360.578,22.912 L339.607,22.912 C338.624,22.912 337.827,22.115 337.827,21.132 C337.827,20.148 338.624,19.352 339.607,19.352 L360.578,19.352 C361.561,19.352 362.358,20.148 362.358,21.132 C362.358,22.115 361.561,22.912 360.578,22.912" id="Fill-9" sketch:type="MSShapeGroup"></path>
            <path d="M360.578,33.236 L339.607,33.236 C338.624,33.236 337.827,32.439 337.827,31.456 C337.827,30.472 338.624,29.675 339.607,29.675 L360.578,29.675 C361.561,29.675 362.358,30.472 362.358,31.456 C362.358,32.439 361.561,33.236 360.578,33.236" id="Fill-10" sketch:type="MSShapeGroup"></path>
            <path d="M278.625,40.248 C277.642,40.248 276.845,39.452 276.845,38.468 L276.845,1.987 C276.845,1.004 277.642,0.207 278.625,0.207 C279.609,0.207 280.406,1.004 280.406,1.987 L280.406,38.468 C280.406,39.452 279.609,40.248 278.625,40.248" id="Fill-11" sketch:type="MSShapeGroup"></path>
            <path d="M141.115,118.999 C140.131,118.999 139.335,118.202 139.335,117.219 L139.335,88.025 C139.335,87.041 140.131,86.245 141.115,86.245 C142.098,86.245 142.895,87.041 142.895,88.025 L142.895,117.219 C142.895,118.202 142.098,118.999 141.115,118.999" id="Fill-12" sketch:type="MSShapeGroup"></path>
            <path d="M151.439,118.999 C150.456,118.999 149.659,118.202 149.659,117.219 L149.659,83.902 C149.659,82.918 150.456,82.122 151.439,82.122 C152.422,82.122 153.219,82.918 153.219,83.902 L153.219,117.219 C153.219,118.202 152.422,118.999 151.439,118.999" id="Fill-13" sketch:type="MSShapeGroup"></path>
            <path d="M130.792,62.956 C130.085,62.956 129.416,62.533 129.138,61.836 C128.773,60.923 129.217,59.887 130.131,59.522 L173.05,42.382 C173.962,42.018 174.999,42.461 175.363,43.375 C175.728,44.288 175.284,45.324 174.37,45.688 L131.451,62.829 C131.235,62.915 131.011,62.956 130.792,62.956" id="Fill-14" sketch:type="MSShapeGroup"></path>
            <path d="M130.792,73.281 C130.085,73.281 129.416,72.857 129.138,72.16 C128.773,71.247 129.217,70.211 130.131,69.847 L173.05,52.706 C173.962,52.342 174.999,52.786 175.363,53.699 C175.728,54.612 175.284,55.648 174.37,56.013 L131.451,73.153 C131.235,73.24 131.011,73.281 130.792,73.281" id="Fill-15" sketch:type="MSShapeGroup"></path>
            <path d="M130.791,118.999 C129.808,118.999 129.011,118.202 129.011,117.219 L129.011,81.824 C129.011,81.095 129.454,80.44 130.131,80.17 L173.05,63.03 C173.962,62.666 174.999,63.11 175.363,64.023 C175.728,64.936 175.284,65.972 174.37,66.337 L132.571,83.03 L132.571,117.219 C132.571,118.202 131.774,118.999 130.791,118.999" id="Fill-16" sketch:type="MSShapeGroup"></path>
            <path d="M220.557,100.848 C209.398,100.848 201.605,92.835 201.605,81.362 C201.605,69.889 209.398,61.876 220.557,61.876 C227.069,61.876 230.205,62.868 235.144,66.493 C235.937,67.075 236.107,68.189 235.526,68.981 C234.944,69.774 233.83,69.946 233.037,69.364 C228.736,66.207 226.287,65.436 220.557,65.436 C212.896,65.436 205.166,70.361 205.166,81.362 C205.166,92.363 212.896,97.287 220.557,97.287 C225.421,97.287 229.387,96.039 233.037,93.36 C233.83,92.778 234.943,92.95 235.526,93.742 C236.107,94.535 235.937,95.649 235.144,96.231 C230.852,99.381 226.217,100.848 220.557,100.848" id="Fill-17" sketch:type="MSShapeGroup"></path>
            <path d="M220.671,111.132 C206.15,111.132 190.52,101.817 190.52,81.366 C190.52,60.914 206.15,51.6 220.671,51.6 C228.955,51.6 235.387,53.683 240.913,58.157 C241.678,58.776 241.795,59.897 241.177,60.661 C240.559,61.426 239.437,61.544 238.673,60.925 C233.748,56.938 228.196,55.16 220.671,55.16 C207.436,55.16 194.081,63.263 194.081,81.366 C194.081,99.468 207.436,107.571 220.671,107.571 C225.635,107.571 232.788,106.571 238.673,101.807 C239.436,101.187 240.557,101.305 241.177,102.07 C241.795,102.834 241.678,103.955 240.913,104.574 C235.614,108.864 228.614,111.132 220.671,111.132" id="Fill-18" sketch:type="MSShapeGroup"></path>
            <path d="M220.786,121.416 C200.204,121.416 179.435,109.033 179.435,81.37 C179.435,68.825 183.832,58.394 192.149,51.203 C199.518,44.831 209.688,41.323 220.786,41.323 C231.023,41.323 240.455,44.416 246.663,49.809 C247.405,50.454 247.484,51.579 246.839,52.321 C246.194,53.063 245.071,53.143 244.328,52.498 C238.84,47.73 230.04,44.884 220.786,44.884 C201.976,44.884 182.996,56.165 182.996,81.37 C182.996,106.573 201.976,117.855 220.786,117.855 C230.04,117.855 238.84,115.009 244.328,110.242 C245.071,109.597 246.194,109.677 246.839,110.418 C247.484,111.16 247.405,112.285 246.663,112.93 C240.456,118.323 231.024,121.416 220.786,121.416" id="Fill-19" sketch:type="MSShapeGroup"></path>
            <path d="M339.632,119.081 C338.648,119.081 337.852,118.284 337.852,117.301 L337.852,45.893 C337.852,44.909 338.648,44.112 339.632,44.112 C340.615,44.112 341.412,44.909 341.412,45.893 L341.412,117.301 C341.412,118.284 340.615,119.081 339.632,119.081" id="Fill-20" sketch:type="MSShapeGroup"></path>
            <path d="M349.956,119.081 C348.973,119.081 348.176,118.284 348.176,117.301 L348.176,45.893 C348.176,44.909 348.973,44.112 349.956,44.112 C350.94,44.112 351.736,44.909 351.736,45.893 L351.736,117.301 C351.736,118.284 350.94,119.081 349.956,119.081" id="Fill-21" sketch:type="MSShapeGroup"></path>
            <path d="M360.28,119.081 C359.297,119.081 358.5,118.284 358.5,117.301 L358.5,45.893 C358.5,44.909 359.297,44.112 360.28,44.112 C361.264,44.112 362.06,44.909 362.06,45.893 L362.06,117.301 C362.06,118.284 361.264,119.081 360.28,119.081" id="Fill-22" sketch:type="MSShapeGroup"></path>
            <path d="M403.536,119.082 C402.845,119.082 402.187,118.677 401.898,118.002 L371.251,46.436 C370.864,45.532 371.283,44.486 372.186,44.099 C373.091,43.711 374.138,44.13 374.524,45.035 L405.172,116.6 C405.559,117.504 405.14,118.551 404.236,118.937 C404.008,119.035 403.77,119.082 403.536,119.082" id="Fill-23" sketch:type="MSShapeGroup"></path>
            <path d="M413.86,119.082 C413.169,119.082 412.512,118.677 412.223,118.002 L381.575,46.436 C381.189,45.532 381.607,44.486 382.511,44.099 C383.414,43.711 384.462,44.13 384.849,45.035 L415.496,116.6 C415.883,117.504 415.464,118.551 414.56,118.937 C414.332,119.035 414.094,119.082 413.86,119.082" id="Fill-24" sketch:type="MSShapeGroup"></path>
            <path d="M424.185,119.082 C423.493,119.082 422.836,118.677 422.547,118.002 L391.899,46.436 C391.513,45.532 391.932,44.486 392.835,44.099 C393.74,43.711 394.786,44.13 395.173,45.035 L425.82,116.6 C426.207,117.504 425.788,118.551 424.885,118.937 C424.656,119.035 424.418,119.082 424.185,119.082" id="Fill-25" sketch:type="MSShapeGroup"></path>
            <path d="M424.183,119.179 C423.945,119.179 423.705,119.131 423.474,119.03 C422.572,118.638 422.159,117.589 422.551,116.687 L453.71,45.025 C454.103,44.123 455.151,43.71 456.053,44.102 C456.954,44.495 457.367,45.543 456.976,46.445 L425.816,118.107 C425.524,118.778 424.87,119.179 424.183,119.179" id="Fill-26" sketch:type="MSShapeGroup"></path>
            <path d="M424.219,95.059 C423.98,95.059 423.738,95.011 423.506,94.909 C422.606,94.515 422.194,93.465 422.589,92.564 L443.388,45.022 C443.781,44.121 444.833,43.711 445.732,44.104 C446.633,44.498 447.044,45.548 446.649,46.449 L425.851,93.991 C425.559,94.66 424.904,95.059 424.219,95.059" id="Fill-27" sketch:type="MSShapeGroup"></path>
            <path d="M419.149,83.221 C418.912,83.221 418.671,83.174 418.44,83.073 C417.538,82.68 417.125,81.631 417.518,80.73 L433.062,45.025 C433.454,44.123 434.503,43.709 435.405,44.103 C436.307,44.496 436.72,45.544 436.327,46.446 L420.783,82.151 C420.491,82.821 419.837,83.221 419.149,83.221" id="Fill-28" sketch:type="MSShapeGroup"></path>
            <path d="M258.049,118.999 C257.066,118.999 256.269,118.202 256.269,117.219 L256.269,1.987 C256.269,1.004 257.066,0.207 258.049,0.207 C259.033,0.207 259.83,1.004 259.83,1.987 L259.83,117.219 C259.83,118.202 259.033,118.999 258.049,118.999" id="Fill-29" sketch:type="MSShapeGroup"></path>
            <path d="M572.965,111.221 C569.426,111.221 557.258,110.602 549.289,102.632 C548.594,101.936 548.594,100.809 549.289,100.114 C549.984,99.418 551.111,99.418 551.807,100.114 C557.37,105.678 566.384,107.66 572.965,107.66 C573.591,107.66 588.304,107.565 588.304,99.338 C588.304,93.414 585.166,91.797 579.999,89.839 C577.568,88.917 567.315,85.19 567.212,85.153 C566.212,84.735 565.289,84.362 564.371,83.991 C555.612,80.449 546.555,76.787 546.555,63.805 C546.555,57.939 549.031,52.497 553.528,48.478 C558.633,43.918 566.044,41.508 574.963,41.508 C586.486,41.508 594.262,44.164 600.176,50.121 C600.868,50.818 600.864,51.946 600.167,52.639 C599.468,53.332 598.342,53.327 597.648,52.629 C592.457,47.4 585.461,45.068 574.963,45.068 C557.799,45.068 550.115,54.479 550.115,63.805 C550.115,74.386 557.34,77.307 565.706,80.689 C566.639,81.066 567.576,81.446 568.51,81.838 C568.852,81.96 578.808,85.579 581.261,86.509 C586.849,88.626 591.864,91.201 591.864,99.338 C591.864,108.108 581.684,111.221 572.965,111.221" id="Fill-30" sketch:type="MSShapeGroup"></path>
            <path d="M498.029,121.527 C473.808,121.527 458.157,105.87 458.157,81.639 C458.157,57.95 474.553,41.405 498.029,41.405 C521.555,41.405 536.169,56.822 536.169,81.639 L536.169,90.135 C536.169,91.119 535.372,91.915 534.389,91.915 L492.203,91.915 C491.22,91.915 490.423,91.119 490.423,90.135 C490.423,89.152 491.22,88.355 492.203,88.355 L532.608,88.355 L532.608,81.639 C532.608,58.676 519.682,44.966 498.029,44.966 C476.31,44.966 461.718,59.704 461.718,81.639 C461.718,104.047 475.632,117.967 498.029,117.967 C508.063,117.967 514.104,116.34 520.319,111.963 C521.125,111.396 522.235,111.591 522.801,112.394 C523.366,113.198 523.174,114.309 522.37,114.875 C514.527,120.396 506.968,121.527 498.029,121.527" id="Fill-31" sketch:type="MSShapeGroup"></path>
            <path d="M268.374,50.374 C267.39,50.374 266.593,49.578 266.593,48.594 L266.593,1.987 C266.593,1.004 267.39,0.207 268.374,0.207 C269.357,0.207 270.154,1.004 270.154,1.987 L270.154,48.594 C270.154,49.578 269.357,50.374 268.374,50.374" id="Fill-32" sketch:type="MSShapeGroup"></path>
            <path d="M324.484,119.093 C324.013,119.093 323.56,118.858 323.226,118.524 C322.908,118.207 322.723,117.739 322.705,117.288 L322.704,117.288 L322.704,117.265 L322.704,117.219 C322.704,117.198 322.704,117.178 322.705,117.158 C322.714,114.848 322.782,83.571 322.782,67.566 C322.782,53.423 309.402,44.971 296.466,44.971 C279.218,44.971 270.194,56.338 270.194,67.566 L270.194,117.199 C270.194,118.183 269.397,118.979 268.414,118.979 C267.43,118.979 266.633,118.183 266.633,117.199 L266.633,67.566 C266.633,54.568 276.881,41.41 296.466,41.41 C307.673,41.41 314.669,45.941 318.565,49.742 C323.508,54.566 326.343,61.062 326.343,67.566 C326.343,75.868 326.324,88.306 326.306,98.668 L326.27,115.86 C326.269,116.246 326.268,116.62 326.247,116.968 C326.259,117.05 326.265,117.134 326.265,117.219 L326.228,117.219 C326.227,117.244 326.224,117.269 326.221,117.294 L326.265,117.296 L326.221,117.296 C326.11,118.346 325.739,119.093 324.484,119.093" id="Fill-33" sketch:type="MSShapeGroup"></path>
            <path d="M498.029,111.332 C480.002,111.332 468.354,99.677 468.354,81.639 C468.354,63.953 480.557,51.601 498.029,51.601 C498.411,51.579 509.588,51.134 517.881,59.035 C523.545,64.431 526.417,72.322 526.417,82.489 C526.417,83.472 525.62,84.269 524.637,84.269 C523.653,84.269 522.856,83.472 522.856,82.489 C522.856,73.352 520.365,66.337 515.453,61.64 C508.287,54.788 498.221,55.158 498.112,55.159 C482.409,55.161 471.914,65.802 471.914,81.639 C471.914,97.514 482.165,107.772 498.029,107.772 C506.388,107.772 512.99,105.938 515.26,102.987 C515.859,102.209 516.977,102.062 517.757,102.662 C518.536,103.262 518.682,104.379 518.082,105.159 C513.797,110.73 502.631,111.332 498.029,111.332" id="Fill-34" sketch:type="MSShapeGroup"></path>
            <path d="M493.72,100.708 C493.581,100.708 493.44,100.692 493.299,100.658 C486.168,98.929 478.549,93.025 478.549,81.639 C478.549,70.345 486.713,62.142 497.971,62.114 C498.807,62.065 505.568,61.829 510.681,66.568 C514.364,69.983 516.232,75.054 516.232,81.639 C516.232,82.623 515.435,83.419 514.452,83.419 L492.67,83.419 C491.686,83.419 490.89,82.623 490.89,81.639 C490.89,80.656 491.686,79.859 492.67,79.859 L512.618,79.859 C512.329,75.199 510.876,71.62 508.286,69.204 C504.108,65.306 498.217,65.665 498.158,65.67 C498.117,65.673 498.07,65.675 498.029,65.675 C488.656,65.675 482.109,72.24 482.109,81.639 C482.109,90.96 488.323,95.788 494.139,97.197 C495.094,97.429 495.681,98.392 495.449,99.347 C495.252,100.162 494.523,100.708 493.72,100.708" id="Fill-35" sketch:type="MSShapeGroup"></path>
            <path d="M570.746,121.468 C552.838,121.468 543.727,111.097 543.349,110.655 C542.708,109.909 542.793,108.785 543.539,108.144 C544.286,107.501 545.41,107.59 546.05,108.335 C546.13,108.428 554.546,117.907 570.746,117.907 C589.739,117.907 600.632,110.487 600.632,97.549 C600.632,87.071 591.92,82.957 582.996,79.642 L570.608,75.301 C565.006,73.599 559.467,71.363 559.467,64.778 C559.467,58.231 564.595,51.626 576.051,51.626 C584.291,51.626 590.029,53.69 594.658,58.319 C595.354,59.015 595.354,60.142 594.658,60.837 C593.963,61.532 592.836,61.532 592.141,60.837 C588.233,56.93 583.271,55.187 576.051,55.187 C566.438,55.187 563.027,60.353 563.027,64.778 C563.027,68.183 565.139,69.917 571.715,71.917 L584.205,76.293 C593.892,79.891 604.192,84.787 604.192,97.549 C604.192,112.526 591.69,121.468 570.746,121.468" id="Fill-36" sketch:type="MSShapeGroup"></path>
            <path d="M573.115,102.121 C567.026,102.121 560.802,99.356 556.975,94.392 C556.374,93.613 556.519,92.496 557.298,91.895 C558.074,91.295 559.194,91.438 559.795,92.218 C564.44,98.244 573.765,100.354 580.159,96.831 C581.021,96.354 582.103,96.669 582.578,97.53 C583.053,98.392 582.739,99.474 581.878,99.949 C579.207,101.421 576.178,102.121 573.115,102.121" id="Fill-37" sketch:type="MSShapeGroup"></path>
            <path d="M587.292,70.237 C586.846,70.237 586.399,70.071 586.054,69.736 C582.457,66.254 575.253,64.517 570.995,67.401 C570.179,67.953 569.074,67.741 568.523,66.926 C567.971,66.112 568.184,65.005 568.997,64.453 C574.793,60.528 583.942,62.739 588.53,67.178 C589.236,67.862 589.255,68.989 588.571,69.695 C588.222,70.056 587.757,70.237 587.292,70.237" id="Fill-38" sketch:type="MSShapeGroup"></path>
            <path d="M303.553,118.979 C302.569,118.979 301.773,118.183 301.773,117.199 L301.773,74.215 C301.773,67.273 299.923,65.045 294.16,65.045 C293.177,65.045 292.38,64.248 292.38,63.265 C292.38,62.281 293.177,61.484 294.16,61.484 C301.992,61.484 305.333,65.291 305.333,74.215 L305.333,117.199 C305.333,118.183 304.536,118.979 303.553,118.979" id="Fill-39" sketch:type="MSShapeGroup"></path>
            <path d="M314.161,118.979 C313.178,118.979 312.381,118.183 312.381,117.199 L312.381,70.854 C312.381,58.185 302.666,56.293 296.876,56.293 C287.488,56.293 280.932,61.972 280.932,70.102 L280.932,117.199 C280.932,118.183 280.135,118.979 279.152,118.979 C278.168,118.979 277.372,118.183 277.372,117.199 L277.372,70.102 C277.372,60.038 285.574,52.733 296.876,52.733 C308.815,52.733 315.941,59.507 315.941,70.854 L315.941,117.199 C315.941,118.183 315.145,118.979 314.161,118.979" id="Fill-40" sketch:type="MSShapeGroup"></path>
        </g>
    </g>
</svg>